<?xml version="1.0" encoding="utf-8"?>
<!-- Generator: Adobe Illustrator 16.0.4, SVG Export Plug-In . SVG Version: 6.00 Build 0)  -->
<!DOCTYPE svg PUBLIC "-//W3C//DTD SVG 1.1//EN" "http://www.w3.org/Graphics/SVG/1.1/DTD/svg11.dtd">
<svg version="1.1" id="Layer_1" xmlns="http://www.w3.org/2000/svg" xmlns:xlink="http://www.w3.org/1999/xlink" x="0px" y="0px"
	 width="960px" height="560px" viewBox="0 0 960 560" enable-background="new 0 0 960 560" xml:space="preserve">
<rect y="450" fill="#808080" width="960" height="110"/>
<rect fill="#E6E6E6" width="960" height="450"/>
<g>
	<path fill="#1F8599" d="M214.293,158.465c-0.955,5.417,2.695,10.629,8.112,11.584l173.774,30.641
		c5.417,0.955,10.629-2.695,11.584-8.112l62.818-356.256c0.955-5.417-2.695-10.629-8.112-11.584l-173.775-30.643
		c-5.417-0.955-10.629,2.695-11.584,8.112L214.293,158.465z"/>
	<path fill="none" stroke="#0F424D" stroke-width="20" stroke-miterlimit="10" d="M214.293,158.465
		c-0.955,5.417,2.695,10.629,8.112,11.584l173.774,30.641c5.417,0.955,10.629-2.695,11.584-8.112l62.818-356.256
		c0.955-5.417-2.695-10.629-8.112-11.584l-173.775-30.643c-5.417-0.955-10.629,2.695-11.584,8.112L214.293,158.465z"/>
</g>
<g>
	<path fill="#1F8599" d="M410,460c0,5.5-4.5,10-10,10H20c-5.5,0-10-4.5-10-10V180c0-5.5,4.5-10,10-10h380c5.5,0,10,4.5,10,10V460z"
		/>
	<path fill="none" stroke="#0F424D" stroke-width="20" stroke-miterlimit="10" d="M410,460c0,5.5-4.5,10-10,10H20
		c-5.5,0-10-4.5-10-10V180c0-5.5,4.5-10,10-10h380c5.5,0,10,4.5,10,10V460z"/>
</g>
</svg>
