<?xml version="1.0" encoding="utf-8"?>
<!-- Generator: Adobe Illustrator 16.0.0, SVG Export Plug-In . SVG Version: 6.00 Build 0)  -->
<!DOCTYPE svg PUBLIC "-//W3C//DTD SVG 1.1//EN" "http://www.w3.org/Graphics/SVG/1.1/DTD/svg11.dtd">
<svg version="1.1" xmlns="http://www.w3.org/2000/svg" xmlns:xlink="http://www.w3.org/1999/xlink" x="0px" y="0px" width="717px"
	 height="537.75px" viewBox="0 0 717 537.75" enable-background="new 0 0 717 537.75" xml:space="preserve">
<g id="Layer_1">
</g>
<g id="Layer_2">
</g>
<g id="Layer_3">
	<rect y="-0.25" width="717" height="538"/>
	<g>
		<path fill="#FFFFFF" d="M258.964,396.514l-0.012,0.002C258.99,396.515,258.99,396.514,258.964,396.514z"/>
		<path fill="#FFFFFF" d="M560.39,223.477l-2.854,0.047l-1.428,0.026l-1.414,0.077l-2.826,0.158l-2.852,0.254
			c-1.955,0.174-3.65,0.437-5.446,0.664l-0.667,0.089l-0.253,0.036l-0.171,0.03l-0.34,0.06l-1.365,0.243l-2.728,0.484l-0.711,0.127
			c-1.071-1.008-2.218-2.222-3.405-3.659c-1.741-2.121-3.592-4.688-5.496-7.677c-3.808-5.979-7.728-13.72-11.604-22.822
			c-0.48-1.139-0.954-2.302-1.42-3.482c-0.224-0.585-0.451-1.175-0.68-1.77c-0.206-0.601-0.413-1.204-0.621-1.813
			c-0.225-0.648-0.451-1.302-0.678-1.96c-0.252-0.648-0.506-1.301-0.762-1.958c-0.257-0.657-0.517-1.319-0.778-1.985
			c-0.286-0.654-0.573-1.314-0.861-1.979c-2.317-5.313-5.25-10.673-8.688-16.022c-3.451-5.342-7.438-10.665-12.009-15.809
			c-4.579-5.138-9.796-10.034-15.564-14.609c-5.759-4.587-12.201-8.702-19.209-12.21c-3.531-1.703-7.179-3.317-11.037-4.54
			c-1.899-0.685-3.884-1.172-5.852-1.734c-0.996-0.242-2.006-0.453-3.013-0.679l-1.515-0.329l-1.539-0.253
			c-4.093-0.747-8.325-1.044-12.592-1.04c-1.07,0.025-2.141,0.05-3.215,0.075c-1.119,0.099-2.24,0.197-3.363,0.296
			c-1.188,0.086-2.096,0.257-3.083,0.404l-1.468,0.226l-0.367,0.057l-0.184,0.028c0.051-0.017-1.11,0.233-0.703,0.148l-0.714,0.174
			c-7.617,1.868-15.357,3.588-23.174,5.18c-15.642,3.111-31.69,5.374-47.722,6.106c-8.008,0.41-16.014,0.466-23.908-0.031
			c-7.894-0.491-15.669-1.519-23.124-3.31c-0.935-0.224-1.864-0.46-2.806-0.709l-3.017-0.802l-0.492-0.118l-0.31-0.066L282,117.03
			l-0.467-0.073c-0.28-0.032-0.506-0.053-0.834-0.064c-0.718-0.158-2.367,0.382-2.743,0.522c0.721-0.953-5.749,5.442-3.465,3.892
			c-0.195,0.664-0.217,0.882-0.265,1.126l-0.092,0.588c-0.046,0.348-0.081,0.651-0.112,0.948c-0.118,1.168-0.188,2.226-0.246,3.292
			c-0.189,4.226-0.183,8.308-0.099,12.38c0.183,8.128,0.738,16.104,1.57,23.918c0.857,7.809,1.913,15.466,3.385,22.883
			c1.44,7.422,3.137,14.625,5.061,21.563c1.936,6.935,4.056,13.618,6.453,19.958c1.427,3.775,2.933,7.42,4.487,10.958
			c-1.931-0.978-4.279-2.063-7.034-3.171c-4.591-1.703-10.329-3.429-17.11-4.316c-6.774-0.881-14.552-0.95-22.865,0.336
			c-8.3,1.26-17.175,3.879-25.675,8.475c-8.486,4.568-16.565,11.148-22.889,19.604c-6.325,8.438-10.705,18.771-12.387,29.724
			c-0.393,2.741-0.688,5.509-0.777,8.295l-0.057,2.091l-0.014,0.523l-0.036,0.467l-0.085,1.035
			c-0.127,1.363-0.282,2.727-0.481,4.091c-0.792,5.446-2.146,10.84-4.167,15.973c-2.013,5.13-4.672,10.02-8.044,14.349
			c-2.418,3.157-6.319,6.726-9.981,9.627l-1.533,0.517c0.553-0.622,1.094-1.267,1.614-1.948c1.291-1.652,2.406-3.519,3.356-5.523
			c0.952-2.004,1.731-4.158,2.289-6.422c1.127-4.527,1.334-9.497,0.494-14.481c-0.83-4.987-2.803-9.95-5.734-14.472
			c-2.934-4.523-6.889-8.58-11.592-11.762c-4.686-3.22-10.155-5.406-15.825-6.672c-2.842-0.623-5.742-0.992-8.656-1.16
			c-1.461-0.102-2.912-0.095-4.384-0.098c-0.761,0.027-1.523,0.057-2.286,0.086l-0.569,0.023l-0.498,0.039l-0.997,0.078
			c-2.958,0.247-5.934,0.678-8.878,1.42c-2.942,0.734-5.845,1.741-8.659,2.994c-5.613,2.542-10.838,6.096-15.284,10.449
			c-4.438,4.365-8.11,9.475-10.903,14.994c-2.757,5.543-4.558,11.503-5.504,17.554c-0.94,6.055-0.969,12.233-0.029,18.25
			c1.714,12.067,7.962,23.349,16.716,31.035c1.073,0.985,2.223,1.864,3.354,2.751c1.17,0.834,2.325,1.676,3.539,2.409
			c1.184,0.782,2.432,1.432,3.649,2.116c1.258,0.599,2.492,1.234,3.767,1.738c5.053,2.152,10.212,3.477,15.233,4.261
			c0.627,0.093,1.252,0.208,1.877,0.282c0.624,0.07,1.246,0.141,1.866,0.21c1.239,0.161,2.469,0.219,3.688,0.308
			c1.206,0.105,2.468,0.102,3.687,0.145l0.917,0.023c0.299,0.004,0.57-0.004,0.856-0.011c0.564-0.015,1.126-0.03,1.686-0.044
			c4.624-0.205,9.033-0.446,13.232-0.932c1.051-0.105,2.09-0.211,3.119-0.316c1.027-0.102,2.034-0.268,3.034-0.396
			c1.997-0.277,3.946-0.529,5.841-0.824c1.872-0.341,3.696-0.673,5.471-0.996c0.063,0.076,0.125,0.152,0.186,0.229
			c0.19,0.241,0.412,0.456,0.618,0.686c0.203,0.231,0.436,0.436,0.656,0.652c0.217,0.22,0.463,0.409,0.699,0.612
			c0.231,0.207,0.491,0.379,0.74,0.566c0.245,0.191,0.521,0.342,0.782,0.512c0.26,0.174,0.549,0.3,0.823,0.451
			c0.276,0.148,0.573,0.255,0.86,0.383c0.292,0.119,0.595,0.204,0.893,0.307c0.303,0.086,0.612,0.15,0.918,0.226l0.938,0.14
			l0.945,0.055c0.314-0.008,0.631-0.012,0.946-0.029l0.611-0.071c1.061,1.345,1.949,2.815,2.604,4.387
			c0.704,1.654,1.128,3.416,1.37,5.214c0.249,1.8,0.309,3.635,0.457,5.505c0.169,1.853,0.398,3.833,1.401,5.604
			c0.491,0.876,1.161,1.653,1.925,2.292c0.759,0.656,1.632,1.116,2.502,1.543c0.885,0.391,1.789,0.725,2.707,0.975l0.688,0.189
			c0.268,0.077,0.464,0.107,0.699,0.162l1.356,0.299c0.897,0.209,1.867,0.314,2.797,0.475c0.47,0.058,0.942,0.093,1.414,0.133
			c0.473,0.036,0.943,0.087,1.419,0.076c1.897,0.077,3.815-0.114,5.689-0.531c1.874-0.42,3.7-1.198,5.272-2.354
			c1.579-1.146,2.875-2.673,3.777-4.385c0.909-1.713,1.445-3.588,1.712-5.473c0.263-1.888,0.282-3.797,0.107-5.676
			c-0.189-1.879-0.538-3.732-1.009-5.552c-0.505-1.808-1.087-3.595-1.833-5.313c-0.738-1.719-1.552-3.406-2.48-5.025
			c-0.424-0.771-0.879-1.523-1.35-2.266c3.483,3.109,7.163,6,10.938,8.737c2.884,2.088,5.835,4.083,8.818,6.019l2.242,1.441
			c0.652,0.426,1.364,0.867,1.946,1.295l-0.015,0.025l-0.336,0.574c-0.231,0.375-0.391,0.847-0.587,1.268
			c-0.206,0.433-0.327,0.867-0.471,1.301c-0.145,0.434-0.287,0.867-0.378,1.313c-0.463,1.761-0.687,3.576-0.681,5.409
			c0.008,0.46-0.007,0.917,0.07,1.38c0.075,0.465,0.073,0.92,0.215,1.391c0.183,0.842,0.478,1.766,0.854,2.619
			c1.482,3.4,4.402,6.125,7.884,7.398c1.736,0.645,3.606,0.934,5.458,0.842c0.465-0.001,0.923-0.068,1.382-0.137
			c0.234-0.037,0.447-0.057,0.7-0.108l0.649-0.145c0.89-0.218,1.797-0.492,2.636-0.876c1.706-0.734,3.259-1.898,4.424-3.377
			c0.575-0.745,1.054-1.557,1.446-2.404c0.331-0.734,0.574-1.498,0.782-2.27c3.221-0.949,6.594-1.154,9.874-0.545
			c1.697,0.33,3.375,0.829,5.125,1.258c0.444,0.096,0.877,0.213,1.33,0.289l1.366,0.205l1.398,0.056
			c0.466,0.009,0.933-0.075,1.401-0.109c1.846-0.276,3.646-0.912,5.196-1.872c0.391-0.234,0.81-0.435,1.178-0.699l1.104-0.793
			c0.372-0.279,0.729-0.494,1.111-0.828c0.333-0.301,0.671-0.552,1.001-0.895c1.364-1.338,2.402-2.9,3.071-4.664
			c0.664-1.752,0.925-3.654,0.769-5.518c-0.343-3.742-2.276-7.191-4.992-9.66c-2.727-2.482-6.176-4.08-9.744-4.758
			c-1.783-0.344-3.599-0.535-5.408-0.497c-0.906-0.029-1.805,0.081-2.707,0.123c-0.893,0.121-1.795,0.19-2.678,0.366l-0.977,0.183
			c-0.002-0.082-0.002-0.165-0.003-0.247c0-0.864,0.027-1.753,0.047-2.637c0.044-1.77,0.078-3.546,0.08-5.322
			c0-0.486-0.007-0.973-0.011-1.459c0.055,0.009,0.101,0.018,0.159,0.026c0.082,0.014,0.173,0.026,0.289,0.036
			c0.048,0,0.097-0.002,0.145-0.007c0.073-0.009,0.192-0.065,0.254-0.134c0.004-0.004,0.006-0.011,0.01-0.016
			c0.087-0.016,0.272-0.039,0.441-0.043c0.405-0.021,0.851-0.01,1.378-0.006c0.508-0.002,1.058-0.006,1.646-0.01
			c0.589-0.01,1.211,0.008,1.875-0.025c0.665-0.045,1.365-0.094,2.094-0.145c0.365-0.026,0.738-0.053,1.117-0.08
			c0.376-0.045,0.76-0.09,1.15-0.135c0.779-0.092,1.586-0.188,2.415-0.285c1.643-0.277,3.393-0.497,5.17-0.886
			c0.891-0.186,1.803-0.343,2.713-0.561c0.911-0.216,1.832-0.437,2.762-0.657c0.93-0.219,1.851-0.499,2.785-0.748l1.4-0.386
			l1.389-0.433c0.919-0.311,1.848-0.594,2.756-0.924c0.907-0.332,1.811-0.664,2.707-0.992c0.898-0.326,1.766-0.707,2.636-1.053
			s1.723-0.701,2.548-1.084c0.829-0.374,1.644-0.742,2.442-1.102c0.785-0.389,1.552-0.768,2.3-1.137
			c0.753-0.357,1.461-0.755,2.15-1.131c0.688-0.379,1.359-0.731,1.99-1.095c1.002-0.613,1.943-1.165,2.779-1.716l16.216,1.541
			c1.055,2.197,2.097,4.342,3.015,6.525c0.916,2.184,1.748,4.375,2.512,6.57c0.771,2.193,1.372,4.438,1.982,6.656
			c0.583,2.229,1.113,4.467,1.557,6.728c0.45,2.259,0.88,4.522,1.226,6.821c0.386,2.291,0.717,4.609,1.066,6.971
			c0.38,2.363,0.731,4.76,1.258,7.307c0.286,1.277,0.595,2.578,1.042,3.98c0.468,1.408,1.009,2.9,2.033,4.58
			c0.298,0.445,0.554,0.83,0.926,1.301c0.243,0.284,0.498,0.562,0.76,0.83l0.401,0.396c0.121,0.115,0.316,0.295,0.336,0.309
			l0.345,0.285l0.172,0.145l0.043,0.035l0.021,0.019c-0.081-0.058,0.769,0.56,0.431,0.312l0.179,0.113
			c0.48,0.289,0.966,0.611,1.467,0.832c2.015,0.975,4.071,1.348,5.887,1.432c1.831,0.089,3.478-0.115,5.001-0.413
			c1.524-0.301,2.934-0.706,4.276-1.161c2.682-0.906,5.094-2.056,7.381-3.266c1.14-0.602,2.255-1.227,3.302-1.821l0.704-0.398
			c1.264,0.119,2.509,0.452,4.19,1.074c2.014,0.729,4.563,1.836,7.381,2.526c2.82,0.691,5.768,0.966,8.549,0.873
			c2.811-0.074,5.436-0.539,8.008-1.08l1.1-0.23l0.421-0.277l1.094-0.721c0.364-0.252,0.728-0.528,1.086-0.793
			c0.359-0.277,0.717-0.588,1.07-0.882c0.353-0.315,0.701-0.655,1.043-0.987c0.682-0.72,1.327-1.496,1.889-2.404
			c0.577-0.876,1.032-1.903,1.375-2.945c0.317-1.061,0.501-2.157,0.51-3.222c-0.002-1.058-0.119-2.083-0.355-3.013
			c-0.213-0.949-0.54-1.799-0.883-2.618c-0.357-0.804-0.778-1.548-1.21-2.253c-0.439-0.699-0.899-1.361-1.375-1.996
			c-0.478-0.631-0.971-1.234-1.47-1.821c-0.507-0.577-1.015-1.147-1.537-1.692c-0.534-0.537-1.078-1.058-1.627-1.566
			c-0.547-0.51-1.102-1.006-1.659-1.495c-0.063-0.054-0.124-0.106-0.187-0.161c0.092-0.068,0.188-0.135,0.279-0.203
			c0.438-0.318,0.631-0.516,0.918-0.76l0.81-0.707l0.405-0.352l0.551-0.502l0.716-0.645c0.478-0.418,0.953-0.891,1.43-1.246
			c0.472-0.379,0.944-0.786,1.411-1.147l1.382-0.974c0.447-0.242,0.893-0.568,1.325-0.764l0.644-0.319l0.67-0.267
			c0.205-0.094,0.487-0.176,0.748-0.264l0.395-0.131l0.505-0.152l0.506-0.154l0.614-0.197c0.428-0.142,0.825-0.26,1.334-0.473
			c0.956-0.351,1.947-0.861,2.887-1.395c0.871-0.574,1.779-1.17,2.47-1.791c0.363-0.308,0.752-0.621,1.088-0.933l0.941-0.933
			c0.305-0.311,0.643-0.627,0.916-0.938l0.815-0.928c1.135-1.246,2.015-2.473,3.005-3.711l0.222-0.277l0.195-0.348
			c0.829-1.481,1.617-3.178,2.031-5.295c0.427-2.088,0.284-4.682-0.593-6.889c-0.857-2.222-2.222-3.908-3.544-5.166
			c-1.34-1.269-2.692-2.191-3.999-2.949c-2.626-1.547-5.147-2.506-7.644-3.352c-2.489-0.834-4.933-1.494-7.359-2.096
			c-4.851-1.192-9.629-2.119-14.381-3.008l-14.209-2.326l-14.06-2.375c-1.981-0.351-3.955-0.729-5.922-1.123l8.6-3.742
			c4.722-2.074,9.463-4.134,14.228-5.637c2.372-0.753,4.751-1.347,7.085-1.604l0.871-0.095l0.81-0.027
			c0.277-0.007,0.52-0.03,0.822-0.028l0.97,0.033l0.484,0.018l0.243,0.008c-0.031,0,0.155,0.002-0.055,0.002l0.063,0.004
			l0.123,0.006l0.991,0.061l1.985,0.118l3.951,0.146l3.94,0.06c2.622-0.018,5.244-0.048,7.861-0.141
			c5.236-0.176,10.469-0.448,15.702-0.91c5.237-0.443,10.468-1.061,15.708-1.948c2.623-0.465,5.245-0.927,7.881-1.549
			c0.659-0.151,1.316-0.285,1.977-0.452l1.986-0.535l1.992-0.542l2.12-0.709l1.061-0.36c0.339-0.122,0.743-0.242,1.015-0.368
			l1.79-0.748l1.844-0.784l1.836-0.822c2.429-1.096,4.8-2.258,7.151-3.461c9.395-4.809,18.5-10.117,27.343-15.892
			c2.2-1.459,4.402-2.917,6.56-4.445c1.083-0.755,2.151-1.536,3.214-2.324c1.06-0.792,2.14-1.554,3.184-2.368
			c4.229-3.186,8.334-6.549,12.372-10.002c4.004-3.497,7.919-7.111,11.682-10.904c3.738-3.818,7.407-7.73,10.741-11.958
			c1.729-2.056,3.302-4.255,4.932-6.397c0.793-1.092,1.545-2.219,2.318-3.326l1.151-1.668c0.382-0.557,0.728-1.143,1.094-1.713
			L560.07,243c0.687-1.172,1.345-2.363,2.017-3.544l1.001-1.776l0.924-1.824l1.831-3.658l4.449-8.883L560.39,223.477z
			 M258.669,378.902c-0.12,0.042-0.236,0.076-0.351,0.11c0-0.039-0.002-0.077-0.003-0.116c0.122-0.061,0.247-0.1,0.336-0.105
			c0.06-0.004,0.12,0.002,0.176,0.016C258.824,378.844,258.753,378.878,258.669,378.902z M259.27,380.076
			c-0.001,0.002-0.003,0.002-0.003,0.004c0.002-0.006,0.005-0.013,0.007-0.02C259.275,380.057,259.271,380.071,259.27,380.076z"/>
	</g>
</g>
<g id="Layer_4">
</g>
<g id="Layer_5">
</g>
<g id="Layer_6">
</g>
</svg>
