<?xml version="1.0" encoding="utf-8"?>
<!-- Generator: Adobe Illustrator 16.0.4, SVG Export Plug-In . SVG Version: 6.00 Build 0)  -->
<!DOCTYPE svg PUBLIC "-//W3C//DTD SVG 1.1//EN" "http://www.w3.org/Graphics/SVG/1.1/DTD/svg11.dtd">
<svg version="1.1" id="Layer_1" xmlns="http://www.w3.org/2000/svg" xmlns:xlink="http://www.w3.org/1999/xlink" x="0px" y="0px"
	 width="1024px" height="768px" viewBox="0 0 1024 768" enable-background="new 0 0 1024 768" xml:space="preserve">
<g id="Layer_1_1_">
</g>
<g id="Layer_2">
</g>
<g id="Layer_3">
	<rect fill="#FFFFFF" width="1024" height="768"/>
	<g>
		<path d="M369.949,566.234l-0.019,0.002C369.986,566.235,369.986,566.234,369.949,566.234z"/>
		<path d="M800.557,319.038l-4.078,0.067l-2.038,0.038l-2.021,0.111l-4.037,0.226l-4.074,0.363
			c-2.793,0.248-5.215,0.624-7.778,0.949l-0.952,0.126l-0.362,0.052l-0.244,0.043l-0.485,0.086l-1.949,0.346l-3.897,0.692
			l-1.017,0.181c-1.529-1.44-3.168-3.173-4.864-5.228c-2.487-3.029-5.132-6.695-7.852-10.966c-5.439-8.542-11.04-19.6-16.577-32.603
			c-0.688-1.627-1.363-3.288-2.029-4.975c-0.32-0.836-0.645-1.679-0.971-2.528c-0.294-0.857-0.59-1.72-0.888-2.589
			c-0.321-0.927-0.645-1.86-0.97-2.801c-0.359-0.926-0.723-1.858-1.088-2.797c-0.368-0.938-0.739-1.884-1.111-2.835
			c-0.408-0.936-0.818-1.878-1.23-2.827c-3.311-7.59-7.5-15.247-12.412-22.89c-4.93-7.631-10.625-15.235-17.156-22.584
			c-6.541-7.339-13.994-14.333-22.233-20.87c-8.229-6.553-17.431-12.431-27.442-17.443c-5.044-2.432-10.256-4.738-15.767-6.485
			c-2.713-0.978-5.55-1.675-8.36-2.478c-1.423-0.346-2.865-0.646-4.304-0.97l-2.164-0.47l-2.198-0.361
			c-5.847-1.068-11.893-1.492-17.988-1.485c-1.527,0.036-3.059,0.071-4.593,0.107c-1.598,0.141-3.199,0.282-4.804,0.423
			c-1.697,0.123-2.994,0.368-4.405,0.578l-2.097,0.322l-0.524,0.081l-0.263,0.041c0.073-0.024-1.585,0.333-1.004,0.212l-1.021,0.249
			c-10.882,2.669-21.938,5.125-33.104,7.399c-22.347,4.445-45.272,7.677-68.174,8.723c-11.44,0.586-22.878,0.666-34.154-0.045
			c-11.277-0.701-22.384-2.17-33.034-4.729c-1.335-0.32-2.663-0.657-4.008-1.013l-4.311-1.146l-0.702-0.168l-0.443-0.095l-0.517-0.1
			l-0.667-0.104c-0.399-0.045-0.724-0.075-1.191-0.092c-1.025-0.225-3.382,0.546-3.919,0.746c1.03-1.362-8.213,7.774-4.95,5.56
			c-0.279,0.949-0.311,1.26-0.379,1.609l-0.131,0.84c-0.066,0.497-0.115,0.93-0.16,1.354c-0.168,1.669-0.268,3.18-0.351,4.703
			c-0.271,6.037-0.263,11.869-0.142,17.686c0.261,11.611,1.055,23.005,2.243,34.168c1.225,11.156,2.732,22.094,4.835,32.69
			c2.058,10.602,4.481,20.893,7.23,30.805c2.766,9.906,5.794,19.455,9.218,28.512c2.038,5.392,4.188,10.599,6.41,15.654
			c-2.76-1.397-6.113-2.948-10.05-4.529c-6.559-2.434-14.756-4.899-24.442-6.167c-9.678-1.258-20.789-1.358-32.665,0.479
			c-11.857,1.8-24.535,5.541-36.679,12.107c-12.124,6.526-23.666,15.926-32.699,28.006c-9.035,12.052-15.293,26.816-17.695,42.461
			c-0.561,3.915-0.982,7.869-1.109,11.85l-0.081,2.987l-0.021,0.748l-0.051,0.666l-0.121,1.479
			c-0.182,1.948-0.403,3.896-0.688,5.845c-1.131,7.781-3.064,15.484-5.953,22.817c-2.876,7.329-6.675,14.313-11.492,20.497
			c-3.455,4.512-9.027,9.608-14.259,13.753l-2.189,0.738c0.79-0.889,1.563-1.81,2.306-2.782c1.844-2.36,3.438-5.026,4.795-7.892
			c1.359-2.863,2.473-5.939,3.27-9.175c1.609-6.467,1.906-13.566,0.705-20.688c-1.186-7.125-4.005-14.214-8.191-20.675
			c-4.191-6.461-9.842-12.257-16.561-16.801c-6.694-4.602-14.507-7.726-22.607-9.533c-4.061-0.889-8.203-1.416-12.366-1.656
			c-2.087-0.146-4.159-0.136-6.263-0.141c-1.087,0.041-2.176,0.082-3.266,0.123l-0.813,0.035l-0.711,0.055l-1.425,0.111
			c-4.226,0.354-8.477,0.968-12.684,2.027c-4.203,1.051-8.35,2.488-12.37,4.278c-8.019,3.631-15.482,8.707-21.834,14.928
			c-6.34,6.234-11.586,13.535-15.575,21.42c-3.938,7.918-6.512,16.434-7.863,25.076c-1.344,8.649-1.385,17.477-0.041,26.071
			c2.448,17.24,11.374,33.356,23.88,44.336c1.533,1.407,3.176,2.663,4.792,3.931c1.672,1.19,3.321,2.396,5.055,3.441
			c1.691,1.118,3.475,2.045,5.213,3.021c1.797,0.855,3.561,1.765,5.382,2.483c7.218,3.075,14.589,4.967,21.761,6.087
			c0.896,0.134,1.789,0.298,2.682,0.403c0.892,0.1,1.78,0.2,2.666,0.3c1.77,0.229,3.527,0.312,5.27,0.439
			c1.722,0.149,3.525,0.146,5.267,0.206l1.31,0.033c0.428,0.006,0.814-0.005,1.223-0.016c0.807-0.021,1.609-0.042,2.408-0.063
			c6.605-0.293,12.904-0.637,18.903-1.33c1.501-0.15,2.985-0.302,4.455-0.45c1.468-0.146,2.906-0.384,4.334-0.566
			c2.853-0.396,5.638-0.758,8.344-1.179c2.675-0.486,5.28-0.961,7.815-1.422c0.09,0.106,0.178,0.218,0.266,0.326
			c0.271,0.346,0.589,0.652,0.883,0.979c0.29,0.331,0.623,0.622,0.938,0.932c0.311,0.314,0.662,0.585,0.998,0.874
			c0.33,0.297,0.701,0.542,1.057,0.811c0.35,0.273,0.744,0.488,1.117,0.731c0.371,0.248,0.784,0.429,1.176,0.646
			c0.395,0.212,0.818,0.363,1.229,0.547c0.416,0.169,0.85,0.291,1.275,0.438c0.434,0.122,0.875,0.216,1.313,0.322l1.339,0.2
			l1.351,0.078c0.449-0.013,0.901-0.019,1.352-0.042l0.873-0.104c1.516,1.92,2.784,4.022,3.721,6.268
			c1.006,2.363,1.611,4.88,1.957,7.448c0.355,2.57,0.441,5.191,0.653,7.863c0.241,2.647,0.569,5.477,2.001,8.005
			c0.702,1.253,1.658,2.362,2.75,3.273c1.084,0.938,2.331,1.596,3.574,2.205c1.264,0.558,2.555,1.035,3.866,1.392l0.982,0.272
			c0.383,0.109,0.663,0.152,0.999,0.23l1.938,0.427c1.281,0.3,2.667,0.448,3.996,0.679c0.672,0.082,1.347,0.132,2.021,0.188
			c0.675,0.053,1.347,0.125,2.027,0.109c2.71,0.109,5.45-0.164,8.128-0.759c2.677-0.601,5.285-1.713,7.532-3.363
			c2.255-1.638,4.106-3.817,5.396-6.264c1.299-2.447,2.064-5.125,2.446-7.817c0.376-2.696,0.403-5.424,0.152-8.108
			c-0.27-2.686-0.769-5.332-1.441-7.932c-0.722-2.582-1.554-5.135-2.618-7.59c-1.054-2.457-2.217-4.866-3.543-7.181
			c-0.605-1.103-1.256-2.176-1.929-3.235c4.977,4.441,10.233,8.57,15.626,12.481c4.12,2.981,8.336,5.833,12.598,8.599l3.203,2.06
			c0.933,0.606,1.949,1.237,2.78,1.851l-0.021,0.035l-0.479,0.82c-0.33,0.534-0.559,1.209-0.838,1.811
			c-0.295,0.618-0.468,1.238-0.673,1.857c-0.206,0.619-0.409,1.239-0.54,1.877c-0.661,2.515-0.98,5.106-0.974,7.727
			c0.013,0.656-0.01,1.31,0.102,1.972c0.106,0.663,0.104,1.313,0.307,1.985c0.261,1.204,0.684,2.521,1.22,3.743
			c2.117,4.855,6.289,8.749,11.265,10.568c2.479,0.92,5.15,1.333,7.797,1.201c0.664-0.001,1.319-0.097,1.975-0.194
			c0.335-0.054,0.64-0.08,1-0.154l0.929-0.206c1.271-0.312,2.566-0.703,3.766-1.252c2.438-1.048,4.656-2.712,6.32-4.824
			c0.82-1.063,1.506-2.224,2.064-3.434c0.473-1.052,0.819-2.143,1.116-3.242c4.602-1.357,9.42-1.649,14.105-0.778
			c2.424,0.471,4.819,1.185,7.319,1.796c0.635,0.136,1.254,0.306,1.9,0.412l1.951,0.294l1.997,0.079
			c0.666,0.014,1.333-0.106,2.001-0.156c2.637-0.394,5.209-1.303,7.423-2.674c0.559-0.336,1.157-0.621,1.683-1l1.577-1.132
			c0.53-0.399,1.042-0.707,1.587-1.183c0.477-0.431,0.958-0.789,1.43-1.278c1.948-1.912,3.433-4.146,4.389-6.663
			c0.947-2.502,1.32-5.221,1.098-7.882c-0.489-5.347-3.251-10.274-7.132-13.801c-3.896-3.547-8.822-5.829-13.919-6.798
			c-2.548-0.49-5.143-0.765-7.727-0.71c-1.295-0.042-2.577,0.116-3.866,0.177c-1.275,0.173-2.564,0.271-3.826,0.522l-1.396,0.261
			c-0.003-0.116-0.004-0.234-0.005-0.354c-0.001-1.234,0.039-2.504,0.067-3.767c0.062-2.528,0.11-5.065,0.114-7.604
			c0-0.694-0.011-1.39-0.017-2.085c0.078,0.013,0.146,0.024,0.228,0.038c0.115,0.02,0.246,0.037,0.411,0.051
			c0.068,0.001,0.14-0.002,0.207-0.009c0.104-0.014,0.274-0.095,0.363-0.191c0.006-0.006,0.009-0.016,0.014-0.021
			c0.125-0.023,0.39-0.057,0.632-0.062c0.578-0.029,1.215-0.014,1.969-0.009c0.727-0.004,1.512-0.009,2.352-0.014
			c0.843-0.014,1.73,0.01,2.68-0.036c0.949-0.065,1.948-0.135,2.99-0.207c0.521-0.038,1.055-0.076,1.597-0.115
			c0.538-0.062,1.086-0.127,1.643-0.191c1.113-0.131,2.267-0.269,3.449-0.407c2.348-0.396,4.847-0.71,7.386-1.265
			c1.272-0.267,2.575-0.49,3.876-0.802c1.301-0.31,2.617-0.623,3.945-0.938c1.328-0.313,2.644-0.713,3.979-1.068l2-0.551
			l1.983-0.619c1.312-0.442,2.64-0.847,3.938-1.318c1.297-0.476,2.588-0.948,3.867-1.419c1.282-0.465,2.522-1.01,3.767-1.502
			c1.243-0.494,2.462-1.002,3.641-1.549c1.185-0.535,2.349-1.061,3.488-1.575c1.121-0.554,2.218-1.096,3.286-1.624
			c1.075-0.51,2.088-1.077,3.071-1.614c0.982-0.541,1.941-1.045,2.844-1.563c1.433-0.876,2.775-1.663,3.971-2.45l23.166,2.2
			c1.507,3.139,2.996,6.202,4.308,9.323c1.309,3.119,2.497,6.249,3.588,9.386c1.103,3.134,1.96,6.339,2.832,9.509
			c0.834,3.186,1.591,6.381,2.226,9.61c0.643,3.228,1.258,6.46,1.751,9.745c0.552,3.272,1.023,6.584,1.521,9.959
			c0.543,3.375,1.045,6.798,1.797,10.437c0.409,1.825,0.851,3.686,1.488,5.688c0.668,2.012,1.441,4.144,2.904,6.543
			c0.426,0.637,0.792,1.187,1.322,1.858c0.347,0.405,0.711,0.803,1.086,1.187l0.572,0.564c0.174,0.166,0.451,0.423,0.48,0.44
			l0.493,0.409l0.246,0.205l0.062,0.052l0.03,0.025c-0.116-0.084,1.098,0.799,0.615,0.444l0.256,0.162
			c0.686,0.412,1.38,0.872,2.096,1.188c2.879,1.394,5.815,1.927,8.41,2.046c2.615,0.127,4.968-0.164,7.145-0.591
			c2.179-0.43,4.191-1.009,6.109-1.658c3.831-1.295,7.277-2.938,10.544-4.666c1.628-0.858,3.222-1.751,4.717-2.602l1.006-0.568
			c1.807,0.17,3.586,0.646,5.985,1.533c2.877,1.042,6.521,2.623,10.545,3.608c4.029,0.988,8.24,1.381,12.213,1.249
			c4.017-0.106,7.767-0.771,11.439-1.543l1.571-0.33l0.602-0.396l1.562-1.029c0.521-0.36,1.039-0.755,1.553-1.134
			c0.514-0.396,1.023-0.84,1.527-1.26c0.504-0.449,1.002-0.937,1.49-1.411c0.975-1.026,1.896-2.136,2.698-3.434
			c0.824-1.252,1.475-2.72,1.964-4.207c0.453-1.517,0.717-3.083,0.729-4.604c-0.004-1.511-0.17-2.977-0.508-4.305
			c-0.305-1.354-0.771-2.569-1.262-3.739c-0.511-1.148-1.111-2.212-1.729-3.219c-0.629-0.999-1.285-1.944-1.966-2.852
			c-0.682-0.902-1.387-1.764-2.1-2.604c-0.724-0.824-1.449-1.639-2.195-2.417c-0.764-0.769-1.54-1.512-2.323-2.237
			c-0.781-0.729-1.574-1.438-2.37-2.137c-0.089-0.075-0.178-0.152-0.268-0.229c0.132-0.099,0.269-0.192,0.398-0.291
			c0.625-0.453,0.9-0.736,1.312-1.085l1.156-1.009l0.578-0.504l0.787-0.718l1.022-0.92c0.684-0.598,1.361-1.272,2.043-1.78
			c0.675-0.541,1.35-1.122,2.017-1.64l1.975-1.392c0.639-0.346,1.275-0.812,1.894-1.091l0.92-0.455l0.957-0.382
			c0.293-0.134,0.694-0.252,1.067-0.375l0.564-0.188l0.722-0.219l0.724-0.22l0.878-0.281c0.61-0.203,1.178-0.371,1.905-0.675
			c1.365-0.503,2.781-1.23,4.124-1.993c1.244-0.819,2.541-1.671,3.528-2.559c0.52-0.439,1.074-0.889,1.555-1.333l1.345-1.332
			c0.436-0.443,0.918-0.896,1.309-1.339l1.164-1.327c1.621-1.779,2.879-3.53,4.293-5.3l0.316-0.396l0.277-0.497
			c1.186-2.116,2.312-4.54,2.902-7.563c0.608-2.981,0.405-6.688-0.849-9.841c-1.225-3.175-3.175-5.585-5.062-7.38
			c-1.915-1.813-3.847-3.131-5.713-4.215c-3.752-2.21-7.354-3.579-10.92-4.788c-3.558-1.191-7.047-2.133-10.515-2.993
			c-6.93-1.703-13.756-3.027-20.545-4.296l-20.299-3.323l-20.086-3.395c-2.831-0.5-5.648-1.04-8.461-1.604l12.286-5.347
			c6.745-2.963,13.519-5.905,20.325-8.053c3.389-1.075,6.787-1.924,10.121-2.29l1.244-0.136l1.156-0.039
			c0.396-0.012,0.742-0.045,1.174-0.041l1.387,0.048l0.691,0.023l0.348,0.013c-0.045,0.001,0.221,0.004-0.078,0.002l0.09,0.006
			l0.176,0.01l1.416,0.086l2.836,0.169l5.646,0.209l5.629,0.085c3.745-0.023,7.491-0.067,11.229-0.201
			c7.479-0.25,14.956-0.64,22.432-1.301c7.481-0.632,14.954-1.515,22.439-2.782c3.746-0.663,7.493-1.323,11.259-2.213
			c0.941-0.216,1.882-0.406,2.824-0.646l2.838-0.765l2.847-0.774l3.028-1.013l1.517-0.517c0.483-0.174,1.061-0.346,1.448-0.524
			l2.558-1.068l2.635-1.12l2.623-1.176c3.471-1.564,6.857-3.226,10.217-4.943c13.421-6.869,26.43-14.453,39.062-22.702
			c3.143-2.084,6.289-4.168,9.372-6.351c1.548-1.079,3.071-2.195,4.591-3.32c1.514-1.131,3.058-2.219,4.549-3.384
			c6.041-4.55,11.906-9.354,17.674-14.288c5.721-4.995,11.313-10.158,16.688-15.578c5.341-5.454,10.581-11.043,15.345-17.082
			c2.471-2.937,4.717-6.078,7.046-9.14c1.134-1.558,2.207-3.168,3.312-4.75l1.645-2.383c0.546-0.796,1.04-1.632,1.563-2.447
			l3.089-4.919c0.979-1.674,1.921-3.376,2.881-5.063l1.431-2.537l1.319-2.607l2.616-5.226l6.354-12.689L800.557,319.038z
			 M369.527,541.075c-0.172,0.06-0.338,0.107-0.502,0.157c0-0.057-0.003-0.11-0.004-0.166c0.174-0.086,0.353-0.143,0.479-0.15
			c0.086-0.005,0.172,0.003,0.252,0.021C369.748,540.991,369.647,541.04,369.527,541.075z M370.385,542.751
			c-0.001,0.003-0.004,0.004-0.005,0.007c0.003-0.01,0.008-0.019,0.011-0.027C370.393,542.724,370.387,542.745,370.385,542.751z"/>
	</g>
</g>
<g id="Layer_4">
</g>
<g id="Layer_5">
</g>
<g id="Layer_6">
</g>
</svg>
