<?xml version="1.0" encoding="utf-8"?>
<!-- Generator: Adobe Illustrator 16.0.4, SVG Export Plug-In . SVG Version: 6.00 Build 0)  -->
<!DOCTYPE svg PUBLIC "-//W3C//DTD SVG 1.1//EN" "http://www.w3.org/Graphics/SVG/1.1/DTD/svg11.dtd">
<svg version="1.1" id="Layer_1" xmlns="http://www.w3.org/2000/svg" xmlns:xlink="http://www.w3.org/1999/xlink" x="0px" y="0px"
	 width="1024px" height="768px" viewBox="0 0 1024 768" enable-background="new 0 0 1024 768" xml:space="preserve">
<g id="Layer_1_1_">
</g>
<g id="Layer_2">
</g>
<g id="Layer_3">
	<g display="none">
		<g display="inline">
			<path d="M227.724,555.889c0.71,0.56,1.408,1.129,2.076,1.605c0.331,0.249,0.702,0.477,1.044,0.71
				c0.339,0.241,0.722,0.425,1.059,0.647c0.338,0.224,0.707,0.396,1.055,0.586c0.342,0.199,0.718,0.336,1.061,0.507
				c0.341,0.175,0.707,0.29,1.052,0.428c0.343,0.146,0.707,0.222,1.05,0.33c0.342,0.109,0.694,0.161,1.028,0.246
				c0.335,0.081,0.682,0.098,1.009,0.15c0.331,0.038,0.665,0.03,0.984,0.053l0.952-0.023l0.927-0.109l0.903-0.192
				c0.3-0.097,0.592-0.183,0.882-0.26l0.867-0.313l1.968-0.711l2.737,2.492c2.29,2.087,4.319,4.65,5.929,7.521
				c1.604,2.874,2.712,6.04,3.404,9.07c0.682,3.024,1.08,5.914,1.457,8.218c0.392,2.308,0.987,3.853,1.396,4.18
				c0.211,0.209,0.392,0.305,0.724,0.498c0.281,0.201,0.874,0.468,1.523,0.741c0.724,0.259,1.542,0.53,2.514,0.739
				c0.24,0.054,0.48,0.107,0.717,0.173l0.09,0.023l0.044,0.012l0.022,0.006c-0.486-0.109-0.117-0.026-0.218-0.05l0.243,0.049
				l0.485,0.1l1.945,0.396c0.306,0.057,0.689,0.151,0.931,0.178l0.742,0.094l1.48,0.203c0.51,0.056,1.049,0.066,1.568,0.132
				c0.524,0.051,1.058,0.126,1.551,0.114c2.061,0.148,3.911-0.104,5.595-0.345c1.697-0.262,3.047-0.832,4.214-1.496
				c1.185-0.666,2.132-1.593,3.048-2.836c0.909-1.247,1.599-2.896,2.156-4.778l0.209-0.709l0.148-0.75
				c0.094-0.504,0.227-1,0.269-1.535c0.063-0.529,0.174-1.055,0.223-1.601l0.131-1.657c0.071-2.239,0.063-4.596-0.172-6.99
				c-0.229-2.401-0.58-4.853-1.067-7.33c-0.502-2.472-1.078-4.985-1.771-7.52c-0.687-2.537-1.524-5.062-2.325-7.698l0.824-0.568
				c1.505,2.195,2.983,4.417,4.268,6.756c1.327,2.314,2.489,4.724,3.543,7.181c1.063,2.455,1.896,5.009,2.618,7.591
				c0.672,2.599,1.172,5.245,1.441,7.931c0.251,2.686,0.224,5.412-0.152,8.109c-0.382,2.691-1.146,5.369-2.446,7.816
				c-1.289,2.445-3.141,4.626-5.396,6.265c-2.247,1.649-4.855,2.763-7.532,3.362c-2.678,0.595-5.418,0.868-8.128,0.759
				c-0.681,0.016-1.353-0.058-2.027-0.109c-0.674-0.058-1.348-0.106-2.021-0.188c-1.329-0.229-2.715-0.379-3.995-0.679l-1.938-0.426
				c-0.336-0.079-0.616-0.122-0.999-0.231l-0.982-0.271c-1.311-0.356-2.602-0.834-3.866-1.393c-1.243-0.608-2.49-1.268-3.574-2.205
				c-1.091-0.911-2.048-2.021-2.75-3.272c-1.432-2.529-1.76-5.357-2.001-8.005c-0.213-2.673-0.298-5.294-0.653-7.864
				c-0.346-2.568-0.951-5.085-1.957-7.448c-0.988-2.368-2.336-4.585-3.964-6.589l0.709,0.268l-1.34,0.157
				c-0.449,0.024-0.9,0.029-1.351,0.042l-1.351-0.078l-1.338-0.2c-0.438-0.106-0.88-0.199-1.313-0.321
				c-0.425-0.146-0.859-0.27-1.275-0.438c-0.409-0.184-0.835-0.335-1.229-0.547c-0.391-0.217-0.804-0.396-1.175-0.645
				c-0.373-0.244-0.768-0.458-1.117-0.732c-0.354-0.268-0.728-0.513-1.057-0.81c-0.336-0.289-0.688-0.561-0.998-0.874
				c-0.314-0.311-0.647-0.602-0.938-0.933c-0.293-0.327-0.61-0.635-0.882-0.979c-0.276-0.342-0.569-0.666-0.831-1.022
				c-0.546-0.705-1.032-1.417-1.504-2.13L227.724,555.889z"/>
		</g>
		<g display="inline">
			<path d="M366.256,541.773c0,0,0.37-0.138,1.053-0.334c0.335-0.098,0.771-0.211,1.221-0.364c0.119-0.035,0.22-0.084,0.226-0.138
				c-0.08-0.02-0.166-0.026-0.252-0.021c-0.263,0.018-0.736,0.231-0.958,0.503c-0.117,0.121-0.22,0.263-0.297,0.42
				c-0.039,0.078-0.07,0.159-0.095,0.239l0.032-0.119c0.12-0.39,0.369-0.72,0.698-0.973c0.197-0.146,0.281-0.19,0.442-0.275
				c0.421-0.206,0.619-0.274,0.808-0.361c0.179-0.074,0.363-0.152,0.552-0.232c0.369-0.152,0.687-0.288,1.062-0.423
				c0.177-0.063,0.355-0.13,0.541-0.195l0.281-0.101l0.07-0.025l0.036-0.013l0.019-0.008c-0.152,0-0.033-0.004-0.063-0.005
				l0.134-0.055c0.72-0.303,1.497-0.564,2.329-0.879c0.818-0.321,1.746-0.564,2.622-0.923c0.863-0.356,1.763-0.675,2.686-1.033
				c0.461-0.187,0.932-0.329,1.406-0.497c0.491-0.188,0.993-0.381,1.504-0.576c1.017-0.387,2.068-0.725,3.141-1.104
				c1.071-0.418,2.178-0.777,3.297-1.182c0.56-0.208,1.127-0.384,1.701-0.568c0.571-0.202,1.146-0.406,1.729-0.612
				c1.155-0.441,2.351-0.756,3.541-1.179c0.596-0.21,1.193-0.422,1.796-0.634c0.606-0.188,1.217-0.376,1.827-0.564
				c1.229-0.362,2.432-0.863,3.68-1.206l1.861-0.566l1.851-0.626c2.505-0.716,4.961-1.567,7.438-2.266
				c2.437-0.793,4.901-1.439,7.252-2.15c1.186-0.336,2.344-0.692,3.508-0.979c1.146-0.319,2.25-0.679,3.371-0.946
				c1.132-0.256,2.173-0.605,3.229-0.875c1.061-0.271,2.085-0.532,3.067-0.783c0.982-0.255,1.915-0.529,2.839-0.743
				c0.928-0.207,1.798-0.436,2.612-0.647c1.628-0.438,3.146-0.74,4.36-1.05c1.205-0.324,2.239-0.502,2.918-0.666
				c0.691-0.146,1.086-0.204,1.086-0.204l0.623,0.783c0,0-1.094,0.854-3.008,2.349c-0.954,0.755-2.194,1.551-3.576,2.529
				c-1.38,0.981-3.034,1.933-4.812,3.019c-0.9,0.521-1.859,1.022-2.843,1.564c-0.983,0.537-1.996,1.104-3.072,1.614
				c-1.067,0.527-2.164,1.069-3.285,1.624c-1.141,0.515-2.305,1.04-3.488,1.574c-1.179,0.548-2.398,1.056-3.641,1.55
				c-1.242,0.491-2.483,1.036-3.767,1.502c-1.28,0.47-2.571,0.942-3.867,1.419c-1.298,0.472-2.624,0.876-3.938,1.317l-1.984,0.619
				l-2,0.551c-1.334,0.355-2.648,0.757-3.979,1.068c-1.327,0.316-2.645,0.63-3.944,0.939c-1.301,0.311-2.604,0.534-3.876,0.801
				c-2.539,0.555-5.038,0.868-7.386,1.265c-1.185,0.141-2.336,0.276-3.449,0.407c-0.557,0.065-1.104,0.13-1.642,0.192
				c-0.543,0.039-1.075,0.077-1.598,0.114c-1.042,0.072-2.041,0.143-2.991,0.207c-0.947,0.046-1.837,0.022-2.679,0.036
				c-0.84,0.005-1.625,0.01-2.352,0.015c-0.754-0.006-1.392-0.021-1.97,0.009c-0.272,0.007-0.585,0.047-0.681,0.069
				c0.011-0.005-0.004-0.001,0.022-0.021c0.072-0.045,0.117-0.12,0.147-0.198c0.003-0.006,0.009-0.027,0.006-0.021
				c-0.009,0.029-0.021,0.061-0.034,0.091c-0.028,0.06-0.063,0.116-0.105,0.163c-0.089,0.097-0.259,0.178-0.363,0.19
				c-0.067,0.008-0.139,0.011-0.207,0.01c-0.165-0.015-0.296-0.031-0.412-0.052c-0.468-0.078-0.863-0.146-1.187-0.198
				c-0.637-0.112-0.976-0.173-0.976-0.173L366.256,541.773z"/>
		</g>
		<g display="inline">
			<path d="M428.908,347.4c0,0-1.791-0.883-5.15-2.539c-3.382-1.64-8.37-3.584-14.881-5.732c-6.564-1.927-14.666-3.704-24.019-4.411
				c-1.171-0.061-2.358-0.124-3.565-0.187c-0.602-0.032-1.207-0.064-1.818-0.097c-0.609-0.018-1.229,0.019-1.851,0.025
				c-1.24,0.026-2.498,0.053-3.772,0.079c-0.636,0.013-1.274,0.026-1.92,0.039c-0.635,0.046-1.273,0.093-1.918,0.141
				c-1.35,0.105-2.718,0.211-4.102,0.318c-1.309,0.147-2.63,0.295-3.969,0.446c-1.335,0.148-2.723,0.408-4.102,0.608
				c-1.388,0.188-2.772,0.48-4.173,0.764c-5.597,1.127-11.322,2.706-17.029,4.844c-5.706,2.126-11.44,4.703-16.962,7.959
				c-11.056,6.468-21.247,15.512-29.243,26.592c-3.997,5.544-7.272,11.702-9.838,18.203c-0.311,0.815-0.657,1.621-0.943,2.449
				l-0.827,2.501c-0.601,1.65-0.989,3.379-1.478,5.073c-0.492,1.696-0.819,3.444-1.247,5.167c-0.322,1.749-0.644,3.505-0.923,5.27
				c-0.472,3.547-0.827,7.13-0.908,10.75l-0.052,2.717l-0.014,0.68l-0.035,0.874l-0.014,0.186l-0.026,0.37l-0.108,1.479
				l-0.313,3.266c-0.132,1.061-0.236,2.125-0.393,3.184c-1.171,8.476-3.195,16.934-6.363,25.087
				c-3.249,8.107-7.564,15.915-13.059,22.861c-5.438,6.985-12.064,13.015-19.271,17.912l-2.753,1.75l-1.377,0.864l-1.415,0.791
				l-2.827,1.572c-0.953,0.493-1.925,0.944-2.893,1.4c-3.864,1.845-7.837,3.301-11.803,4.608c-7.955,2.548-15.986,4.07-23.85,4.901
				l-0.736,0.09l-0.185,0.022l-0.456,0.045l-0.349,0.021l-1.394,0.091c-0.927,0.062-1.853,0.121-2.776,0.182l-0.697,0.212
				l-0.82,0.173h-1.636c-1.088,0-2.173-0.186-3.256-0.193c-4.188-0.307-8.378-0.854-12.535-2.229
				c-4.123-1.277-8.234-3.174-11.789-5.997c-3.567-2.757-6.553-6.339-8.561-10.264c-2.021-3.925-3.117-8.143-3.429-12.212
				c-0.299-4.075,0.093-8.039,1.048-11.74c1.865-7.405,5.777-13.908,11.168-18.699c5.338-4.798,12.74-7.461,19.41-6.708l0.621,0.047
				l0.31,0.023l0.154,0.013c-0.076-0.011,0.279,0.028,0.286,0.034l0.996,0.18c0.671,0.126,1.272,0.214,2.098,0.422
				c1.576,0.339,2.99,0.785,4.376,1.271c2.776,1.007,5.383,2.4,7.646,4.156c4.556,3.486,7.512,8.592,8.093,13.535
				c0.669,4.955-0.718,9.47-2.792,12.764c-2.086,3.344-4.843,5.521-7.354,6.944c-0.627,0.364-1.267,0.646-1.856,0.946
				c-0.606,0.27-1.202,0.489-1.761,0.716c-0.563,0.216-1.121,0.361-1.637,0.53c-0.13,0.04-0.258,0.079-0.384,0.118l-0.252,0.077
				l-0.184,0.034c-0.247,0.047-0.457,0.101-0.768,0.124c-1.147,0.13-1.987,0.01-2.764-0.146c-0.38-0.074-0.724-0.16-1.029-0.272
				c-0.31-0.093-0.583-0.191-0.818-0.309c-0.481-0.197-0.818-0.405-1.043-0.547c-0.225-0.136-0.338-0.205-0.338-0.205l0.508-0.861
				c0,0,0.104,0.053,0.308,0.154c0.201,0.106,0.503,0.264,0.936,0.401c0.209,0.087,0.454,0.153,0.729,0.214
				c0.271,0.078,0.575,0.129,0.909,0.168c0.652,0.091,1.478,0.112,2.283-0.033c0.194-0.015,0.436-0.096,0.672-0.159l0.179-0.051
				l0.142-0.058l0.351-0.141c0.471-0.197,0.979-0.372,1.486-0.613c0.501-0.253,1.036-0.497,1.573-0.786
				c0.52-0.321,1.085-0.62,1.628-0.995c2.172-1.479,4.473-3.582,6.094-6.563c1.612-2.945,2.514-6.793,1.73-10.795
				c-0.737-3.987-3.245-7.963-7.134-10.655c-3.883-2.724-8.897-4.204-14.233-4.483c-2.639-0.197-5.359,0.319-7.932,1.312
				c-2.572,1.005-5.035,2.536-7.12,4.573c-4.204,4.021-7.302,9.592-8.589,15.766c-0.656,3.079-0.891,6.31-0.565,9.538
				c0.335,3.226,1.286,6.433,2.882,9.337c1.591,2.908,3.859,5.477,6.603,7.491c2.719,2.067,5.973,3.436,9.346,4.379
				c3.371,1.03,6.967,1.312,10.563,1.535c1.805-0.042,3.598,0.008,5.434-0.11c0.922-0.078,1.846-0.157,2.772-0.237l1.39-0.119
				l0.349-0.03c0.06-0.001,0.214-0.028,0.316-0.041l0.688-0.1c7.36-0.923,14.774-2.488,21.983-4.954
				c7.207-2.458,14.198-5.827,20.624-10.163c6.368-4.407,12.17-9.759,16.938-15.982c4.817-6.184,8.616-13.168,11.492-20.497
				c2.889-7.333,4.822-15.036,5.953-22.817c0.284-1.949,0.506-3.896,0.688-5.845l0.121-1.479l0.051-0.666l0.021-0.748l0.082-2.987
				c0.126-3.979,0.548-7.935,1.108-11.85c2.402-15.646,8.659-30.409,17.695-42.461c9.034-12.081,20.576-21.48,32.699-28.006
				c12.145-6.566,24.821-10.307,36.68-12.107c11.875-1.837,22.986-1.737,32.665-0.479c9.688,1.268,17.885,3.733,24.443,6.167
				c6.49,2.609,11.433,5.142,14.656,7.021c3.201,1.92,4.909,2.945,4.909,2.945L428.908,347.4z"/>
		</g>
		<g display="inline">
			<path d="M281.627,544.983c0,0-1.869,0.656-5.375,1.89c-1.757,0.607-3.907,1.395-6.465,2.252c-2.578,0.818-5.563,1.712-8.92,2.694
				c-6.721,1.902-14.906,4.086-24.451,6.014c-2.375,0.543-4.849,0.979-7.395,1.442c-2.55,0.464-5.172,0.94-7.864,1.431
				c-2.706,0.421-5.492,0.781-8.344,1.179c-1.428,0.185-2.865,0.42-4.334,0.566c-1.469,0.148-2.954,0.3-4.455,0.451
				c-5.999,0.692-12.298,1.037-18.903,1.33c-0.8,0.021-1.603,0.042-2.408,0.062c-0.408,0.011-0.795,0.021-1.223,0.016l-1.31-0.032
				c-1.741-0.062-3.545-0.058-5.267-0.207c-1.742-0.127-3.5-0.21-5.27-0.439c-0.886-0.1-1.774-0.2-2.666-0.3
				c-0.893-0.105-1.784-0.271-2.683-0.403c-7.171-1.12-14.542-3.012-21.76-6.087c-1.821-0.72-3.584-1.628-5.382-2.482
				c-1.739-0.979-3.521-1.904-5.213-3.022c-1.733-1.047-3.383-2.251-5.055-3.44c-1.616-1.269-3.259-2.523-4.792-3.932
				c-12.506-10.979-21.432-27.096-23.88-44.336c-1.344-8.596-1.303-17.422,0.041-26.071c1.351-8.644,3.925-17.157,7.863-25.075
				c3.989-7.886,9.235-15.187,15.575-21.42c6.352-6.222,13.816-11.298,21.834-14.929c4.021-1.79,8.167-3.229,12.37-4.277
				c4.207-1.062,8.458-1.676,12.684-2.028l1.425-0.111l0.711-0.055l0.813-0.035c1.09-0.041,2.179-0.082,3.266-0.123
				c2.104,0.005,4.176-0.005,6.263,0.141c4.162,0.24,8.306,0.769,12.365,1.656c8.102,1.81,15.914,4.934,22.608,9.533
				c6.719,4.544,12.369,10.34,16.562,16.801c4.186,6.461,7.004,13.55,8.19,20.675c1.201,7.12,0.905,14.221-0.704,20.688
				c-0.798,3.235-1.911,6.312-3.271,9.175c-1.357,2.864-2.951,5.53-4.794,7.893c-3.633,4.765-7.9,8.515-12.238,11.34
				c-4.34,2.837-8.698,4.889-12.854,6.252c-4.146,1.401-8.043,2.225-11.557,2.791c-7.034,1.151-12.593,1.021-16.331,0.914
				c-1.872-0.023-3.304-0.181-4.266-0.226c-0.962-0.062-1.458-0.097-1.458-0.097l0.004-1c0,0,0.492-0.008,1.444-0.023
				c0.952-0.033,2.368,0.006,4.207-0.123c3.676-0.169,9.096-0.573,15.796-2.103c6.65-1.527,14.756-4.212,22.454-9.876
				c3.839-2.801,7.498-6.396,10.503-10.793c3.029-4.378,5.289-9.615,6.468-15.331c1.181-5.716,1.185-11.926-0.114-18.089
				c-1.289-6.162-3.879-12.275-7.696-17.775c-3.808-5.504-8.849-10.376-14.785-14.141c-5.932-3.778-12.735-6.429-19.905-7.876
				c-3.589-0.715-7.27-1.112-10.984-1.256c-1.858-0.099-3.728-0.048-5.6-0.021c-1.862,0.104-3.725,0.185-5.631,0.406
				c-7.504,0.713-14.969,2.676-21.96,5.837c-6.962,3.223-13.415,7.676-18.923,13.149c-5.493,5.486-10.057,11.93-13.524,18.912
				c-3.51,6.967-5.868,14.503-7.122,22.172c-1.255,7.672-1.349,15.512-0.217,23.11c1.123,7.595,3.397,14.979,6.89,21.647
				c3.46,6.68,8.03,12.684,13.433,17.617c1.322,1.266,2.754,2.395,4.155,3.546c1.461,1.075,2.896,2.174,4.421,3.131
				c1.479,1.025,3.059,1.875,4.591,2.782c1.587,0.81,3.136,1.678,4.76,2.372c6.408,2.97,13.098,4.921,19.717,6.168
				c13.271,2.55,26.194,1.982,37.976,1.396c1.476-0.083,2.937-0.164,4.382-0.245c1.445-0.078,2.868-0.248,4.278-0.365
				c2.819-0.259,5.573-0.512,8.258-0.758c2.677-0.331,5.284-0.653,7.818-0.968c2.535-0.312,5-0.603,7.371-1.004
				c9.513-1.405,17.758-2.965,24.508-4.388c3.367-0.748,6.373-1.416,8.989-1.998c2.605-0.64,4.811-1.242,6.604-1.701
				c3.584-0.936,5.496-1.434,5.496-1.434L281.627,544.983z"/>
		</g>
		<g display="inline">
			<path d="M499.837,441.729c0,0-0.604-0.421-1.772-1.234c-1.165-0.81-2.907-2.049-5.123-3.705c-2.227-1.652-4.934-3.744-8.04-6.307
				c-3.118-2.552-6.603-5.612-10.356-9.208c-7.508-7.18-16.199-16.456-24.829-28.185c-4.334-5.845-8.694-12.262-12.952-19.245
				c-4.257-6.984-8.324-14.573-12.233-22.654c-3.898-8.086-7.611-16.683-11.034-25.74c-3.424-9.058-6.452-18.606-9.218-28.512
				c-2.749-9.912-5.175-20.203-7.23-30.805c-2.103-10.596-3.608-21.534-4.834-32.69c-1.188-11.164-1.982-22.557-2.244-34.168
				c-0.121-5.817-0.13-11.649,0.142-17.686c0.083-1.523,0.183-3.034,0.351-4.703c0.045-0.424,0.093-0.857,0.161-1.354l0.13-0.84
				c0.068-0.35,0.101-0.661,0.379-1.609c-3.278,2.226,6.08-7.021,4.938-5.542c-0.734,0.239,2.647-1.046,3.933-0.764
				c0.469,0.017,0.792,0.046,1.192,0.092l0.666,0.104l0.518,0.1l0.442,0.095l0.703,0.168l4.31,1.146
				c1.345,0.356,2.673,0.693,4.008,1.013c10.65,2.559,21.757,4.027,33.034,4.729c11.277,0.711,22.714,0.631,34.153,0.045
				c22.901-1.046,45.829-4.278,68.175-8.723c11.167-2.274,22.224-4.73,33.105-7.399l1.021-0.249
				c-0.581,0.121,1.077-0.237,1.004-0.212l0.263-0.041l0.524-0.081l2.097-0.322c1.411-0.21,2.708-0.455,4.405-0.578
				c1.604-0.142,3.206-0.283,4.805-0.423c1.533-0.036,3.063-0.071,4.593-0.107c6.096-0.006,12.143,0.417,17.987,1.485l2.197,0.361
				l2.165,0.47c1.438,0.324,2.88,0.625,4.304,0.97c2.812,0.803,5.646,1.5,8.361,2.478c5.51,1.747,10.723,4.053,15.766,6.485
				c10.014,5.012,19.215,10.89,27.443,17.443c8.239,6.536,15.692,13.53,22.232,20.87c6.53,7.349,12.228,14.953,17.156,22.584
				c4.912,7.643,9.103,15.3,12.412,22.89c0.413,0.948,0.822,1.891,1.23,2.827c0.372,0.952,0.743,1.897,1.111,2.835
				c0.365,0.939,0.729,1.871,1.088,2.797c0.325,0.94,0.648,1.874,0.97,2.801c0.298,0.869,0.594,1.732,0.888,2.589
				c0.326,0.849,0.65,1.692,0.971,2.528c0.665,1.687,1.343,3.348,2.029,4.975c5.537,13.003,11.138,24.061,16.577,32.603
				c2.72,4.271,5.364,7.937,7.852,10.966c2.494,3.023,4.872,5.366,6.949,7.073c1.012,0.898,2.015,1.524,2.841,2.142
				c0.873,0.525,1.609,0.983,2.219,1.315c1.258,0.594,1.905,0.9,1.905,0.9l-0.326,0.945c0,0-0.695-0.282-2.045-0.827
				c-0.655-0.309-1.446-0.74-2.393-1.239c-0.889-0.587-1.979-1.188-3.073-2.053c-4.537-3.262-10.255-9.193-16.16-17.659
				c-5.942-8.443-12.176-19.347-18.27-32.34c-1.497-3.258-3.08-6.616-4.401-10.209c-0.343-0.883-0.688-1.772-1.034-2.667
				c-0.382-0.881-0.767-1.769-1.152-2.663c-0.391-0.893-0.781-1.791-1.177-2.696c-0.428-0.89-0.857-1.785-1.291-2.687
				c-3.477-7.205-7.7-14.508-12.678-21.742c-4.979-7.229-10.695-14.405-17.189-21.292c-6.509-6.873-13.772-13.474-21.793-19.538
				c-7.996-6.095-16.868-11.482-26.392-16.001c-4.795-2.18-9.721-4.238-14.862-5.807c-2.541-0.883-5.177-1.483-7.789-2.199
				c-1.321-0.302-2.654-0.559-3.985-0.842l-2.002-0.409l-2.024-0.303c-5.389-0.917-10.909-1.219-16.445-1.146
				c-1.386,0.049-2.771,0.098-4.161,0.147c-1.376,0.138-2.754,0.275-4.135,0.414c-1.378,0.095-2.772,0.373-4.165,0.601l-2.093,0.352
				l-0.522,0.088l-0.262,0.044c-0.104,0.016-0.029,0.003-0.184,0.041l-1.03,0.267c-10.98,2.876-22.169,5.518-33.517,7.856
				c-22.694,4.646-46.058,8.084-69.603,9.294c-11.771,0.563-23.577,0.562-35.302-0.238c-11.718-0.797-23.367-2.395-34.665-5.177
				c-2.818-0.683-5.633-1.492-8.375-2.223c-0.338-0.085-0.68-0.168-0.989-0.225c-0.16-0.032-0.298-0.045-0.397-0.054
				c0.035,0.044,0.278-0.114,0.113-0.039c-0.233,0.164,0.718-0.66,0.343-0.347c-0.059,0.207-0.123,0.587-0.168,0.916l-0.128,1.041
				c-0.149,1.404-0.252,2.827-0.339,4.248c-0.332,5.691-0.406,11.385-0.366,17.038c0.098,11.31,0.719,22.482,1.731,33.43
				c2.036,21.898,5.688,42.908,10.645,62.446c4.955,19.541,11.25,37.6,18.419,53.66c7.157,16.07,15.187,30.125,23.261,41.907
				c8.061,11.805,16.145,21.334,23.221,28.752c7.094,7.411,13.147,12.754,17.364,16.273c2.107,1.767,3.744,3.074,4.87,3.952
				c1.12,0.878,1.698,1.33,1.698,1.33L499.837,441.729z"/>
		</g>
		<g display="inline">
			<path d="M566.779,401.871c4.443-2.579,8.92-5.098,13.413-7.592c4.483-2.514,9.042-4.875,13.591-7.266
				c4.557-2.373,9.111-4.758,13.719-7.032c4.604-2.279,9.223-4.538,13.862-6.752c4.632-2.231,9.289-4.415,13.956-6.583
				c4.687-2.119,9.393-4.201,14.111-6.257c4.729-2.037,9.452-4.09,14.219-6.052c4.756-1.983,9.522-3.955,14.337-5.809
				c4.825-1.826,9.64-3.688,14.507-5.426c4.846-1.792,9.742-3.465,14.631-5.164c4.921-1.621,9.825-3.291,14.798-4.794
				c4.951-1.555,9.985-2.887,14.999-4.283l7.584-1.93c2.521-0.662,5.094-1.188,7.641-1.789l3.831-0.864l3.866-0.771
				c2.58-0.509,5.147-1.056,7.767-1.455c2.613-0.409,5.196-0.918,7.841-1.242c2.643-0.328,5.271-0.704,7.93-0.987l8.034-0.592
				l8.144-0.194l14.198-0.339l-6.408,12.796l-2.616,5.226l-1.317,2.607l-1.433,2.537c-0.96,1.688-1.899,3.389-2.881,5.062
				l-3.089,4.919c-0.521,0.814-1.017,1.65-1.562,2.447l-1.646,2.383c-1.104,1.582-2.178,3.192-3.312,4.75
				c-2.329,3.063-4.576,6.203-7.046,9.14c-4.764,6.039-10.004,11.628-15.346,17.082c-5.375,5.42-10.969,10.584-16.688,15.578
				c-5.769,4.934-11.632,9.738-17.674,14.288c-1.491,1.165-3.034,2.253-4.549,3.385c-1.52,1.125-3.044,2.24-4.592,3.319
				c-3.083,2.184-6.229,4.268-9.372,6.352c-12.632,8.249-25.64,15.833-39.061,22.702c-3.359,1.719-6.745,3.379-10.217,4.942
				l-2.623,1.176l-2.635,1.12l-2.558,1.068c-0.389,0.18-0.965,0.352-1.449,0.524l-1.515,0.517l-3.03,1.013l-2.846,0.775
				l-2.837,0.764c-0.944,0.238-1.884,0.43-2.825,0.646c-3.766,0.889-7.513,1.549-11.259,2.213
				c-7.486,1.268-14.958,2.149-22.439,2.781c-7.477,0.661-14.95,1.052-22.432,1.302c-3.738,0.133-7.484,0.177-11.229,0.201
				l-5.629-0.085l-5.645-0.21l-2.835-0.169l-1.417-0.086l-0.177-0.01l-0.089-0.006c0.299,0.002,0.032-0.001,0.077-0.002
				l-0.347-0.012l-0.692-0.024l-1.386-0.048c-0.432-0.003-0.778,0.03-1.174,0.041l-1.157,0.039l-1.244,0.136
				c-3.334,0.366-6.731,1.215-10.121,2.29c-6.806,2.147-13.579,5.09-20.324,8.053l-20.355,8.859l-0.457-0.891l19.669-10.207
				c6.582-3.355,13.188-6.718,20.139-9.367c3.48-1.299,7.062-2.402,10.763-3.01c3.73-0.671,7.487-0.48,11.146-0.45
				c7.365,0.008,14.737-0.343,22.094-0.849c7.354-0.523,14.703-1.187,22.019-2.112c7.313-0.926,14.613-1.987,21.84-3.409
				c7.205-1.442,14.422-3.137,21.271-5.608c0.852-0.321,1.714-0.586,2.558-0.954l2.524-1.139c1.691-0.752,3.339-1.53,4.995-2.345
				c3.31-1.615,6.584-3.307,9.841-5.031c13.004-6.942,25.63-14.599,37.83-22.87c6.096-4.143,12.059-8.478,17.913-12.949
				c5.855-4.473,11.522-9.184,17.087-14.007c5.514-4.882,10.892-9.914,16.038-15.176c5.104-5.298,10.103-10.707,14.724-16.427
				c2.39-2.798,4.545-5.778,6.793-8.687c1.092-1.478,2.119-3.002,3.182-4.501l1.582-2.257c0.525-0.754,0.996-1.543,1.497-2.313
				l2.964-4.646l2.755-4.771l1.371-2.389l1.258-2.45l2.502-4.907l0.812,1.302l-7.629,0.132l-7.622,0.509
				c-2.537,0.228-5.067,0.547-7.603,0.816c-2.536,0.265-5.052,0.718-7.577,1.068c-2.528,0.339-5.034,0.83-7.547,1.28l-3.769,0.683
				l-3.75,0.778c-2.495,0.543-5.007,1.01-7.488,1.617l-7.459,1.761c-4.946,1.279-9.905,2.52-14.817,3.938
				c-4.933,1.342-9.816,2.855-14.716,4.318c-4.875,1.543-9.76,3.06-14.604,4.7c-4.863,1.584-9.684,3.296-14.516,4.971
				c-4.814,1.729-9.632,3.448-14.42,5.251c-4.801,1.765-9.567,3.624-14.34,5.466c-4.767,1.862-9.521,3.751-14.26,5.679
				c-4.737,1.932-9.472,3.875-14.183,5.871c-4.719,1.978-9.418,4.001-14.108,6.046c-4.69,2.043-9.37,4.112-14.033,6.22
				c-9.327,4.209-18.619,8.507-27.808,13L566.779,401.871z"/>
		</g>
		<g display="inline">
			<circle fill="#FFFFFF" cx="598.477" cy="283.673" r="71"/>
			<path d="M528,283.66c0,0,0.002,0.436,0.028,1.279c0.043,0.839,0.014,2.108,0.178,3.71c0.243,3.208,0.745,7.99,2.473,13.788
				c1.706,5.779,4.52,12.664,9.37,19.501c2.381,3.436,5.285,6.824,8.66,10.036c3.36,3.227,7.271,6.205,11.627,8.787
				c4.358,2.576,9.158,4.764,14.294,6.397c5.151,1.592,10.653,2.514,16.283,2.803c1.406,0.088,2.831,0.053,4.251,0.075
				c0.711-0.03,1.425-0.059,2.142-0.089l1.072-0.042l1.021-0.094c0.768-0.067,1.536-0.134,2.308-0.202
				c0.753-0.076,1.396-0.2,2.099-0.295c1.355-0.166,2.806-0.487,4.229-0.757c5.69-1.229,11.275-3.257,16.553-5.972
				c5.288-2.699,10.225-6.203,14.611-10.321c2.204-2.049,4.268-4.257,6.199-6.579l1.406-1.777c0.465-0.596,0.887-1.227,1.332-1.836
				c0.458-0.602,0.887-1.226,1.295-1.863c0.409-0.637,0.857-1.247,1.237-1.904c6.342-10.327,9.872-22.407,9.813-34.631l-0.049-2.386
				c-0.014-0.413-0.005-0.922-0.037-1.256l-0.079-1.058c-0.066-0.72-0.066-1.379-0.175-2.15l-0.271-2.267
				c-0.092-0.755-0.251-1.5-0.37-2.25l-0.19-1.125l-0.248-1.112c-0.163-0.741-0.295-1.492-0.48-2.228L658,265.638
				c-1.672-5.839-4.138-11.445-7.305-16.615c-1.63-2.551-3.34-5.059-5.268-7.391c-1.931-2.326-4.007-4.522-6.197-6.591
				c-4.393-4.12-9.334-7.624-14.625-10.323c-5.275-2.731-10.871-4.746-16.565-5.977c-1.43-0.27-2.853-0.59-4.288-0.76
				c-0.717-0.096-1.432-0.22-2.148-0.294c-0.72-0.065-1.437-0.131-2.15-0.196l-0.538-0.05l-0.269-0.025l-0.135-0.012
				c-0.068-0.005,0.133-0.008-0.021-0.009l-1.148-0.042c-0.765-0.028-1.526-0.055-2.287-0.083c-1.401,0.026-2.729-0.015-4.146,0.073
				c-5.633,0.294-11.141,1.212-16.289,2.817c-5.137,1.636-9.938,3.826-14.297,6.405c-4.359,2.581-8.266,5.569-11.625,8.796
				c-3.378,3.211-6.276,6.604-8.658,10.041c-4.85,6.839-7.659,13.727-9.367,19.505c-1.724,5.803-2.229,10.572-2.473,13.796
				c-0.165,1.615-0.129,2.861-0.172,3.698c-0.026,0.838-0.028,1.271-0.028,1.271L528,283.66L528,283.66z M527,283.673
				c0,0-0.002-0.438,0.018-1.288c0.037-0.849-0.003-2.113,0.15-3.752c0.206-3.277,0.725-8.11,2.362-14.041
				c1.624-5.912,4.354-12.967,9.062-20.139c4.677-7.157,11.305-14.459,20.074-20.361c4.384-2.934,9.277-5.51,14.596-7.539
				c5.314-2.04,11.082-3.421,17.089-4.141c1.499-0.195,3.039-0.267,4.569-0.391c1.53-0.018,3.014-0.136,4.61-0.073
				c0.775,0.018,1.555,0.036,2.335,0.054c0.78,0.027,1.562,0.106,2.346,0.158c1.57,0.081,3.135,0.317,4.713,0.507
				c3.141,0.486,6.306,1.093,9.417,2.019c1.573,0.405,3.104,0.975,4.66,1.485c0.764,0.296,1.528,0.593,2.296,0.89
				c0.771,0.288,1.53,0.609,2.279,0.959c12.104,5.302,23.096,14.308,30.806,25.89c1.943,2.882,3.633,5.944,5.16,9.092
				c1.519,3.156,2.745,6.455,3.801,9.809c1.043,3.363,1.771,6.821,2.329,10.305c0.522,3.488,0.75,7.058,0.801,10.558
				c0.007,14.147-4.328,28.228-12.089,39.765c-7.71,11.583-18.702,20.588-30.807,25.89c-0.749,0.351-1.508,0.672-2.279,0.959
				c-0.768,0.297-1.533,0.594-2.297,0.89c-1.557,0.51-3.087,1.08-4.659,1.485c-3.112,0.926-6.276,1.533-9.417,2.019
				c-1.579,0.19-3.14,0.425-4.723,0.507c-0.786,0.051-1.577,0.131-2.354,0.158c-0.771,0.018-1.543,0.036-2.312,0.053
				c-1.568,0.064-3.101-0.055-4.636-0.074c-1.527-0.125-3.053-0.195-4.553-0.39c-6.007-0.719-11.773-2.101-17.089-4.141
				c-5.318-2.029-10.214-4.605-14.598-7.54c-8.771-5.902-15.399-13.204-20.073-20.361c-4.711-7.172-7.442-14.228-9.064-20.139
				c-1.64-5.934-2.159-10.755-2.366-14.048c-0.153-1.652-0.106-2.894-0.145-3.741c-0.02-0.844-0.018-1.279-0.018-1.279v-0.014H527z"
				/>
		</g>
		<g display="inline">
			<circle cx="621.491" cy="279.913" r="17.999"/>
			<path d="M604,279.888c0,0,0.029,0.44,0.09,1.267c0.012,0.423,0.094,0.908,0.201,1.467c0.056,0.282,0.092,0.584,0.171,0.906
				c0.083,0.322,0.206,0.657,0.321,1.01c0.104,0.358,0.252,0.722,0.433,1.093c0.179,0.371,0.324,0.773,0.546,1.161
				c0.217,0.391,0.471,0.781,0.728,1.182c0.293,0.376,0.598,0.766,0.911,1.168c1.312,1.543,3.162,2.966,5.378,3.817
				c1.114,0.41,2.299,0.699,3.513,0.801c0.302,0.017,0.605,0.034,0.911,0.052c0.305-0.014,0.612-0.029,0.922-0.043
				c0.6,0.007,1.222-0.152,1.81-0.226c0.297-0.043,0.598-0.153,0.889-0.224l0.436-0.117l0.216-0.057
				c-0.098,0,0.258-0.01-0.212-0.002l0.036-0.01l0.071-0.021l0.145-0.043c0.722-0.232,1.72-0.444,1.97-0.746l0.611-0.402
				l0.719-0.493c0.239-0.141,0.45-0.359,0.668-0.539c0.213-0.189,0.444-0.319,0.635-0.539l0.584-0.583
				c0.189-0.191,0.347-0.434,0.528-0.621c0.182-0.189,0.35-0.392,0.492-0.622c0.148-0.223,0.313-0.417,0.446-0.641
				c0.587-0.851,0.962-1.796,1.356-2.648c0.15-0.458,0.316-0.891,0.413-1.347c0.177-0.419,0.213-0.886,0.324-1.314
				c0.02-0.457-0.083-0.875-0.067-1.324c0.025-0.22-0.191-0.438-0.191-0.665v-0.336l0.241-0.167l0.122-0.083l0.064-0.042
				l0.032-0.021c0.006,0.195,0.006-0.468,0.029,0.433l-0.029-1.325l-0.005-0.331l-0.003-0.166c-0.002-0.043-0.008-0.035-0.012-0.055
				c-0.02-0.054-0.031-0.108-0.039-0.163c-0.01-0.055-0.013-0.11-0.013-0.167l0.003-0.086l-0.037-0.159
				c-0.032-0.219-0.058-0.442-0.074-0.669c-0.111-0.429-0.154-0.895-0.324-1.318c-0.079-0.466-0.26-0.894-0.408-1.355
				c-0.376-0.871-0.777-1.798-1.353-2.667c-0.136-0.225-0.301-0.419-0.45-0.642c-0.145-0.23-0.313-0.433-0.497-0.623
				c-0.18-0.192-0.336-0.438-0.527-0.627l-0.589-0.583c-0.823-0.717-1.734-1.5-2.8-1.995c-0.519-0.313-1.079-0.482-1.646-0.717
				l-0.107-0.042l-0.053-0.021l-0.027-0.01c0.471-0.016,0.109-0.009,0.204-0.014l-0.294-0.056l-0.585-0.111
				c-0.364-0.068-0.727-0.137-1.086-0.204c-0.507-0.066-0.984-0.253-1.624-0.238c-0.311-0.014-0.618-0.027-0.923-0.042
				c-0.308,0.02-0.61,0.039-0.911,0.058c-1.215,0.107-2.402,0.394-3.515,0.813c-0.535,0.238-1.075,0.476-1.594,0.739
				c-0.494,0.291-0.984,0.588-1.43,0.922c-0.426,0.352-0.891,0.664-1.272,1.036c-0.383,0.371-0.755,0.744-1.076,1.134
				c-1.367,1.529-2.107,3.212-2.611,4.607c-0.117,0.354-0.237,0.689-0.321,1.011c-0.079,0.323-0.118,0.634-0.173,0.919
				c-0.109,0.572-0.188,1.061-0.199,1.464c-0.06,0.803-0.088,1.231-0.088,1.231v-0.029H604z M603,279.913
				c0,0,0.015-0.454,0.05-1.304c-0.001-0.427,0.067-0.947,0.162-1.559c0.05-0.305,0.08-0.637,0.153-0.983
				c0.085-0.344,0.176-0.71,0.27-1.096c0.422-1.528,1.082-3.379,2.312-5.24c1.206-1.862,2.909-3.776,5.182-5.327
				c2.287-1.539,5.072-2.689,8.276-3.097c3.062-0.372,6.541,0.036,9.708,1.412c1.599,0.675,3.091,1.638,4.488,2.744
				c1.376,1.142,2.59,2.5,3.638,3.996c1.021,1.518,1.808,3.199,2.388,4.959c0.547,1.741,0.813,3.748,0.861,5.443
				c-0.048,1.964-0.313,3.748-0.857,5.545c-0.58,1.76-1.367,3.442-2.389,4.96c-1.048,1.496-2.261,2.854-3.637,3.996
				c-1.399,1.106-2.893,2.069-4.49,2.744c-1.606,0.66-3.215,1.169-4.914,1.361c-0.859,0.156-1.621,0.139-2.405,0.182
				c-0.863,0-1.626-0.058-2.423-0.134c-3.139-0.401-5.971-1.557-8.243-3.093c-2.272-1.552-3.977-3.465-5.183-5.328
				c-1.229-1.861-1.891-3.712-2.312-5.24c-0.096-0.386-0.186-0.752-0.271-1.096c-0.073-0.348-0.105-0.687-0.154-0.996
				c-0.097-0.623-0.162-1.148-0.16-1.556c-0.032-0.827-0.049-1.269-0.049-1.269L603,279.913L603,279.913z"/>
		</g>
		<g display="inline">
			<path d="M725.446,315.282c0,0,0.021-0.164,0.116-0.467c0.097-0.282,0.262-0.81,0.472-1.231c0.224-0.463,0.511-1.045,0.885-1.515
				c0.185-0.249,0.391-0.511,0.621-0.785c0.231-0.274,0.474-0.473,0.744-0.712c0.269-0.226,0.551-0.407,0.859-0.613
				c0.31-0.185,0.626-0.313,0.973-0.469c0.671-0.262,1.433-0.415,2.201-0.438c0.773,0.02,1.579,0.104,2.348,0.423
				c0.775,0.279,1.503,0.722,2.154,1.275c0.664,0.532,1.161,1.238,1.598,1.942c0.409,0.716,0.64,1.503,0.781,2.271
				c0.101,0.765,0.023,1.535-0.102,2.242c-0.139,0.714-0.472,1.355-0.804,1.944c-0.198,0.301-0.346,0.563-0.575,0.831
				c-0.216,0.267-0.468,0.498-0.685,0.714c-0.402,0.42-0.939,0.801-1.344,1.084c-0.37,0.279-0.855,0.517-1.104,0.657
				c-0.274,0.142-0.42,0.218-0.42,0.218l-0.986,0.168c0,0-0.083-0.166-0.204-0.454c-0.118-0.287-0.27-0.705-0.513-1.158
				c-0.121-0.226-0.212-0.491-0.375-0.728s-0.322-0.491-0.486-0.748c-0.193-0.234-0.379-0.487-0.586-0.723
				c-0.23-0.212-0.419-0.477-0.687-0.654c-0.236-0.211-0.484-0.411-0.758-0.571c-0.255-0.184-0.539-0.32-0.805-0.473
				c-0.281-0.115-0.542-0.269-0.812-0.366c-0.267-0.109-0.524-0.2-0.771-0.266c-0.488-0.137-0.909-0.265-1.208-0.311
				c-0.3-0.063-0.448-0.093-0.463-0.091L725.446,315.282z"/>
		</g>
		<g display="inline">
			<path d="M281.857,544.15c2.001,1.588,3.991,3.138,6.033,4.634c2.045,1.487,4.113,2.932,6.182,4.362
				c2.076,1.423,4.183,2.797,6.312,4.133l6.413,3.945c4.296,2.595,8.666,5.043,13.104,7.425c1.114,0.59,2.207,1.219,3.329,1.836
				l1.705,0.962l0.907,0.533l0.516,0.325c0.197,0.134,0.378,0.245,0.746,0.544l0.153,0.133c0.056,0.048,0.082,0.067,0.213,0.196
				c0.106,0.104,0.209,0.213,0.309,0.324c0.087,0.105,0.014,0.002,0.231,0.283c0.158,0.211,0.306,0.437,0.436,0.672
				c0.138,0.262,0.219,0.419,0.353,0.783c0.419,1.053,0.399,2.77-0.198,3.938l-0.251,0.484l-0.054,0.106l-0.214,0.426l-0.43,0.851
				c-0.058,0.129-0.175,0.315-0.184,0.396l-0.062,0.271l-0.146,0.528c-0.106,0.275-0.228,0.842-0.345,1.326
				c-0.123,0.491-0.249,0.979-0.312,1.51c-0.387,2.038-0.473,4.222-0.306,6.091c0.047,0.463,0.062,0.96,0.182,1.314l0.127,0.578
				l0.055,0.289c-0.135-0.61-0.032-0.153-0.061-0.282l0.01,0.028l0.018,0.058l0.036,0.113l0.07,0.228l0.27,0.913l0.135,0.457
				c0.043,0.115,0.081,0.152,0.12,0.231c0.076,0.141,0.146,0.28,0.21,0.423l0.093,0.215c0.037,0.078,0.103,0.177,0.15,0.266
				c1.537,2.96,4.308,5.162,7.36,6.034c1.522,0.442,3.099,0.564,4.626,0.375c0.384-0.017,0.762-0.113,1.138-0.199l0.283-0.058
				l0.141-0.026l0.036-0.007l0.019-0.004c0.195-0.041-0.249,0.054-0.191,0.04l0.114-0.03l0.92-0.249
				c0.375-0.088,0.457-0.154,0.612-0.206c0.155-0.062,0.277-0.085,0.467-0.168c0.365-0.148,0.732-0.29,1.05-0.462
				c1.33-0.652,2.177-1.441,2.858-2.385c0.327-0.491,0.616-1.041,0.876-1.668c0.246-0.641,0.441-1.374,0.61-2.16l0.999-4.657
				l4.579-1.286c1.481-0.416,2.962-0.833,4.463-1.213l2.36-0.399c0.793-0.115,1.563-0.291,2.39-0.314
				c3.244-0.303,6.591-0.126,9.7,0.364c3.052,0.508,5.76,1.285,7.808,1.741c0.469,0.088,1.006,0.228,1.414,0.28
				c0.394,0.042,0.781,0.095,1.169,0.154c0.314-0.016,0.624-0.015,0.937,0.004c0.307,0.008,0.556-0.094,0.837-0.102
				c1.093-0.243,2.292-0.568,3.818-1.579c0.37-0.244,0.735-0.382,1.13-0.682l1.187-0.875l0.598-0.431l0.3-0.215l0.075-0.053
				c-0.64,0.531-0.151,0.125-0.282,0.232l0.044-0.039l0.179-0.156l0.712-0.625c0.217-0.192,0.561-0.475,0.529-0.5
				c0.053-0.081,0.111-0.156,0.176-0.226c0.063-0.069,0.131-0.112,0.231-0.271c0.166-0.268,0.426-0.487,0.553-0.765
				c0.144-0.268,0.35-0.507,0.447-0.787c0.13-0.267,0.272-0.526,0.348-0.811c0.401-1.096,0.551-2.268,0.459-3.514
				c-0.204-2.494-1.556-5.235-3.878-7.377c-1.15-1.083-2.54-1.996-4.068-2.783c-1.529-0.785-3.237-1.391-5.071-1.771
				c-1.829-0.385-3.751-0.646-5.763-0.633c-0.988-0.064-2.022,0.07-3.039,0.072c-1.034,0.115-2.065,0.146-3.115,0.324l-1.575,0.239
				l-0.197,0.029l-0.099,0.015l-0.05,0.008c0.712-0.009-6.984-0.05-4.052-0.119c-2.249-0.395-4.998-3.063-5.538-4.77
				c-0.145-0.33-0.271-0.673-0.378-1.021c-0.126-0.418-0.177-0.663-0.188-0.733l-0.081-0.424c-0.059-0.345-0.059-0.401-0.079-0.575
				l-0.037-0.399c-0.052-0.815-0.035-1.19-0.032-1.621c0.036-1.547,0.114-2.753,0.179-4.031c0.133-2.509,0.25-4.949,0.322-7.394
				c0.149-4.881,0.14-9.729-0.097-14.536c-0.221-4.807-0.544-9.586-1.244-14.268c-0.173-1.17-0.364-2.333-0.576-3.488l-0.335-1.729
				l-0.4-1.901l-0.375-1.859l-0.188-0.929l-0.199-0.801c-0.278-1.075-0.485-2.124-0.851-3.256
				c-1.302-4.459-2.878-8.905-4.941-13.171c-0.52-1.062-1.018-2.144-1.604-3.176l-0.852-1.57l-0.213-0.393l-0.053-0.1l-0.026-0.049
				c0.116,0.17,0.016,0.019,0.032,0.043l-0.123-0.203l-0.492-0.812c-1.351-2.276-2.531-4.054-3.914-6.048
				c-2.727-3.944-5.819-7.666-9.265-11.074c-3.472-3.364-7.149-6.624-11.274-9.309c-1.039-0.647-2.06-1.356-3.136-1.954
				c-1.059-0.642-2.13-1.271-3.238-1.826c-2.192-1.188-4.496-2.144-6.839-3.104l0.238-0.971c4.956,1.219,9.739,3.09,14.255,5.458
				c4.521,2.362,8.74,5.278,12.662,8.532c3.917,3.264,7.52,6.902,10.769,10.834c0.837,0.96,1.594,1.997,2.369,3.015
				c0.8,1.012,1.489,2.062,2.217,3.097c0.736,1.019,1.413,2.148,2.09,3.21c0.701,1.066,1.312,2.187,1.947,3.293
				c2.498,4.446,4.606,9.117,6.258,13.95c0.835,2.413,1.536,4.909,2.117,7.35c0.642,2.423,1.247,4.935,1.731,7.425
				c1.949,10.009,2.572,20.204,2.563,30.348c-0.003,2.537-0.053,5.074-0.114,7.604c-0.028,1.262-0.068,2.53-0.068,3.766
				c0.003,0.303,0.008,0.613,0.028,0.874l0.018,0.156c0-0.003,0.012,0.06-0.001,0.003c-0.005-0.017-0.012-0.032-0.021-0.047
				c-0.047-0.165-0.33-0.436-0.561-0.459c0.335-0.002-0.472,0.006-0.373-0.003l0.06-0.012l0.118-0.021l0.236-0.044l1.896-0.354
				c1.261-0.251,2.55-0.351,3.825-0.522c1.289-0.061,2.571-0.218,3.866-0.176c2.585-0.056,5.179,0.219,7.727,0.71
				c5.097,0.968,10.023,3.251,13.919,6.797c3.881,3.525,6.642,8.455,7.132,13.801c0.225,2.661-0.148,5.38-1.098,7.882
				c-0.956,2.52-2.439,4.751-4.389,6.663c-0.472,0.489-0.953,0.85-1.431,1.278c-0.544,0.476-1.056,0.783-1.586,1.183l-1.577,1.132
				c-0.524,0.38-1.124,0.664-1.683,1c-2.214,1.371-4.786,2.28-7.424,2.675c-0.666,0.05-1.334,0.17-2,0.155l-1.998-0.079
				l-1.951-0.294c-0.646-0.106-1.266-0.275-1.899-0.411c-2.499-0.612-4.896-1.325-7.319-1.797
				c-4.839-0.898-9.825-0.568-14.563,0.906l0.607-0.646c-0.321,1.278-0.723,2.545-1.268,3.762c-0.56,1.21-1.244,2.369-2.063,3.434
				c-1.665,2.112-3.884,3.776-6.321,4.824c-1.198,0.549-2.495,0.941-3.765,1.252l-0.93,0.206c-0.36,0.074-0.665,0.103-1,0.154
				c-0.654,0.099-1.311,0.194-1.975,0.195c-2.646,0.132-5.315-0.281-7.797-1.201c-4.976-1.82-9.146-5.713-11.265-10.569
				c-0.536-1.221-0.959-2.539-1.22-3.743c-0.202-0.672-0.199-1.321-0.307-1.984c-0.111-0.662-0.089-1.315-0.102-1.973
				c-0.008-2.618,0.312-5.212,0.974-7.727c0.13-0.637,0.334-1.257,0.54-1.876c0.205-0.62,0.378-1.24,0.673-1.858
				c0.28-0.601,0.508-1.274,0.838-1.81l0.48-0.821l0.239-0.41l0.061-0.104l0.015-0.025c-0.011,0.021,0.047-0.079-0.021,0.037
				c-0.089,0.161-0.092,0.402-0.028,0.547c0.015,0.043,0.02,0.059,0.034,0.086c0.09,0.138,0.047,0.07,0.056,0.086
				c0.001-0.002-0.033-0.028-0.048-0.043c-0.872-0.677-2.029-1.383-3.066-2.06l-3.203-2.059c-4.262-2.767-8.478-5.616-12.599-8.6
				c-8.23-5.969-16.155-12.43-23.228-19.768L281.857,544.15z"/>
		</g>
		<g display="inline">
			<path d="M564.348,560.649c1.727,1.194,3.383,2.493,5.042,3.803c0.839,0.646,1.616,1.354,2.423,2.043
				c0.796,0.699,1.589,1.407,2.369,2.136c0.784,0.728,1.562,1.47,2.324,2.238c0.747,0.777,1.472,1.592,2.195,2.417
				c0.714,0.839,1.418,1.7,2.1,2.603c0.68,0.906,1.337,1.854,1.964,2.853c0.618,1.007,1.22,2.068,1.73,3.218
				c0.489,1.17,0.955,2.385,1.261,3.74c0.338,1.328,0.504,2.794,0.509,4.304c-0.013,1.521-0.276,3.087-0.729,4.604
				c-0.489,1.486-1.141,2.955-1.964,4.207c-0.804,1.298-1.726,2.405-2.697,3.434c-0.489,0.475-0.986,0.961-1.49,1.411
				c-0.505,0.42-1.016,0.864-1.529,1.259c-0.513,0.379-1.031,0.773-1.552,1.134l-1.562,1.03l-0.603,0.396l-1.57,0.33
				c-3.674,0.771-7.424,1.438-11.438,1.543c-3.975,0.133-8.185-0.261-12.214-1.249c-4.025-0.984-7.669-2.565-10.545-3.607
				c-2.916-1.079-4.916-1.559-7.158-1.607l-0.417-0.013l-0.208-0.008l-0.104-0.005l-0.054-0.002l-0.024-0.002
				c2.831-0.196,0.763-0.05,1.384-0.092l-0.156,0.036c-0.053,0.008,0.067-0.006,0.139-0.016l0.233-0.035
				c0.155-0.026,0.311-0.059,0.465-0.097c0.309-0.076,0.61-0.175,0.9-0.293l0.197-0.084l-0.004,0.004l-0.006,0.006l-0.025,0.021
				l-0.164,0.095l-1.989,1.127c-1.495,0.85-3.089,1.742-4.717,2.601c-3.268,1.729-6.713,3.371-10.543,4.666
				c-1.919,0.65-3.934,1.229-6.11,1.659c-2.177,0.426-4.529,0.717-7.145,0.59c-2.596-0.119-5.531-0.651-8.41-2.046
				c-0.716-0.315-1.41-0.775-2.096-1.188l-0.257-0.162c0.482,0.354-0.73-0.528-0.614-0.445l-0.03-0.025l-0.062-0.052l-0.245-0.205
				l-0.493-0.409c-0.029-0.018-0.308-0.273-0.48-0.439l-0.573-0.565c-0.376-0.384-0.738-0.779-1.086-1.186
				c-0.529-0.673-0.896-1.224-1.321-1.859c-1.464-2.398-2.236-4.531-2.904-6.543c-0.639-2.002-1.079-3.861-1.487-5.687
				c-0.753-3.64-1.254-7.062-1.798-10.438c-0.498-3.375-0.971-6.686-1.521-9.959c-0.493-3.285-1.108-6.518-1.75-9.745
				c-0.638-3.229-1.393-6.426-2.227-9.609c-0.872-3.17-1.729-6.375-2.832-9.51c-1.091-3.137-2.28-6.267-3.589-9.386
				c-1.311-3.121-2.799-6.185-4.307-9.323l0.785-0.618c2.105,2.711,4.183,5.454,6.013,8.366c0.965,1.424,1.8,2.929,2.697,4.395
				c0.822,1.509,1.692,2.994,2.449,4.538c3.164,6.109,5.643,12.561,7.657,19.125c2.035,6.562,3.563,13.265,4.994,19.948
				c0.726,3.34,1.419,6.683,2.265,9.961c0.865,3.251,1.814,6.55,3.533,9.257c0.233,0.312,0.459,0.646,0.694,0.945
				c0.259,0.26,0.467,0.523,0.749,0.791l0.503,0.397l0.252,0.198l0.062,0.05l0.032,0.023c0.023,0.02-0.095-0.066-0.029-0.021
				l0.125,0.071c0.344,0.18,0.653,0.416,1.02,0.554c1.407,0.654,2.989,0.951,4.597,0.995c3.233,0.075,6.519-0.749,9.667-1.842
				c3.156-1.124,6.226-2.543,9.237-4.087c1.506-0.775,2.994-1.589,4.488-2.415c0.749-0.413,1.491-0.83,2.277-1.237
				c0.191-0.102,0.4-0.203,0.615-0.303c0.147-0.086,0.752-0.292,0.856-0.288c0.081-0.007-0.127,0.006,0.191-0.019l0.042,0.002
				l0.083,0.006l0.166,0.011l0.331,0.02l0.664,0.041c3.546,0.195,7.013,1.237,10.177,2.597c3.183,1.339,6.238,2.763,9.452,3.688
				c3.203,0.949,6.531,1.403,9.881,1.483c3.354,0.137,6.721-0.273,10.065-0.701l-0.259,0.086l1.311-0.735
				c0.43-0.256,0.844-0.533,1.268-0.798c0.415-0.273,0.806-0.578,1.211-0.865c0.388-0.306,0.759-0.629,1.138-0.943
				c0.708-0.675,1.4-1.371,1.956-2.162c0.595-0.765,1.021-1.629,1.392-2.507c0.328-0.896,0.554-1.828,0.637-2.785
				c0.065-0.957,0.052-1.93-0.111-2.896c-0.126-0.969-0.398-1.923-0.69-2.868l-0.508-1.404c-0.199-0.459-0.383-0.924-0.595-1.379
				c-0.424-0.911-0.89-1.807-1.386-2.688c-0.501-0.879-1.034-1.741-1.584-2.597c-1.114-1.7-2.317-3.35-3.566-4.966
				c-2.505-3.235-5.203-6.314-7.97-9.355L564.348,560.649z"/>
		</g>
		<g display="inline">
			<path d="M461.321,471.775c3.052,1.665,6.046,3.128,9.191,4.43c3.119,1.308,6.264,2.52,9.462,3.577
				c1.602,0.525,3.207,1.029,4.824,1.501c1.613,0.479,3.216,0.978,4.844,1.415c3.239,0.902,6.509,1.717,9.799,2.453
				c1.64,0.379,3.295,0.719,4.942,1.066c1.646,0.366,3.293,0.72,4.946,1.058c3.308,0.675,6.625,1.31,9.959,1.897l20.087,3.396
				l20.3,3.322c6.787,1.27,13.614,2.594,20.544,4.296c3.467,0.86,6.957,1.803,10.514,2.993c3.566,1.209,7.168,2.578,10.92,4.788
				c1.866,1.084,3.799,2.401,5.714,4.215c1.889,1.795,3.839,4.205,5.062,7.38c1.253,3.152,1.457,6.858,0.849,9.842
				c-0.593,3.022-1.719,5.446-2.902,7.562l-0.278,0.497l-0.315,0.396c-1.414,1.769-2.672,3.52-4.293,5.3l-1.164,1.327
				c-0.392,0.441-0.873,0.895-1.31,1.339l-1.344,1.332c-0.479,0.443-1.035,0.893-1.555,1.333c-0.987,0.887-2.284,1.737-3.528,2.558
				c-1.343,0.763-2.759,1.491-4.124,1.993c-0.729,0.304-1.295,0.472-1.906,0.675L589.682,554l-0.724,0.219l-0.722,0.219
				l-0.564,0.188c-0.373,0.124-0.775,0.242-1.068,0.375l-0.956,0.382l-0.921,0.455c-0.616,0.279-1.255,0.745-1.893,1.091
				l-1.974,1.393c-0.668,0.517-1.343,1.098-2.018,1.639c-0.682,0.508-1.359,1.185-2.042,1.781l-1.023,0.92l-0.787,0.717
				l-0.578,0.504l-1.156,1.009c-0.411,0.35-0.688,0.633-1.312,1.085c-1.102,0.831-2.217,1.646-3.34,2.44
				c-4.323,2.761-9.037,4.708-13.781,5.927c-1.183,0.298-2.362,0.47-3.543,0.701l-1.771,0.32l-0.885,0.157l-0.873,0.076
				l-3.487,0.289c-1.162,0.1-2.326,0.201-3.452,0.155l-3.404-0.031l-1.7-0.02l-0.425-0.006l-0.406-0.013l-0.191-0.015l-0.765-0.058
				c-1.044-0.085-1.986-0.139-3.114-0.249c-1.246-0.152-2.487-0.304-3.729-0.484c-1.271-0.273-2.487-0.474-3.791-0.841
				c-1.331-0.427-2.63-0.766-3.979-1.426c-0.659-0.316-1.347-0.57-1.966-0.961l-1.854-1.16c-0.618-0.393-1.106-0.833-1.658-1.254
				c-0.545-0.428-1.077-0.858-1.501-1.279l-1.354-1.276l-1.177-1.22c-0.808-0.83-1.472-1.574-2.182-2.346
				c-1.389-1.513-2.703-2.953-4.058-4.348c-2.705-2.785-5.494-5.456-8.493-7.984c-0.747-0.633-1.486-1.274-2.222-1.93l-2.289-1.881
				l-2.254-1.856l-2.426-1.889c-3.229-2.49-6.484-5.114-9.676-7.419l-2.405-1.787c-0.793-0.619-1.59-1.221-2.4-1.764l-2.425-1.688
				c-0.81-0.565-1.616-1.148-2.459-1.628c-3.291-2.096-6.835-3.895-10.489-5.824c-3.63-1.908-7.255-3.941-10.866-5.917
				c-3.551-2.119-7.104-4.208-10.598-6.397l0.428-0.904l11.164,5.067c3.763,1.599,7.499,3.238,11.293,4.774
				c3.777,1.556,7.584,3.134,11.252,5.028c3.645,1.922,7.189,4.026,10.61,6.293c3.484,2.19,6.812,4.555,10.203,6.846l2.535,1.729
				l2.509,1.801l2.503,1.801l2.439,1.888c3.266,2.5,6.382,5.203,9.386,8.016c3.021,2.788,5.797,5.861,8.811,8.473
				c2.977,2.673,6.688,4.074,10.656,4.619l2.975,0.319c1.009,0.075,2.039,0.104,3.059,0.158l0.767,0.037l0.191,0.009l0.168-0.003
				l0.379-0.007l1.516-0.024l3.031-0.048c1.015,0.021,2.016-0.101,3.017-0.214l3.005-0.32l0.751-0.081l0.735-0.153l1.475-0.311
				c0.978-0.22,1.974-0.379,2.938-0.646c3.845-1.12,7.542-2.691,10.884-4.872l2.37-1.764c0.79-0.59,1.528-1.342,2.296-2.005
				l0.57-0.513l0.537-0.501l1.136-1.058c0.767-0.695,1.488-1.435,2.309-2.078c3.11-2.717,6.603-5.19,10.58-6.726
				c1.972-0.774,3.992-1.266,5.801-1.976c0.918-0.335,1.76-0.801,2.604-1.266c0.802-0.548,1.631-1.046,2.365-1.714
				c3.032-2.521,5.595-5.698,8.087-8.882l-0.063,0.098c0.802-1.42,1.463-2.908,1.767-4.443c0.311-1.532,0.22-3.096-0.324-4.527
				c-0.536-1.436-1.495-2.726-2.649-3.845c-1.155-1.123-2.498-2.095-3.929-2.94c-2.844-1.724-5.983-3.019-9.151-4.192
				c-3.183-1.161-6.442-2.142-9.724-3.05c-6.566-1.809-13.235-3.303-19.917-4.746L537.811,500
				c-6.696-1.426-13.387-2.902-20.046-4.527c-6.654-1.638-13.292-3.382-19.832-5.468c-3.271-1.03-6.521-2.138-9.739-3.338
				c-3.218-1.201-6.41-2.473-9.543-3.888c-3.134-1.412-6.218-2.94-9.219-4.624c-2.986-1.675-5.94-3.539-8.685-5.562L461.321,471.775
				z"/>
		</g>
		<g display="inline">
			<path fill="none" d="M449.81,506.501"/>
		</g>
	</g>
</g>
<g id="Layer_4">
	<rect fill="#FFFFFF" width="1024" height="768"/>
	<g>
		<path d="M799.557,319.087c-2.713,0.067-5.428,0.11-8.14,0.208l-8.024,0.667c-2.655,0.282-5.284,0.656-7.926,0.982
			c-2.642,0.323-5.225,0.83-7.838,1.238c-0.326,0.05-0.646,0.117-0.972,0.17c-1.54-1.447-3.19-3.191-4.9-5.262
			c-2.487-3.029-5.132-6.695-7.852-10.966c-5.439-8.542-11.04-19.6-16.577-32.603c-0.688-1.627-1.363-3.288-2.029-4.975
			c-0.32-0.836-0.645-1.679-0.971-2.528c-0.294-0.857-0.59-1.72-0.889-2.589c-0.32-0.927-0.644-1.86-0.969-2.801
			c-0.359-0.926-0.723-1.858-1.088-2.797c-0.368-0.938-0.739-1.884-1.112-2.835c-0.407-0.936-0.817-1.878-1.229-2.827
			c-3.311-7.59-7.5-15.247-12.412-22.89c-4.93-7.631-10.625-15.235-17.156-22.584c-6.541-7.339-13.994-14.333-22.233-20.87
			c-8.229-6.553-17.431-12.431-27.442-17.443c-5.044-2.432-10.256-4.738-15.767-6.485c-2.714-0.978-5.55-1.675-8.36-2.478
			c-1.423-0.346-2.865-0.646-4.304-0.97l-2.164-0.47l-2.198-0.361c-5.847-1.068-11.893-1.491-17.988-1.485
			c-1.527,0.036-3.059,0.071-4.592,0.106c-1.599,0.141-3.2,0.282-4.805,0.423c-1.696,0.123-2.994,0.368-4.405,0.578l-2.097,0.323
			l-0.524,0.081l-0.263,0.04c0.073-0.024-1.585,0.334-1.004,0.213l-1.021,0.249c-10.883,2.668-21.938,5.125-33.104,7.399
			c-22.347,4.445-45.272,7.677-68.174,8.723c-11.44,0.586-22.878,0.666-34.154-0.045c-11.277-0.701-22.384-2.17-33.034-4.729
			c-1.335-0.32-2.663-0.657-4.008-1.013l-4.311-1.146l-0.702-0.168l-0.443-0.095l-0.519-0.1l-0.665-0.104
			c-0.4-0.045-0.724-0.075-1.191-0.092c-1.025-0.225-3.382,0.547-3.919,0.746c1.03-1.361-8.213,7.775-4.95,5.56
			c-0.279,0.949-0.311,1.26-0.379,1.609l-0.131,0.841c-0.066,0.496-0.115,0.929-0.16,1.354c-0.168,1.669-0.268,3.18-0.351,4.703
			c-0.271,6.037-0.263,11.869-0.142,17.686c0.261,11.611,1.055,23.005,2.243,34.168c1.225,11.156,2.732,22.094,4.835,32.69
			c2.058,10.602,4.481,20.893,7.23,30.805c2.766,9.906,5.794,19.455,9.218,28.512c2.038,5.392,4.188,10.599,6.41,15.654
			c-2.76-1.397-6.114-2.948-10.05-4.529c-6.559-2.434-14.756-4.899-24.442-6.167c-9.678-1.258-20.79-1.358-32.666,0.479
			c-11.856,1.8-24.534,5.542-36.678,12.107c-12.124,6.526-23.667,15.926-32.699,28.006c-9.035,12.053-15.293,26.816-17.695,42.462
			c-0.561,3.915-0.982,7.869-1.109,11.851l-0.081,2.986l-0.021,0.747l-0.051,0.666l-0.121,1.479
			c-0.182,1.947-0.403,3.896-0.688,5.845c-1.131,7.78-3.064,15.485-5.953,22.816c-2.877,7.329-6.675,14.313-11.492,20.498
			c-4.769,6.225-10.57,11.575-16.939,15.982c-0.84,0.566-1.689,1.114-2.549,1.648c1.981-1.828,3.784-3.868,5.439-6.034
			c6.951-9.187,10.197-21.19,9.271-32.831c-0.219-2.915-0.697-5.811-1.381-8.657c-0.697-2.847-1.684-5.614-2.834-8.309
			c-1.143-2.701-2.527-5.299-4.094-7.78c-1.551-2.496-3.311-4.862-5.242-7.081c-7.682-8.921-18.117-15.479-29.338-18.677
			c-5.592-1.682-11.346-2.63-17.076-2.96c-1.434-0.082-2.868-0.162-4.295-0.15l-2.145-0.015l-2.227,0.079l-2.199,0.097l-1.938,0.149
			l-0.968,0.075l-0.483,0.037l-0.431,0.044l-0.269,0.033l-2.148,0.271c-11.472,1.418-22.761,5.752-32.418,12.405
			c-4.829,3.323-9.294,7.181-13.217,11.504c-3.927,4.321-7.365,9.055-10.281,14.068c-2.946,5.004-5.18,10.377-6.967,15.856
			c-1.777,5.488-2.994,11.146-3.631,16.87c-1.32,11.439-0.34,23.185,3.099,34.31c3.595,11.053,9.707,21.429,17.997,29.641
			c4.117,4.12,8.714,7.726,13.615,10.746c4.886,3.054,10.146,5.378,15.478,7.229c5.345,1.836,10.804,3.129,16.274,3.986
			c1.367,0.226,2.734,0.434,4.105,0.565c1.369,0.137,2.736,0.347,4.105,0.414l4.105,0.273l4.189,0.115
			c0.717,0.032,1.365,0.008,2.006-0.011l1.943-0.052l1.943-0.052l2.034-0.094l7.876-0.383c2.625-0.164,5.249-0.386,7.869-0.576
			c1.311-0.105,2.621-0.181,3.93-0.312l3.926-0.414c10.468-1.017,20.853-2.877,31.105-5.072c2.561-0.57,5.105-1.217,7.652-1.82
			l7.564-2.142l3.77-1.076c1.242-0.412,2.486-0.815,3.721-1.253l6.683-2.329c0.167,0.227,0.299,0.475,0.453,0.712
			c0.295,0.494,0.562,1.026,0.836,1.58c0.278,0.563,0.577,1.134,0.935,1.692c0.094,0.133,0.186,0.271,0.277,0.406
			c-1.715,0.459-3.332,1.086-4.941,1.795c-2.284,1.021-4.432,2.353-6.385,3.985c-0.465,0.45-0.975,0.808-1.402,1.337
			c-0.396,0.477-0.818,0.885-1.195,1.414c-0.369,0.531-0.779,1.048-1.106,1.596c-0.309,0.558-0.649,1.099-0.929,1.67
			c-2.274,4.567-2.654,10.023-1.064,14.874c0.784,2.427,2.048,4.698,3.693,6.649l1.304,1.399c0.494,0.456,0.882,0.842,1.395,1.259
			c0.985,0.846,2.032,1.549,3.138,2.202c1.121,0.622,2.308,1.134,3.543,1.512c1.242,0.357,2.529,0.558,3.82,0.615
			c2.411,0.089,4.788-0.404,7.009-1.215c2.004,1.642,3.781,3.538,5.236,5.664c1.538,2.263,2.694,4.771,3.587,7.398
			c0.918,2.622,1.569,5.366,2.525,8.105c0.481,1.366,1.052,2.739,1.855,4.024c0.795,1.283,1.842,2.461,3.09,3.36
			c1.245,0.906,2.65,1.532,4.075,1.979c1.435,0.417,2.892,0.68,4.345,0.812c1.441,0.143,2.928,0.17,4.324,0.164
			c1.403,0.028,2.843-0.023,4.283-0.082c2.868-0.146,5.729-0.397,8.567-0.991c2.829-0.577,5.655-1.408,8.271-2.824
			c2.575-1.411,5.054-3.463,6.342-6.306c0.711-1.377,1.013-2.911,1.186-4.413c0.007-0.226,0.019-0.451,0.027-0.677
			c0.165-0.01,0.342-0.021,0.549-0.034c0.956-0.05,2.32-0.078,4.082,0.048c1.75,0.13,3.861,0.484,6.146,1.298
			c2.297,0.812,4.64,2.223,7.309,3.813c1.34,0.783,2.83,1.565,4.521,2.075c1.692,0.497,3.563,0.631,5.404,0.407
			c1.847-0.218,3.658-0.756,5.425-1.44c0.888-0.34,1.765-0.724,2.632-1.136c0.433-0.211,0.866-0.42,1.303-0.633
			c0.427-0.241,0.854-0.484,1.284-0.729c1.707-1.038,3.361-2.357,4.712-3.926c1.346-1.593,2.436-3.439,3.164-5.44
			c1.469-4.003,1.47-8.562,0.1-12.634c-0.684-2.037-1.662-3.963-2.852-5.727c-1.202-1.758-2.646-3.317-4.193-4.72
			c-1.562-1.394-3.285-2.554-5.044-3.58c-1.792-0.963-3.616-1.829-5.489-2.442c-3.726-1.285-7.496-1.938-11.066-2.164
			c-0.895-0.067-1.775-0.159-2.646-0.145c-0.376-0.002-0.749-0.062-1.119-0.081c0.268-1.357,0.634-2.771,0.928-4.085
			c1.417-6.008,2.186-11.108,2.678-14.674c0.31-2.328,0.492-3.994,0.583-4.882c0.638-0.729,1.28-1.452,1.896-2.191
			c0.898-1.025,1.771-2.081,2.619-3.154c0.565,0.091,1.505,0.242,2.775,0.448c1.065,0.245,2.414,0.232,3.955,0.283
			c0.774,0.021,1.601,0.043,2.471,0.065c0.854-0.009,1.749-0.02,2.686-0.028c1.861,0.016,3.923-0.168,6.085-0.273
			c2.147-0.222,4.426-0.379,6.755-0.762c2.341-0.3,4.73-0.784,7.163-1.269c1.204-0.285,2.422-0.573,3.643-0.861
			c1.215-0.311,2.422-0.674,3.635-1.014c1.214-0.339,2.389-0.804,3.576-1.202c1.191-0.396,2.354-0.853,3.502-1.318
			c2.316-0.884,4.529-1.915,6.666-2.911c1.055-0.525,2.092-1.045,3.107-1.552c0.994-0.545,1.967-1.079,2.915-1.599
			c0.954-0.507,1.848-1.061,2.716-1.588c0.865-0.534,1.719-1.02,2.504-1.54c1.568-1.045,3.022-1.978,4.231-2.918
			c0.195-0.147,0.381-0.284,0.568-0.425c0.148,0.83,0.276,1.691,0.415,2.537l0.544,3.519l0.545,3.519l0.271,1.76l0.067,0.439
			l0.019,0.11c-0.047-0.224-0.01-0.032-0.02-0.068l0.005,0.052l0.023,0.206l0.092,0.824c0.132,1.097,0.25,2.193,0.316,3.295
			c0.099,1.097,0.143,2.197,0.179,3.297c0.094,2.195,0.112,4.395,0.05,6.594c-0.151,4.406-0.616,8.808-1.343,13.285
			c-0.693,4.482-1.666,9.013-2.491,13.891c-0.725,4.883-1.504,10.161-0.832,16.266c0.349,3.027,1.154,6.237,2.535,9.244
			c0.365,0.736,0.722,1.485,1.12,2.205c0.425,0.704,0.838,1.396,1.297,2.1c0.528,0.736,1.073,1.466,1.632,2.182l1.177,1.381
			l0.145,0.169l0.037,0.042l0.277,0.296l0.114,0.114l0.465,0.459l0.941,0.905c0.662,0.588,1.384,1.152,2.104,1.7
			c1.521,1.047,3.167,2.015,4.962,2.688c1.772,0.726,3.639,1.144,5.463,1.406c1.813,0.204,3.615,0.243,5.283,0.095
			c3.387-0.257,6.329-1.066,9.043-1.965c2.713-0.911,5.146-1.979,7.438-3.025l6.333-2.961c0.934-0.414,1.854-0.814,2.554-1.046
			c0.201-0.08,0.326-0.103,0.485-0.155l0.222-0.069l0.155-0.032h0.001c0.001,0.003,0.023,0.005,0.111,0.005h0.051l0.099-0.023
			l0.036-0.004c-0.117,0.007-0.231,0.027-0.281,0.033l0.08-0.001h0.041l0.27-0.021l0.06,0.008L483.92,609h0.045
			c0.021,0,0.003-0.021-0.027-0.019l0.71,0.011l1.592,0.041c1.084,0.003,2.076,0.104,3.076,0.192
			c0.495,0.049,1.018,0.07,1.491,0.135l1.388,0.22c0.968,0.104,1.735,0.362,2.584,0.529c0.776,0.241,1.528,0.429,2.262,0.759
			l0.556,0.22l0.62,0.298l0.627,0.297l0.781,0.396l0.814,0.41l0.995,0.48c0.609,0.313,1.471,0.652,2.257,0.968
			c1.61,0.613,3.437,1.125,5.102,1.379l1.277,0.215l1.188,0.099c0.783,0.055,1.611,0.139,2.357,0.147l2.189-0.021l1.096-0.018
			l1.024-0.072c1.338-0.118,2.763-0.187,4.024-0.385l3.853-0.547l0.566-0.079l0.473-0.144c2.402-0.723,5-1.754,7.563-3.637
			c2.557-1.838,4.901-4.753,6.098-7.856c1.236-3.104,1.489-6.099,1.404-8.676c-0.1-2.605-0.562-4.891-1.123-6.988
			c-0.263-1.084-0.605-2.05-0.918-3.064c-0.33-0.896-0.644-1.823-0.996-2.687c0.786,0.663,1.59,1.315,2.429,1.95
			c1.966,1.477,4.055,2.909,6.496,4.155c2.438,1.211,5.251,2.307,8.747,2.653c0.445,0.029,0.887,0.062,1.34,0.074l1.396-0.026
			c0.479-0.04,0.961-0.093,1.438-0.149c0.552-0.085,1.189-0.228,1.773-0.373l0.908-0.243l0.1-0.026l0.024-0.006l0.367-0.133
			l0.041-0.012l0.162-0.046l0.326-0.094l1.299-0.377l0.646-0.191l0.609-0.119l1.208-0.249c0.398-0.081,0.744-0.076,1.113-0.127
			l0.545-0.062c0.176-0.013,0.334,0.005,0.502,0.002c1.387-0.017,2.308,0.147,4.494,0.582c0.591,0.11,1.092,0.224,1.86,0.333
			l1.065,0.159c0.355,0.053,0.794,0.073,1.188,0.107l1.217,0.081c0.412,0.011,0.838-0.008,1.258-0.016
			c0.847-0.019,1.689-0.054,2.48-0.186c0.784-0.122,1.659-0.202,2.368-0.395c0.733-0.177,1.47-0.359,2.197-0.562
			c0.723-0.203,1.332-0.454,2.002-0.686c0.639-0.243,1.354-0.464,1.923-0.735c1.169-0.532,2.413-1.048,3.516-1.614l3.274-1.717
			l0.312-0.163l0.574-0.425c3.219-2.38,6.302-5.613,8.332-9.949c0.274-0.514,0.491-1.082,0.687-1.667
			c0.202-0.577,0.396-1.159,0.577-1.743c0.344-1.178,0.504-2.455,0.693-3.689c0.057-1.265,0.104-2.554-0.009-3.817
			c-0.08-0.632-0.172-1.264-0.276-1.893l-0.166-0.941c-0.076-0.306-0.17-0.604-0.261-0.905c-1.407-4.889-4.479-8.821-7.869-11.527
			c-0.428-0.342-0.854-0.693-1.288-1.014l-1.332-0.851l-1.345-0.826c-0.469-0.268-1.016-0.513-1.523-0.761l-1.565-0.715
			c-0.243-0.104-0.565-0.254-0.745-0.316l-0.519-0.172l-2.492-0.82l-3.708-1.146c-1.238-0.387-2.474-0.911-3.714-1.355
			c-1.24-0.438-2.476-0.979-3.719-1.498c-1.24-0.53-2.494-1.006-3.72-1.618l-3.704-1.75l-3.685-1.88
			c-1.239-0.604-2.459-1.271-3.676-1.951c-1.216-0.679-2.445-1.328-3.655-2.031c-2.417-1.418-4.882-2.761-7.269-4.273l-3.619-2.208
			l-3.598-2.275c-1.209-0.746-2.394-1.534-3.581-2.321l-3.596-2.33l-7.129-4.808l-7.129-4.894l-3.563-2.477l-3.525-2.538
			c-2.416-1.632-4.758-3.333-7.137-5.021c-1.595-1.098-3.179-2.225-4.773-3.341c6.257-2.846,12.524-5.649,18.803-8.345
			c7.173-3.104,14.412-6.083,21.648-8.354c3.579-1.102,7.291-2.017,10.475-2.29l0.982-0.044l0.738,0.015l0.369,0.008l0.093,0.002
			c-0.063,0,0.271,0.002-0.116,0l0.189,0.011l3.034,0.146c2.033,0.121,4.029,0.128,6.045,0.188c8.032,0.14,16.013-0.046,23.996-0.42
			c7.986-0.353,15.949-1.06,23.924-1.993c7.978-0.953,15.953-2.134,23.982-3.844l3.016-0.676c1.005-0.215,2.013-0.453,3.024-0.743
			l3.036-0.821l1.521-0.417l1.627-0.542l3.246-1.125l0.812-0.289l0.684-0.292l1.355-0.584l2.75-1.191l2.813-1.283
			c7.359-3.434,14.478-7.111,21.522-10.979c7.038-3.868,13.964-7.935,20.773-12.201c6.82-4.252,13.431-8.845,19.963-13.555
			c6.531-4.712,12.876-9.708,19.095-14.872c6.23-5.149,12.228-10.616,18.054-16.28l4.329-4.296l4.17-4.468
			c1.41-1.469,2.727-3.035,4.075-4.566c1.333-1.547,2.714-3.047,3.982-4.657l3.873-4.763c1.263-1.613,2.479-3.271,3.717-4.904
			l1.845-2.465l1.756-2.538c1.156-1.703,2.368-3.362,3.475-5.103c4.512-6.903,8.533-14.16,12.153-21.64l6.16-12.729L799.557,319.087
			z M400.24,175.959c0.002-0.004,0.003-0.01,0.004-0.014C400.384,175.829,400.339,175.871,400.24,175.959z M353.303,571.003
			c0.109,0.004,0.152,0.021,0.158,0.044L353.303,571.003z M483.386,608.987c-0.066,0.008-0.136,0.008-0.204-0.001
			c-0.084-0.005,0.061-0.005,0.117-0.01l0.176-0.005C483.443,608.979,483.407,608.987,483.386,608.987z M483.486,608.97l0.057-0.015
			C483.551,608.953,483.523,608.962,483.486,608.97z"/>
		<path d="M351.759,578.21C351.365,578.173,351.754,578.238,351.759,578.21L351.759,578.21z"/>
		<path d="M483.791,608.964l-0.104,0.009c0.104-0.005,0.199-0.01,0.249-0.012l-0.017-0.001L483.791,608.964z"/>
	</g>
</g>
<g id="Layer_5">
</g>
<g id="Layer_6">
</g>
</svg>
