<?xml version="1.0" encoding="utf-8"?>
<!-- Generator: Adobe Illustrator 16.0.0, SVG Export Plug-In . SVG Version: 6.00 Build 0)  -->
<!DOCTYPE svg PUBLIC "-//W3C//DTD SVG 1.1//EN" "http://www.w3.org/Graphics/SVG/1.1/DTD/svg11.dtd">
<svg version="1.1" xmlns="http://www.w3.org/2000/svg" xmlns:xlink="http://www.w3.org/1999/xlink" x="0px" y="0px" width="1024px"
	 height="768px" viewBox="0 0 1024 768" enable-background="new 0 0 1024 768" xml:space="preserve">
<g id="Layer_1">
	<g>
		<g>
			<path d="M362.304,541.109c0,0,0.33-0.148,0.941-0.364c0.609-0.196,1.51-0.555,2.641-0.869c1.162-0.263,2.453-0.853,3.868-1.4
				c0.354-0.147,0.716-0.275,1.085-0.408c0.184-0.067,0.369-0.135,0.558-0.204l0.283-0.104c-0.038-0.001,0.109-0.005-0.08-0.005
				l0.02-0.007l0.039-0.015l0.079-0.028l0.158-0.057c0.846-0.303,1.737-0.565,2.666-0.871c0.465-0.157,0.94-0.274,1.423-0.416
				c0.482-0.137,0.903-0.311,1.365-0.468c0.907-0.317,1.838-0.584,2.782-0.887c1.937-0.657,3.992-1.214,6.066-1.884
				c1.035-0.357,2.104-0.584,3.158-0.946c0.529-0.168,1.06-0.336,1.594-0.506c0.537-0.152,1.082-0.276,1.618-0.448
				c1.075-0.332,2.142-0.713,3.242-0.982c1.089-0.311,2.164-0.685,3.251-1.009c1.105-0.268,2.174-0.66,3.259-0.986
				c0.536-0.183,1.086-0.321,1.629-0.479c0.54-0.17,1.077-0.34,1.613-0.508c1.079-0.33,2.15-0.657,3.208-0.98
				c1.053-0.348,2.117-0.645,3.161-0.959c1.043-0.318,2.053-0.673,3.094-0.932c1.025-0.292,1.995-0.652,2.998-0.909
				c1.008-0.248,1.942-0.586,2.892-0.848c0.955-0.267,1.878-0.524,2.764-0.771c1.766-0.531,3.481-0.92,4.978-1.343
				c1.507-0.406,2.9-0.687,4.028-0.968c1.126-0.28,2.091-0.42,2.721-0.557c0.643-0.119,1.008-0.16,1.008-0.16l0.623,0.783
				c0,0-0.977,0.785-2.686,2.161c-0.841,0.707-1.936,1.467-3.156,2.391c-1.209,0.941-2.664,1.873-4.232,2.918
				c-0.785,0.521-1.639,1.006-2.503,1.54c-0.869,0.528-1.762,1.081-2.716,1.588c-0.948,0.52-1.921,1.054-2.916,1.599
				c-1.015,0.507-2.053,1.025-3.107,1.552c-2.136,0.996-4.349,2.027-6.665,2.911c-1.148,0.467-2.311,0.924-3.502,1.318
				c-1.188,0.399-2.362,0.863-3.577,1.202c-1.213,0.34-2.419,0.703-3.635,1.014c-1.22,0.288-2.436,0.576-3.643,0.861
				c-2.431,0.484-4.822,0.969-7.163,1.269c-2.329,0.383-4.606,0.54-6.756,0.762c-2.162,0.105-4.222,0.289-6.084,0.273
				c-0.936,0.01-1.832,0.02-2.685,0.028c-0.87-0.022-1.694-0.045-2.47-0.065c-1.541-0.051-2.89-0.038-3.956-0.283
				c-2.157-0.35-3.39-0.549-3.39-0.549L362.304,541.109z"/>
		</g>
		<g>
			<path d="M428.909,347.4c0,0-1.792-0.883-5.151-2.539c-3.382-1.64-8.37-3.584-14.88-5.732c-6.565-1.927-14.667-3.704-24.02-4.411
				c-1.169-0.061-2.358-0.124-3.565-0.187c-0.602-0.032-1.208-0.064-1.818-0.097c-0.611-0.018-1.23,0.019-1.851,0.025
				c-1.24,0.026-2.498,0.053-3.773,0.079c-0.635,0.013-1.275,0.026-1.919,0.039c-0.635,0.046-1.274,0.093-1.917,0.141
				c-1.351,0.105-2.718,0.211-4.103,0.318c-1.307,0.147-2.63,0.295-3.968,0.446c-1.335,0.148-2.722,0.408-4.101,0.608
				c-1.388,0.188-2.773,0.48-4.173,0.764c-5.597,1.127-11.323,2.706-17.029,4.844c-5.706,2.126-11.442,4.703-16.962,7.959
				c-11.056,6.468-21.247,15.511-29.243,26.592c-3.997,5.544-7.272,11.702-9.838,18.202c-0.311,0.817-0.657,1.621-0.943,2.449
				l-0.828,2.501c-0.6,1.651-0.989,3.379-1.477,5.075c-0.492,1.696-0.819,3.444-1.247,5.167c-0.323,1.749-0.645,3.503-0.923,5.269
				c-0.472,3.547-0.827,7.13-0.908,10.75l-0.052,2.717l-0.014,0.68l-0.035,0.873l-0.013,0.186l-0.027,0.369l-0.108,1.48
				l-0.312,3.264c-0.132,1.061-0.236,2.125-0.393,3.185c-1.17,8.476-3.195,16.933-6.363,25.086
				c-3.25,8.107-7.565,15.915-13.059,22.862c-5.438,6.985-12.065,13.015-19.272,17.911l-2.752,1.75l-1.378,0.865l-1.414,0.792
				l-2.827,1.571c-0.954,0.494-1.926,0.944-2.894,1.4c-3.864,1.846-7.837,3.302-11.802,4.609c-7.955,2.548-15.986,4.07-23.85,4.901
				l-0.737,0.09l-0.184,0.022l-0.457,0.045l-0.349,0.022l-1.393,0.091c-0.928,0.061-1.854,0.121-2.777,0.181l-0.698,0.213
				l-0.82,0.172h-1.636c-1.087,0-2.173-0.186-3.255-0.193c-4.189-0.307-8.378-0.854-12.536-2.229
				c-4.123-1.277-8.234-3.174-11.789-5.998c-3.567-2.756-6.552-6.339-8.56-10.264c-2.021-3.924-3.116-8.142-3.428-12.211
				c-0.299-4.076,0.092-8.04,1.048-11.74c1.865-7.406,5.777-13.909,11.168-18.7c5.339-4.797,12.742-7.461,19.411-6.707l0.622,0.047
				l0.309,0.024l0.154,0.012c-0.076-0.011,0.279,0.028,0.286,0.034l0.996,0.181c0.671,0.125,1.272,0.214,2.098,0.421
				c1.576,0.34,2.99,0.786,4.376,1.271c2.776,1.007,5.383,2.402,7.646,4.158c4.556,3.486,7.511,8.59,8.092,13.535
				c0.669,4.956-0.718,9.469-2.793,12.762c-2.085,3.345-4.843,5.523-7.354,6.946c-0.627,0.364-1.266,0.645-1.856,0.946
				c-0.606,0.269-1.202,0.488-1.761,0.716c-0.563,0.215-1.121,0.36-1.637,0.529c-0.129,0.04-0.257,0.08-0.384,0.119l-0.251,0.076
				l-0.184,0.035c-0.248,0.046-0.458,0.101-0.768,0.124c-1.147,0.129-1.987,0.009-2.764-0.146c-0.38-0.074-0.724-0.16-1.029-0.272
				c-0.31-0.093-0.583-0.192-0.818-0.31c-0.482-0.196-0.818-0.404-1.042-0.546c-0.225-0.136-0.338-0.205-0.338-0.205l0.508-0.861
				c0,0,0.104,0.052,0.308,0.153c0.202,0.106,0.503,0.265,0.936,0.402c0.209,0.087,0.454,0.154,0.729,0.214
				c0.271,0.078,0.575,0.129,0.91,0.168c0.652,0.091,1.477,0.113,2.283-0.032c0.194-0.016,0.436-0.096,0.671-0.16l0.18-0.051
				l0.141-0.057l0.351-0.141c0.471-0.196,0.98-0.372,1.486-0.612c0.501-0.253,1.036-0.497,1.574-0.788
				c0.519-0.321,1.084-0.619,1.627-0.994c2.172-1.478,4.474-3.583,6.095-6.563c1.612-2.945,2.513-6.793,1.73-10.795
				c-0.737-3.988-3.244-7.963-7.133-10.656c-3.883-2.724-8.897-4.204-14.233-4.484c-2.639-0.197-5.359,0.32-7.932,1.313
				c-2.572,1.005-5.035,2.536-7.12,4.573c-4.205,4.021-7.302,9.591-8.589,15.765c-0.657,3.079-0.891,6.309-0.566,9.538
				c0.335,3.225,1.287,6.432,2.882,9.337c1.591,2.908,3.859,5.477,6.602,7.492c2.719,2.066,5.973,3.434,9.346,4.379
				c3.371,1.03,6.967,1.311,10.563,1.535c1.804-0.042,3.598,0.008,5.434-0.11c0.922-0.079,1.846-0.158,2.772-0.238l1.391-0.119
				l0.348-0.03c0.061-0.001,0.214-0.028,0.317-0.041l0.688-0.1c7.36-0.923,14.774-2.488,21.984-4.953
				c7.207-2.458,14.198-5.828,20.624-10.163c6.368-4.407,12.17-9.759,16.938-15.982c4.818-6.185,8.617-13.169,11.492-20.498
				c2.889-7.332,4.823-15.037,5.954-22.817c0.284-1.949,0.505-3.896,0.688-5.845l0.121-1.479l0.051-0.666l0.021-0.747l0.082-2.987
				c0.126-3.98,0.548-7.935,1.109-11.85c2.402-15.646,8.659-30.41,17.695-42.462c9.034-12.081,20.576-21.48,32.7-28.006
				c12.143-6.565,24.821-10.307,36.678-12.107c11.875-1.837,22.987-1.737,32.665-0.479c9.688,1.268,17.885,3.733,24.444,6.167
				c6.491,2.609,11.432,5.142,14.657,7.021c3.201,1.921,4.909,2.945,4.909,2.945L428.909,347.4z"/>
		</g>
		<g>
			<path d="M499.837,441.729c0,0-0.604-0.421-1.773-1.235c-1.166-0.809-2.908-2.049-5.124-3.705
				c-2.225-1.652-4.933-3.744-8.04-6.307c-3.119-2.551-6.602-5.612-10.357-9.208c-7.507-7.179-16.199-16.456-24.828-28.184
				c-4.335-5.845-8.696-12.262-12.953-19.245c-4.257-6.984-8.325-14.573-12.235-22.654c-3.897-8.086-7.61-16.683-11.033-25.74
				c-3.424-9.058-6.453-18.606-9.218-28.512c-2.749-9.912-5.174-20.203-7.23-30.805c-2.103-10.596-3.61-21.534-4.834-32.69
				c-1.189-11.164-1.983-22.557-2.244-34.168c-0.121-5.817-0.13-11.649,0.141-17.686c0.083-1.523,0.183-3.034,0.351-4.703
				c0.044-0.424,0.093-0.857,0.161-1.354l0.129-0.841c0.069-0.35,0.1-0.661,0.379-1.609c-3.279,2.227,6.081-7.02,4.938-5.542
				c-0.734,0.239,2.647-1.045,3.932-0.764c0.469,0.017,0.792,0.046,1.192,0.092l0.667,0.104l0.517,0.1l0.443,0.095l0.703,0.168
				l4.31,1.146c1.345,0.356,2.673,0.693,4.008,1.013c10.65,2.559,21.757,4.027,33.034,4.729c11.278,0.711,22.714,0.631,34.154,0.045
				c22.902-1.046,45.829-4.278,68.175-8.723c11.167-2.274,22.224-4.731,33.106-7.399l1.02-0.249
				c-0.582,0.121,1.078-0.237,1.004-0.213l0.262-0.04l0.525-0.081l2.096-0.323c1.412-0.209,2.709-0.455,4.406-0.578
				c1.604-0.141,3.206-0.282,4.805-0.423c1.533-0.036,3.064-0.071,4.592-0.106c6.096-0.006,12.142,0.417,17.988,1.485l2.198,0.361
				l2.165,0.47c1.438,0.324,2.88,0.625,4.304,0.97c2.812,0.803,5.647,1.5,8.361,2.478c5.51,1.747,10.723,4.053,15.766,6.485
				c10.013,5.012,19.215,10.89,27.443,17.443c8.24,6.537,15.692,13.53,22.234,20.87c6.531,7.349,12.227,14.953,17.157,22.584
				c4.912,7.643,9.101,15.3,12.412,22.89c0.413,0.948,0.823,1.891,1.23,2.827c0.374,0.952,0.745,1.897,1.113,2.835
				c0.365,0.939,0.728,1.871,1.088,2.797c0.325,0.94,0.648,1.874,0.969,2.801c0.298,0.869,0.594,1.732,0.888,2.589
				c0.326,0.849,0.65,1.692,0.971,2.528c0.665,1.687,1.342,3.348,2.029,4.975c5.537,13.003,11.138,24.061,16.577,32.603
				c2.72,4.271,5.365,7.937,7.852,10.966c2.494,3.023,4.872,5.366,6.949,7.073c1.013,0.898,2.015,1.524,2.841,2.142
				c0.873,0.525,1.609,0.983,2.219,1.315c1.257,0.594,1.905,0.9,1.905,0.9l-0.326,0.945c0,0-0.696-0.282-2.045-0.827
				c-0.656-0.309-1.448-0.74-2.393-1.239c-0.889-0.587-1.978-1.188-3.073-2.053c-4.537-3.262-10.254-9.193-16.16-17.659
				c-5.943-8.443-12.176-19.347-18.27-32.34c-1.497-3.258-3.08-6.616-4.401-10.209c-0.342-0.883-0.687-1.772-1.035-2.667
				c-0.381-0.881-0.766-1.769-1.153-2.663c-0.389-0.893-0.781-1.791-1.176-2.696c-0.428-0.89-0.858-1.785-1.292-2.687
				c-3.476-7.205-7.701-14.508-12.677-21.742c-4.98-7.229-10.695-14.405-17.19-21.292c-6.507-6.873-13.773-13.474-21.793-19.538
				c-7.996-6.096-16.868-11.482-26.39-16.002c-4.795-2.18-9.721-4.238-14.864-5.807c-2.541-0.882-5.175-1.483-7.79-2.199
				c-1.32-0.301-2.654-0.559-3.985-0.842l-2.001-0.409l-2.024-0.303c-5.389-0.917-10.911-1.219-16.447-1.146
				c-1.384,0.049-2.771,0.098-4.161,0.147c-1.376,0.138-2.754,0.275-4.135,0.414c-1.377,0.095-2.772,0.373-4.165,0.601l-2.092,0.352
				l-0.523,0.088l-0.262,0.044c-0.104,0.015-0.029,0.003-0.183,0.041l-1.03,0.267c-10.981,2.876-22.169,5.518-33.517,7.856
				c-22.694,4.646-46.058,8.084-69.603,9.294c-11.769,0.563-23.577,0.562-35.301-0.238c-11.718-0.797-23.367-2.395-34.666-5.177
				c-2.819-0.683-5.632-1.492-8.375-2.223c-0.338-0.085-0.68-0.168-0.99-0.225c-0.161-0.032-0.298-0.045-0.398-0.054
				c0.036,0.044,0.278-0.114,0.113-0.039c-0.233,0.164,0.718-0.66,0.343-0.347c-0.059,0.207-0.123,0.587-0.168,0.916l-0.128,1.041
				c-0.15,1.404-0.252,2.827-0.339,4.248c-0.333,5.691-0.407,11.385-0.366,17.038c0.098,11.311,0.719,22.482,1.732,33.43
				c2.037,21.898,5.688,42.908,10.644,62.446c4.956,19.541,11.25,37.6,18.42,53.66c7.156,16.07,15.185,30.125,23.26,41.907
				c8.059,11.804,16.144,21.334,23.22,28.752c7.094,7.411,13.148,12.754,17.365,16.273c2.108,1.767,3.745,3.074,4.87,3.952
				c1.12,0.878,1.698,1.33,1.698,1.33L499.837,441.729z"/>
		</g>
		<g>
			<path d="M566.78,401.871c4.45-2.567,8.931-5.074,13.43-7.555c4.49-2.499,9.044-4.87,13.601-7.242
				c4.557-2.37,9.126-4.722,13.724-7.018c4.609-2.27,9.229-4.521,13.872-6.727c4.635-2.224,9.296-4.396,13.964-6.559
				c4.668-2.164,9.391-4.202,14.108-6.263c4.73-2.03,9.456-4.076,14.223-6.032c4.751-1.993,9.541-3.904,14.329-5.825
				c4.821-1.836,9.64-3.682,14.507-5.418c4.846-1.788,9.743-3.455,14.632-5.148c4.92-1.616,9.825-3.28,14.798-4.778
				c2.482-0.761,4.952-1.556,7.458-2.255l7.521-2.083l7.583-1.925c2.522-0.661,5.093-1.185,7.638-1.784l3.832-0.861l3.865-0.768
				c2.579-0.507,5.146-1.052,7.763-1.45c2.613-0.408,5.196-0.915,7.838-1.238c2.641-0.326,5.269-0.7,7.925-0.982l8.025-0.667
				c2.711-0.098,5.426-0.141,8.14-0.208l13.907-0.341l-6.16,12.729c-3.62,7.48-7.642,14.737-12.153,21.64
				c-1.107,1.741-2.319,3.399-3.476,5.103l-1.756,2.538l-1.843,2.465c-1.239,1.634-2.454,3.291-3.717,4.904l-3.874,4.763
				c-1.269,1.61-2.65,3.11-3.983,4.657c-1.349,1.531-2.666,3.097-4.075,4.566l-4.169,4.468l-4.33,4.296
				c-5.826,5.664-11.822,11.131-18.053,16.28c-6.218,5.164-12.563,10.16-19.095,14.872c-6.533,4.71-13.142,9.303-19.963,13.555
				c-6.811,4.268-13.736,8.333-20.774,12.201c-7.045,3.868-14.163,7.547-21.522,10.98l-2.814,1.283l-2.751,1.191l-1.356,0.584
				l-0.683,0.292l-0.81,0.289l-3.247,1.125l-1.627,0.542l-1.521,0.417l-3.036,0.822c-1.013,0.29-2.021,0.528-3.024,0.743
				l-3.015,0.676c-8.029,1.71-16.006,2.89-23.982,3.843c-7.975,0.935-15.938,1.642-23.924,1.994
				c-7.984,0.374-15.964,0.559-23.997,0.419c-2.016-0.059-4.012-0.065-6.045-0.187l-3.036-0.147l-0.189-0.01
				c0.387,0.002,0.054,0,0.117,0l-0.092-0.002l-0.369-0.008l-0.738-0.015l-0.983,0.044c-3.183,0.274-6.896,1.189-10.475,2.29
				c-7.236,2.271-14.477,5.249-21.648,8.354c-7.194,3.087-14.376,6.306-21.541,9.582c-7.174,3.258-14.403,6.444-21.64,9.598
				l-0.456-0.891c13.989-7.208,27.802-14.78,41.945-21.747c7.08-3.463,14.23-6.814,21.662-9.548
				c3.729-1.323,7.521-2.546,11.528-3.072c2.081-0.271,4.017-0.105,5.978-0.115c1.96,0.048,3.925-0.018,5.887-0.03
				c7.853-0.147,15.705-0.613,23.536-1.267c7.831-0.667,15.651-1.499,23.425-2.641c7.771-1.138,15.515-2.498,23.137-4.33
				c3.803-0.922,7.597-1.968,11.26-3.242c1.82-0.66,3.649-1.265,5.432-2.139c1.802-0.807,3.576-1.614,5.338-2.479
				c7.057-3.435,13.982-7.16,20.804-11.055c6.822-3.898,13.533-7.99,20.121-12.271s13.05-8.751,19.378-13.403
				c6.34-4.637,12.48-9.539,18.485-14.593c6.02-5.04,11.788-10.372,17.376-15.875c5.609-5.486,10.908-11.278,15.986-17.248
				l3.74-4.536c1.218-1.535,2.385-3.109,3.58-4.662l1.776-2.341l1.686-2.406c1.109-1.614,2.28-3.188,3.34-4.833
				c4.329-6.532,8.168-13.369,11.629-20.39l0.8,1.279l-7.63,0.132l-7.623,0.51c-2.538,0.228-5.068,0.547-7.603,0.816
				c-2.536,0.265-5.05,0.719-7.577,1.069c-2.529,0.339-5.035,0.83-7.547,1.28l-3.768,0.683l-3.75,0.778
				c-2.495,0.544-5.007,1.01-7.489,1.617l-7.459,1.761c-4.947,1.279-9.906,2.521-14.817,3.939c-4.933,1.343-9.817,2.856-14.716,4.32
				c-4.875,1.543-9.758,3.061-14.603,4.701c-4.862,1.585-9.683,3.297-14.515,4.972c-4.814,1.729-9.632,3.448-14.419,5.252
				c-4.801,1.766-9.568,3.625-14.34,5.467c-4.765,1.862-9.519,3.752-14.258,5.68c-4.737,1.932-9.471,3.875-14.182,5.872
				c-4.719,1.979-9.418,4.002-14.109,6.047c-4.691,2.043-9.37,4.114-14.033,6.221c-9.327,4.209-18.619,8.508-27.806,13.002
				L566.78,401.871z"/>
		</g>
		<g>
			<circle fill="#FFFFFF" cx="598.477" cy="283.673" r="71"/>
			<path d="M528,283.66c0,0,0.002,0.436,0.028,1.279c0.043,0.839,0.014,2.108,0.178,3.71c0.243,3.208,0.745,7.99,2.472,13.788
				c1.707,5.779,4.52,12.664,9.37,19.501c2.381,3.436,5.285,6.824,8.661,10.036c3.36,3.227,7.272,6.205,11.627,8.787
				c4.358,2.576,9.158,4.764,14.293,6.397c5.152,1.592,10.653,2.514,16.284,2.803c1.406,0.088,2.83,0.053,4.25,0.075
				c0.711-0.03,1.425-0.059,2.141-0.089l1.073-0.042l1.021-0.094c0.767-0.067,1.537-0.134,2.308-0.202
				c0.753-0.076,1.396-0.2,2.098-0.295c1.356-0.166,2.805-0.487,4.228-0.757c5.692-1.229,11.276-3.257,16.553-5.972
				c5.288-2.699,10.224-6.203,14.611-10.321c2.204-2.049,4.268-4.257,6.199-6.579l1.407-1.777c0.465-0.596,0.886-1.227,1.333-1.836
				c0.458-0.602,0.886-1.226,1.294-1.863c0.409-0.637,0.858-1.247,1.237-1.904c6.342-10.327,9.872-22.407,9.813-34.631l-0.048-2.386
				c-0.014-0.413-0.005-0.922-0.037-1.256l-0.081-1.058c-0.066-0.72-0.066-1.379-0.173-2.15l-0.272-2.267
				c-0.092-0.755-0.251-1.5-0.37-2.25l-0.19-1.125l-0.249-1.112c-0.164-0.741-0.295-1.492-0.481-2.228L658,265.638
				c-1.672-5.839-4.138-11.445-7.305-16.615c-1.63-2.551-3.34-5.059-5.268-7.391c-1.93-2.326-4.006-4.522-6.196-6.591
				c-4.393-4.12-9.334-7.624-14.627-10.323c-5.275-2.731-10.87-4.746-16.565-5.977c-1.429-0.27-2.851-0.59-4.288-0.76
				c-0.717-0.096-1.431-0.22-2.148-0.294c-0.719-0.065-1.437-0.131-2.151-0.196l-0.537-0.05l-0.269-0.025l-0.134-0.012
				c-0.069-0.005,0.132-0.008-0.021-0.009l-1.148-0.042c-0.765-0.028-1.527-0.055-2.287-0.083c-1.403,0.026-2.731-0.015-4.146,0.073
				c-5.632,0.294-11.139,1.212-16.289,2.817c-5.137,1.636-9.938,3.826-14.296,6.405c-4.359,2.581-8.264,5.569-11.625,8.796
				c-3.377,3.211-6.276,6.604-8.658,10.041c-4.85,6.839-7.66,13.727-9.367,19.505c-1.724,5.803-2.23,10.572-2.474,13.796
				c-0.164,1.615-0.128,2.861-0.171,3.698c-0.026,0.838-0.028,1.271-0.028,1.271V283.66z M527,283.673c0,0-0.002-0.438,0.018-1.288
				c0.037-0.849-0.003-2.113,0.15-3.752c0.206-3.277,0.725-8.11,2.363-14.041c1.624-5.912,4.354-12.967,9.064-20.139
				c4.674-7.157,11.303-14.459,20.074-20.361c4.384-2.934,9.277-5.51,14.596-7.539c5.315-2.04,11.082-3.421,17.088-4.141
				c1.499-0.195,3.04-0.267,4.569-0.391c1.531-0.018,3.014-0.136,4.61-0.073c0.776,0.018,1.555,0.036,2.335,0.054
				c0.781,0.027,1.561,0.106,2.345,0.158c1.571,0.081,3.136,0.317,4.714,0.507c3.139,0.486,6.304,1.093,9.417,2.019
				c1.573,0.405,3.104,0.975,4.66,1.485c0.764,0.296,1.529,0.593,2.296,0.89c0.771,0.288,1.53,0.609,2.279,0.959
				c12.104,5.302,23.096,14.308,30.806,25.89c1.944,2.882,3.633,5.944,5.16,9.092c1.519,3.156,2.745,6.455,3.801,9.809
				c1.042,3.363,1.771,6.821,2.329,10.305c0.522,3.488,0.75,7.058,0.801,10.558c0.006,14.147-4.328,28.228-12.089,39.765
				c-7.71,11.583-18.702,20.588-30.807,25.89c-0.749,0.351-1.508,0.672-2.28,0.959c-0.767,0.297-1.532,0.594-2.296,0.89
				c-1.557,0.51-3.087,1.08-4.66,1.485c-3.112,0.926-6.277,1.533-9.417,2.019c-1.579,0.19-3.139,0.425-4.722,0.507
				c-0.786,0.051-1.577,0.131-2.353,0.158c-0.772,0.018-1.543,0.036-2.312,0.053c-1.568,0.064-3.1-0.055-4.636-0.074
				c-1.527-0.125-3.052-0.195-4.552-0.39c-6.007-0.719-11.774-2.101-17.089-4.141c-5.319-2.029-10.213-4.605-14.597-7.54
				c-8.77-5.902-15.399-13.204-20.073-20.361c-4.711-7.172-7.442-14.228-9.066-20.139c-1.638-5.934-2.159-10.755-2.366-14.048
				c-0.153-1.652-0.106-2.894-0.143-3.741c-0.02-0.844-0.018-1.279-0.018-1.279V283.673z"/>
		</g>
		<g>
			<circle cx="621.491" cy="279.913" r="17.999"/>
			<path d="M604,279.888c0,0,0.028,0.44,0.089,1.267c0.012,0.423,0.095,0.908,0.202,1.467c0.056,0.282,0.092,0.584,0.17,0.906
				c0.084,0.322,0.207,0.657,0.323,1.01c0.105,0.358,0.252,0.722,0.432,1.093c0.179,0.371,0.324,0.773,0.546,1.161
				c0.215,0.391,0.469,0.781,0.726,1.182c0.293,0.376,0.598,0.766,0.912,1.168c1.312,1.543,3.162,2.966,5.377,3.817
				c1.115,0.41,2.299,0.699,3.513,0.801c0.301,0.017,0.605,0.034,0.911,0.052c0.305-0.014,0.612-0.029,0.922-0.043
				c0.6,0.007,1.222-0.152,1.81-0.226c0.296-0.043,0.597-0.153,0.888-0.224l0.436-0.117l0.216-0.057
				c-0.098,0,0.256-0.01-0.212-0.002l0.036-0.01l0.072-0.021l0.144-0.043c0.721-0.232,1.719-0.444,1.969-0.746l0.612-0.402
				l0.718-0.493c0.24-0.141,0.452-0.359,0.668-0.539c0.213-0.189,0.445-0.319,0.635-0.539l0.583-0.583
				c0.191-0.191,0.347-0.434,0.529-0.621c0.182-0.189,0.349-0.392,0.493-0.622c0.148-0.223,0.313-0.417,0.447-0.641
				c0.586-0.851,0.961-1.796,1.356-2.648c0.151-0.458,0.317-0.891,0.413-1.347c0.176-0.419,0.213-0.886,0.325-1.314
				c0.019-0.457-0.083-0.875-0.068-1.324c0.026-0.22-0.191-0.438-0.191-0.665v-0.336l0.241-0.167l0.122-0.083l0.065-0.042
				l0.033-0.021c0.006,0.195,0.005-0.468,0.029,0.433l-0.029-1.325l-0.005-0.331l-0.003-0.166c-0.002-0.043-0.008-0.035-0.012-0.055
				c-0.018-0.054-0.031-0.108-0.04-0.163s-0.013-0.11-0.012-0.167l0.003-0.086l-0.038-0.159c-0.032-0.219-0.057-0.442-0.074-0.669
				c-0.111-0.429-0.153-0.895-0.324-1.318c-0.079-0.466-0.26-0.894-0.408-1.355c-0.376-0.871-0.778-1.798-1.353-2.667
				c-0.135-0.225-0.301-0.419-0.45-0.642c-0.146-0.23-0.314-0.433-0.497-0.623c-0.18-0.192-0.336-0.438-0.529-0.627l-0.587-0.583
				c-0.825-0.717-1.735-1.5-2.8-1.995c-0.519-0.313-1.079-0.482-1.647-0.717l-0.107-0.042l-0.054-0.021l-0.027-0.01
				c0.47-0.016,0.109-0.009,0.204-0.014l-0.294-0.056l-0.585-0.111c-0.364-0.068-0.726-0.137-1.086-0.204
				c-0.507-0.066-0.984-0.253-1.624-0.238c-0.31-0.014-0.618-0.027-0.923-0.042c-0.306,0.02-0.61,0.039-0.911,0.058
				c-1.214,0.107-2.402,0.394-3.514,0.813c-0.535,0.238-1.075,0.476-1.593,0.739c-0.495,0.291-0.985,0.588-1.43,0.922
				c-0.425,0.352-0.891,0.664-1.272,1.036c-0.383,0.371-0.755,0.744-1.077,1.134c-1.368,1.529-2.107,3.212-2.612,4.607
				c-0.117,0.354-0.237,0.689-0.321,1.011c-0.079,0.323-0.118,0.634-0.173,0.919c-0.108,0.572-0.188,1.061-0.198,1.464
				c-0.06,0.803-0.088,1.231-0.088,1.231V279.888z M603,279.913c0,0,0.015-0.454,0.05-1.304c-0.001-0.427,0.067-0.947,0.162-1.559
				c0.049-0.305,0.08-0.637,0.152-0.983c0.085-0.344,0.175-0.71,0.271-1.096c0.42-1.528,1.082-3.379,2.311-5.24
				c1.205-1.862,2.908-3.776,5.181-5.327c2.287-1.539,5.072-2.689,8.276-3.097c3.063-0.372,6.541,0.036,9.708,1.412
				c1.598,0.675,3.09,1.638,4.489,2.744c1.376,1.142,2.589,2.5,3.637,3.996c1.021,1.518,1.808,3.199,2.388,4.959
				c0.547,1.741,0.812,3.748,0.861,5.443c-0.048,1.964-0.313,3.748-0.857,5.545c-0.58,1.76-1.368,3.442-2.389,4.96
				c-1.048,1.496-2.261,2.854-3.637,3.996c-1.399,1.106-2.891,2.069-4.49,2.744c-1.606,0.66-3.215,1.169-4.914,1.361
				c-0.859,0.156-1.622,0.139-2.405,0.182c-0.863,0-1.626-0.058-2.422-0.134c-3.139-0.401-5.972-1.557-8.244-3.093
				c-2.273-1.552-3.977-3.465-5.182-5.328c-1.229-1.861-1.891-3.712-2.311-5.24c-0.096-0.386-0.186-0.752-0.271-1.096
				c-0.073-0.348-0.106-0.687-0.155-0.996c-0.096-0.623-0.162-1.148-0.16-1.556c-0.034-0.827-0.049-1.269-0.049-1.269V279.913z"/>
		</g>
		<g>
			<path d="M725.447,315.282c0,0,0.021-0.164,0.116-0.467c0.097-0.282,0.262-0.81,0.472-1.231c0.223-0.463,0.51-1.045,0.884-1.515
				c0.185-0.249,0.391-0.511,0.622-0.785c0.231-0.274,0.473-0.473,0.744-0.712c0.269-0.226,0.551-0.407,0.86-0.613
				c0.309-0.185,0.626-0.313,0.971-0.469c0.671-0.262,1.433-0.415,2.201-0.437c0.775,0.02,1.581,0.104,2.348,0.423
				c0.776,0.279,1.503,0.722,2.154,1.275c0.665,0.532,1.162,1.238,1.598,1.942c0.409,0.716,0.639,1.503,0.78,2.271
				c0.101,0.765,0.025,1.535-0.1,2.242c-0.139,0.714-0.472,1.355-0.805,1.944c-0.197,0.301-0.345,0.563-0.574,0.831
				c-0.216,0.267-0.468,0.498-0.685,0.714c-0.402,0.42-0.939,0.801-1.343,1.084c-0.371,0.279-0.856,0.517-1.104,0.657
				c-0.274,0.142-0.42,0.218-0.42,0.218l-0.985,0.168c0,0-0.084-0.166-0.205-0.454c-0.119-0.287-0.269-0.705-0.512-1.158
				c-0.121-0.226-0.211-0.491-0.375-0.728c-0.163-0.237-0.322-0.491-0.486-0.748c-0.195-0.234-0.38-0.487-0.586-0.723
				c-0.232-0.212-0.419-0.477-0.686-0.654c-0.237-0.211-0.485-0.411-0.758-0.571c-0.256-0.184-0.54-0.32-0.804-0.473
				c-0.283-0.115-0.543-0.269-0.813-0.366c-0.266-0.109-0.524-0.2-0.771-0.266c-0.489-0.137-0.91-0.265-1.208-0.311
				c-0.3-0.063-0.449-0.093-0.463-0.091L725.447,315.282z"/>
		</g>
		<g>
			<path d="M338.887,607.439c0,0,0.497-0.23,1.432-0.601c0.932-0.341,2.439-0.88,4.379-1.232c1.954-0.372,4.473-0.551,7.424-0.137
				c1.468,0.206,3.01,0.612,4.55,1.094c1.536,0.483,3.027,1.112,4.384,1.565c1.358,0.478,2.481,0.746,3.37,0.731
				c0.877-0.028,1.572-0.187,2.518-0.535c0.928-0.35,2.085-0.848,3.331-1.573c0.303-0.157,0.629-0.368,0.951-0.563
				c0.327-0.188,0.651-0.364,0.992-0.587l1.014-0.633c-0.649,0.354-0.159,0.083-0.294,0.155l0.037-0.025l0.074-0.052l0.147-0.103
				l0.295-0.205l0.592-0.413c0.521-0.326,0.491-0.438,0.628-0.585c0.11-0.145,0.231-0.231,0.425-0.469
				c0.168-0.206,0.376-0.378,0.525-0.589c0.146-0.214,0.297-0.418,0.456-0.615c0.124-0.22,0.241-0.439,0.374-0.646
				c0.135-0.206,0.196-0.452,0.311-0.664c0.134-0.201,0.183-0.447,0.281-0.666c0.108-0.215,0.162-0.455,0.223-0.69
				c0.463-1.864,0.517-4.033-0.289-6.242c-0.674-2.234-2.107-4.408-3.99-6.342l-0.742-0.702c-0.243-0.24-0.543-0.428-0.797-0.666
				c-0.5-0.482-1.116-0.858-1.674-1.299c-1.208-0.777-2.467-1.523-3.825-2.162c-2.704-1.269-5.664-2.217-8.652-2.854
				c-0.744-0.18-1.488-0.342-2.241-0.443c-0.376-0.061-0.749-0.121-1.118-0.181l-0.556-0.097l-0.035-0.007
				c-3.62-0.476-0.324,0.08-2.327-0.403c-2.101-0.669-3.533-3.047-3.423-3.064c-0.298-0.577-0.487-1.258-0.51-1.398
				c-0.062-0.256-0.117-0.602-0.136-0.792l-0.029-0.431c-0.007-0.163-0.006-0.277-0.003-0.341l0.009-0.249
				c0.038-0.556,0.097-0.794,0.143-1.021c0.192-0.809,0.354-1.178,0.519-1.636c0.161-0.404,0.319-0.805,0.477-1.201
				c0.313-0.762,0.604-1.486,0.92-2.188c2.461-5.652,4.513-10.362,5.948-13.659c0.688-1.687,1.357-3.009,1.742-3.924
				c0.41-0.912,0.655-1.399,0.655-1.399l0.994,0.113c0,0-0.181,2.049-0.655,5.618c-0.492,3.564-1.261,8.666-2.678,14.674
				c-0.332,1.485-0.763,3.098-1.031,4.613c-0.012,0.086-0.021,0.172-0.022,0.218c-0.003,0.009,0.008,0.052-0.011-0.056
				c-0.001-0.003-0.019-0.076-0.051-0.137c0.018,0.013-0.152-0.455-0.41-0.529c-0.243-0.055,0.192-0.215-0.254-0.215h0.04
				l0.639,0.178c0.428,0.002,0.859,0.092,1.293,0.094c0.869-0.016,1.75,0.076,2.645,0.144c3.571,0.227,7.342,0.879,11.068,2.164
				c1.872,0.614,3.697,1.48,5.489,2.443c1.759,1.026,3.482,2.187,5.044,3.58c1.547,1.401,2.991,2.962,4.194,4.72
				c1.188,1.763,2.167,3.688,2.852,5.726c1.37,4.07,1.369,8.631-0.1,12.634c-0.729,2.001-1.819,3.849-3.165,5.44
				c-1.349,1.568-3.004,2.888-4.711,3.926c-0.43,0.244-0.857,0.487-1.284,0.729c-0.436,0.212-0.871,0.422-1.303,0.632
				c-0.867,0.413-1.745,0.796-2.631,1.136c-1.767,0.686-3.579,1.224-5.425,1.441c-1.84,0.223-3.712,0.09-5.405-0.408
				c-1.689-0.509-3.179-1.292-4.519-2.075c-2.669-1.591-5.012-3.001-7.31-3.813c-2.285-0.813-4.396-1.168-6.146-1.298
				c-1.761-0.126-3.126-0.098-4.083-0.048c-0.959,0.061-1.471,0.093-1.471,0.093L338.887,607.439z"/>
		</g>
		<g>
			<path d="M276.187,554.179l-0.597-0.707c-0.197-0.241-0.382-0.538-0.575-0.811c-0.357-0.559-0.656-1.13-0.934-1.692
				c-0.274-0.554-0.541-1.086-0.836-1.58c-0.157-0.242-0.291-0.495-0.462-0.726l-0.502-0.691l1.223,0.457l-7.395,2.577
				c-1.234,0.438-2.478,0.841-3.72,1.253l-3.77,1.076l-7.564,2.142c-2.546,0.604-5.091,1.25-7.653,1.82
				c-10.252,2.195-20.637,4.057-31.104,5.072l-3.925,0.414c-1.309,0.133-2.619,0.207-3.93,0.313c-2.621,0.19-5.245,0.412-7.87,0.576
				l-7.876,0.383l-2.034,0.094l-1.943,0.051l-1.943,0.052c-0.641,0.019-1.289,0.043-2.006,0.011l-4.19-0.115l-4.105-0.274
				c-1.369-0.067-2.736-0.277-4.105-0.414c-1.371-0.133-2.738-0.341-4.105-0.565c-5.47-0.858-10.93-2.151-16.274-3.987
				c-5.331-1.852-10.592-4.176-15.478-7.229c-4.901-3.021-9.497-6.626-13.615-10.746c-8.29-8.212-14.402-18.588-17.997-29.641
				c-3.438-11.125-4.42-22.869-3.099-34.309c0.637-5.726,1.854-11.382,3.631-16.871c1.787-5.479,4.021-10.853,6.966-15.856
				c2.917-5.015,6.355-9.747,10.282-14.068c3.923-4.324,8.388-8.181,13.217-11.504c9.657-6.654,20.946-10.988,32.417-12.406
				l2.148-0.271l0.269-0.033l0.43-0.044l0.484-0.037l0.968-0.075l1.937-0.15l2.199-0.097l2.227-0.079l2.145,0.015
				c1.427-0.012,2.861,0.068,4.294,0.15c5.73,0.33,11.485,1.279,17.076,2.96c11.221,3.197,21.656,9.756,29.338,18.677
				c1.932,2.219,3.692,4.585,5.242,7.081c1.566,2.482,2.952,5.079,4.095,7.78c1.15,2.694,2.135,5.462,2.833,8.309
				c0.685,2.848,1.163,5.742,1.381,8.657c0.925,11.641-2.321,23.646-9.271,32.831c-1.741,2.278-3.638,4.425-5.742,6.323
				c-2.083,1.916-4.297,3.664-6.643,5.17c-4.651,3.084-9.723,5.328-14.911,6.869c-5.185,1.565-10.476,2.486-15.755,2.892
				c-5.287,0.363-10.548,0.262-15.746-0.167l0.004-1c10.289-0.021,20.689-1.264,30.324-4.887c9.605-3.529,18.421-9.638,24.152-18.14
				c5.775-8.44,8.186-19.005,6.963-29.137c-1.179-10.152-5.771-19.82-12.681-27.324c-6.9-7.538-16.056-12.901-25.919-15.563
				c-4.923-1.381-10.019-2.128-15.135-2.323c-1.279-0.049-2.559-0.099-3.84-0.061l-1.921,0.021l-1.91,0.104
				c-0.638,0.039-1.271,0.062-1.912,0.114l-1.933,0.19c-0.633,0.069-1.312,0.114-1.909,0.204l-1.898,0.277
				c-10.117,1.507-19.908,5.257-28.266,11.142c-4.181,2.927-8.05,6.311-11.452,10.121c-3.405,3.807-6.394,7.983-8.93,12.419
				c-5.025,8.891-8.342,18.782-9.539,28.948c-1.255,10.153-0.451,20.57,2.495,30.368c2.984,9.768,8.137,18.924,15.273,26.264
				c7.087,7.385,15.96,12.972,25.556,16.579c9.604,3.624,19.875,5.409,30.129,5.884c5.166,0.214,10.33,0.117,15.503,0.113
				c2.584-0.045,5.167-0.146,7.751-0.217c1.292-0.047,2.584-0.061,3.875-0.134l3.87-0.232c2.578-0.179,5.164-0.259,7.735-0.518
				l7.719-0.721c2.574-0.228,5.128-0.636,7.693-0.945c2.563-0.327,5.129-0.644,7.67-1.114l7.644-1.295l7.586-1.594l3.792-0.805
				l3.753-0.966l7.507-1.937l0.385-0.1l0.187,0.313l0.49,0.82c0.165,0.271,0.291,0.565,0.438,0.848
				c0.275,0.573,0.507,1.157,0.732,1.728c0.224,0.563,0.459,1.112,0.732,1.622c0.15,0.246,0.27,0.491,0.441,0.741l0.533,0.751
				L276.187,554.179z"/>
		</g>
		<g>
			<path d="M465.968,458.907c1.007,3.413,2.137,6.642,3.479,9.868c1.346,3.202,2.742,6.366,4.305,9.455
				c1.533,3.101,3.247,6.113,4.921,9.137c1.7,3.011,3.462,5.987,5.307,8.922c1.827,2.942,3.756,5.826,5.638,8.738
				c1.895,2.905,3.829,5.79,5.792,8.66c1.969,2.868,3.967,5.722,5.984,8.567l3.039,4.267l2.999,4.303l12.1,17.304
				c2.006,2.92,4.038,5.844,5.946,8.874c1.929,3.018,3.832,6.079,5.675,9.234c1.843,3.156,3.632,6.396,5.29,9.84
				c0.825,1.729,1.631,3.484,2.362,5.357c0.383,0.907,0.709,1.904,1.062,2.857c0.313,1.016,0.655,1.981,0.918,3.065
				c0.563,2.098,1.024,4.383,1.122,6.988c0.085,2.577-0.167,5.571-1.403,8.676c-1.196,3.104-3.542,6.019-6.099,7.856
				c-2.562,1.883-5.16,2.914-7.562,3.637l-0.472,0.143l-0.566,0.08l-3.853,0.546c-1.263,0.199-2.687,0.267-4.025,0.385l-1.025,0.072
				l-1.095,0.018l-2.19,0.02c-0.746-0.009-1.574-0.093-2.357-0.147l-1.189-0.099l-1.277-0.214c-1.665-0.254-3.49-0.766-5.101-1.379
				c-0.787-0.315-1.647-0.654-2.256-0.968l-0.997-0.481l-0.814-0.41l-0.781-0.396l-0.626-0.297l-0.621-0.298l-0.556-0.22
				c-0.732-0.33-1.484-0.517-2.262-0.759c-0.848-0.167-1.616-0.425-2.585-0.53l-1.386-0.22c-0.475-0.063-0.996-0.088-1.492-0.136
				c-1-0.088-1.993-0.192-3.077-0.195l-1.591-0.046l-0.796-0.024l-0.199,0.019l-0.1,0.023h-0.049c-0.476,0,0.593-0.046,0.462-0.041
				l-0.444,0.012l-0.222,0.007c-0.058,0.004-0.202,0.004-0.118,0.009c0.068,0.009,0.137,0.009,0.205,0.001
				c0.05-0.001,0.173-0.035,0.158-0.032l-0.154,0.041l-0.156,0.032l-0.221,0.069c-0.16,0.054-0.285,0.075-0.486,0.155
				c-0.698,0.231-1.621,0.632-2.553,1.046l-6.333,2.961c-2.293,1.047-4.728,2.114-7.439,3.026c-2.713,0.897-5.656,1.708-9.044,1.964
				c-1.668,0.149-3.468,0.11-5.282-0.094c-1.825-0.264-3.69-0.682-5.463-1.407c-1.795-0.673-3.439-1.641-4.962-2.688
				c-0.721-0.548-1.442-1.112-2.104-1.7l-0.941-0.906l-0.465-0.459l-0.116-0.114l-0.277-0.296l-0.036-0.042l-0.145-0.169
				l-1.176-1.38c-0.559-0.716-1.104-1.445-1.632-2.182c-0.459-0.704-0.872-1.396-1.297-2.1c-0.398-0.719-0.755-1.468-1.121-2.205
				c-1.38-3.007-2.187-6.217-2.535-9.244c-0.672-6.104,0.107-11.383,0.832-16.265c0.825-4.878,1.798-9.408,2.491-13.891
				c0.726-4.479,1.19-8.879,1.342-13.285c0.063-2.2,0.044-4.398-0.049-6.594c-0.037-1.1-0.08-2.2-0.179-3.297
				c-0.066-1.102-0.185-2.198-0.316-3.295l-0.092-0.824l-0.023-0.206l-0.005-0.052c0.009,0.036-0.028-0.154,0.018,0.068l-0.017-0.11
				l-0.068-0.439l-0.272-1.76l-0.544-3.519l-0.544-3.518c-0.19-1.16-0.336-2.384-0.587-3.457c-0.451-2.212-0.931-4.425-1.354-6.663
				c-0.092-0.565-0.218-1.117-0.375-1.657l-0.433-1.64l-0.865-3.294c-0.249-1.115-0.698-2.164-1.045-3.251l-1.114-3.246
				l-2.581-6.565l-2.533-6.727l-2.333-6.814c-0.402-1.127-0.763-2.27-1.072-3.429l-0.976-3.457c-0.656-2.3-1.298-4.599-1.904-6.905
				l0.938-0.348l2.627,6.593c0.897,2.188,1.694,4.419,2.698,6.56l2.887,6.478l3.085,6.391l3.107,6.408l1.423,3.283
				c0.451,1.104,1.003,2.168,1.357,3.311l1.181,3.38l0.59,1.691c0.209,0.56,0.388,1.129,0.531,1.708l1.859,6.912
				c0.607,2.307,1.021,4.632,1.542,6.946c0.478,2.333,1.03,4.599,1.446,6.987c0.842,4.707,1.303,9.485,1.361,14.266
				c0.051,4.78-0.246,9.559-0.803,14.288c-0.529,4.735-1.313,9.424-1.931,14.099c-0.595,4.665-1.089,9.371-0.472,13.934
				c0.587,4.567,2.579,8.804,5.833,12.116c1.51,1.619,3.392,2.96,5.467,3.714c2.07,0.8,4.34,0.994,6.59,0.792
				c4.53-0.427,8.895-2.286,13.13-4.285c2.127-1.007,4.239-2.082,6.418-3.086c2.196-0.967,4.404-2.009,7.078-2.257l0.443-0.028
				c0.262-0.004,0.331,0.005,0.505,0.007l0.898,0.021l1.797,0.04c1.197,0,2.398,0.108,3.599,0.208
				c0.6,0.054,1.201,0.082,1.801,0.158l1.799,0.267c1.203,0.138,2.389,0.464,3.579,0.729c2.364,0.64,4.663,1.639,6.762,2.747
				c2.098,1.107,4.122,2.001,6.362,2.347l0.831,0.151l0.853,0.067c0.57,0.036,1.133,0.109,1.708,0.118
				c1.157-0.033,2.305,0.04,3.47-0.077c1.162-0.105,2.324-0.133,3.487-0.301l3.49-0.448l-0.112,0.024
				c1.604-0.467,3.147-1.104,4.446-2.047c1.301-0.935,2.315-2.189,2.91-3.661c0.604-1.469,0.806-3.119,0.765-4.778
				c-0.037-1.664-0.312-3.348-0.727-5.004c-0.794-3.327-2.106-6.558-3.517-9.727c-1.431-3.167-3.039-6.267-4.725-9.325
				c-3.379-6.117-7.064-12.08-10.797-18.014l-11.332-17.739c-7.541-11.841-15.042-23.751-21.56-36.23
				c-1.638-3.113-3.193-6.272-4.682-9.463c-1.486-3.191-2.896-6.421-4.173-9.706c-1.28-3.282-2.447-6.613-3.445-9.997
				c-0.994-3.368-1.832-6.851-2.4-10.3L465.968,458.907z"/>
		</g>
		<g>
			<path d="M504.008,489.949c2.461,1.629,4.828,3.38,7.238,5.039c2.379,1.688,4.721,3.389,7.137,5.021l3.526,2.538l3.564,2.477
				l7.129,4.893l7.129,4.808l3.594,2.33c1.188,0.787,2.373,1.575,3.582,2.321l3.597,2.275l3.62,2.208
				c2.386,1.514,4.851,2.856,7.268,4.274c1.209,0.703,2.439,1.353,3.656,2.031c1.216,0.68,2.436,1.347,3.675,1.951l3.684,1.88
				l3.704,1.75c1.226,0.613,2.48,1.088,3.719,1.618c1.244,0.519,2.479,1.06,3.719,1.498c1.241,0.445,2.475,0.97,3.714,1.356
				l3.708,1.146l2.493,0.821l0.517,0.172c0.18,0.063,0.502,0.212,0.746,0.316l1.565,0.715c0.509,0.248,1.056,0.493,1.524,0.761
				l1.345,0.826l1.331,0.85c0.435,0.32,0.862,0.672,1.289,1.014c3.39,2.706,6.462,6.64,7.871,11.527
				c0.089,0.302,0.184,0.601,0.26,0.906l0.166,0.941c0.105,0.629,0.197,1.261,0.277,1.893c0.113,1.264,0.064,2.553,0.008,3.817
				c-0.189,1.234-0.349,2.513-0.694,3.689c-0.182,0.584-0.375,1.167-0.577,1.744c-0.195,0.585-0.41,1.153-0.687,1.667
				c-2.03,4.336-5.113,7.569-8.331,9.949l-0.575,0.425l-0.312,0.163l-3.274,1.717c-1.102,0.566-2.346,1.082-3.515,1.614
				c-0.57,0.271-1.285,0.492-1.923,0.735c-0.67,0.231-1.28,0.482-2.001,0.686c-0.729,0.201-1.464,0.385-2.199,0.561
				c-0.708,0.192-1.583,0.272-2.368,0.395c-0.792,0.132-1.636,0.167-2.481,0.185c-0.419,0.008-0.845,0.026-1.257,0.016l-1.217-0.081
				c-0.395-0.034-0.833-0.056-1.189-0.107l-1.066-0.16c-0.77-0.109-1.27-0.222-1.86-0.333c-2.188-0.434-3.109-0.598-4.496-0.582
				c-0.167,0.003-0.326-0.014-0.501-0.002l-0.544,0.063c-0.37,0.051-0.716,0.046-1.114,0.127l-1.208,0.249l-0.61,0.119l-0.646,0.191
				l-1.299,0.377l-0.326,0.094l-0.163,0.046l-0.041,0.012l-0.368,0.132l-0.025,0.006l-0.099,0.027l-0.908,0.243
				c-0.584,0.146-1.223,0.288-1.773,0.373c-0.479,0.058-0.961,0.109-1.439,0.149l-1.395,0.027c-0.453-0.013-0.894-0.045-1.339-0.075
				c-3.496-0.347-6.31-1.442-8.748-2.653c-2.443-1.246-4.53-2.679-6.496-4.155c-3.906-2.957-7.186-6.25-10.305-9.575
				c-1.536-1.688-3.017-3.396-4.461-5.119c-1.45-1.716-2.8-3.508-4.157-5.272c-1.35-1.773-2.674-3.554-3.98-5.338
				c-1.325-1.767-2.545-3.618-3.801-5.423l-3.736-5.409c-0.617-0.899-1.241-1.789-1.89-2.641c-0.322-0.424-0.661-0.836-0.994-1.221
				c-0.167-0.192-0.341-0.38-0.505-0.526c-0.148-0.167-0.38-0.243-0.272-0.299l-0.366-0.93c0.662-0.164,0.915,0.1,1.202,0.219
				c0.279,0.152,0.512,0.322,0.742,0.496c0.459,0.347,0.874,0.718,1.284,1.093c0.815,0.753,1.59,1.532,2.355,2.317
				c1.529,1.573,3.015,3.176,4.502,4.775c2.972,3.201,5.937,6.399,8.975,9.522c3.042,3.117,6.124,6.191,9.339,9.11
				c3.215,2.914,6.562,5.688,10.148,8.069c1.798,1.176,3.654,2.265,5.596,3.112c1.934,0.857,3.971,1.475,6.004,1.591
				c1,0.062,2.059-0.043,2.942-0.288c0.238-0.062,0.511-0.168,0.765-0.25l0.746-0.263l1.573-0.558
				c1.033-0.41,2.15-0.621,3.223-0.936c0.543-0.142,1.11-0.209,1.664-0.315c0.555-0.107,1.114-0.195,1.686-0.22
				c2.264-0.244,4.592,0.025,6.734,0.396c2.147,0.369,4.187,0.56,6.236,0.228c1.025-0.124,2.03-0.432,3.038-0.715
				c0.994-0.349,1.989-0.718,2.965-1.141c0.962-0.471,1.944-0.887,2.89-1.398l2.83-1.558l-0.095,0.063
				c2.194-1.701,4.086-3.799,5.212-6.259c0.173-0.294,0.28-0.612,0.376-0.935l0.315-0.955c0.191-0.642,0.233-1.313,0.365-1.967
				c-0.004-0.663,0.039-1.332-0.023-1.991l-0.159-0.984l-0.076-0.492c-0.044-0.16-0.103-0.317-0.154-0.476
				c-0.73-2.566-2.389-4.843-4.513-6.562c-2.15-1.745-4.613-2.904-7.356-3.779l-4.174-1.403c-1.388-0.476-2.726-1.075-4.09-1.607
				c-1.371-0.521-2.691-1.149-4.017-1.768c-1.322-0.625-2.668-1.202-3.95-1.902l-3.887-2.021l-3.803-2.166
				c-1.277-0.707-2.519-1.471-3.753-2.245c-1.235-0.773-2.488-1.521-3.709-2.315c-2.42-1.622-4.88-3.187-7.237-4.896l-3.563-2.525
				l-3.501-2.608c-2.352-1.717-4.6-3.565-6.904-5.342c-2.251-1.841-4.521-3.661-6.738-5.543c-2.212-1.889-4.435-3.765-6.582-5.726
				l-3.247-2.911l-3.193-2.97c-2.143-1.962-4.219-4.001-6.317-6.014c-2.094-2.017-4.124-4.087-6.188-6.127L504.008,489.949z"/>
		</g>
		<g>
			<path fill="none" d="M449.81,506.501"/>
		</g>
		<g>
			<path d="M280.295,504.294c-0.17,2.455-0.292,4.877-0.341,7.31c-0.05,2.429,0.014,4.854,0.07,7.267
				c0.07,2.414,0.214,4.821,0.419,7.22c0.196,2.399,0.493,4.788,0.782,7.169c0.576,4.768,1.388,9.478,2.366,14.197l0.745,3.654
				c0.061,0.343,0.124,0.662,0.18,1.152c0.013,0.125,0.027,0.26,0.036,0.464l0.005,0.146l-0.002,0.235l-0.01,0.243
				c-0.015,0.182-0.038,0.363-0.069,0.544l-0.062,0.3c-0.079,0.312-0.191,0.627-0.335,0.928c-0.216,0.39-0.153,0.385-0.671,1.039
				c-0.706,0.902-2.164,1.629-3.291,1.658c0.053,0.002-0.051,0.011-0.068,0.016l-0.227,0.035l-0.91,0.13l-0.455,0.063
				c-0.162,0.02-0.307,0.042-0.374,0.082c-0.358,0.136-0.711,0.254-1.065,0.354c-0.409,0.14-0.919,0.355-1.373,0.522
				c-0.467,0.156-0.93,0.396-1.393,0.618c-0.458,0.231-0.935,0.414-1.371,0.692c-1.816,0.953-3.483,2.21-4.671,3.385l-0.411,0.436
				l-0.208,0.212c0.083-0.091-0.206,0.224,0.184-0.201l-0.018,0.022l-0.035,0.046l-0.07,0.09l-0.141,0.182l-0.564,0.725
				c-0.18,0.235-0.421,0.519-0.442,0.632c-0.145,0.321-0.302,0.538-0.475,0.899c-0.163,0.389-0.364,0.752-0.513,1.139
				c-0.595,1.549-0.898,3.182-0.923,4.801c-0.013,1.622,0.292,3.228,0.875,4.691c0.583,1.466,1.44,2.785,2.508,3.897
				c0.292,0.259,0.573,0.522,0.845,0.794l0.025,0.025c0.036,0.033-0.27-0.255-0.13-0.124l0.022,0.019l0.087,0.074l0.176,0.147
				l0.351,0.295c0.234,0.198,0.496,0.425,0.593,0.467l0.399,0.272l0.49,0.304c0.33,0.228,0.663,0.359,0.983,0.543
				c0.647,0.295,1.268,0.498,1.863,0.635c0.598,0.115,1.179,0.147,1.773,0.13c1.181-0.029,2.514-0.346,3.987-0.984l3.984-1.727
				l3.775,2.852c2.815,2.127,5.447,4.774,7.59,7.783c2.14,3.001,3.731,6.344,4.856,9.428c1.148,3.092,1.922,5.962,2.714,7.965
				c0.386,1,0.768,1.738,1.066,2.135c0.312,0.407,0.468,0.504,0.682,0.648c0.216,0.132,0.602,0.31,1.218,0.493
				c0.353,0.068,0.669,0.176,1.12,0.225c0.392,0.082,0.881,0.115,1.363,0.158c0.458,0.063,1.037,0.038,1.548,0.07l0.197,0.046
				c-0.058,0,0.2,0.039-0.117,0.039h0.066l0.133-0.041l0.53-0.024l1.06-0.021c0.682-0.013,1.471-0.005,2.064-0.039l1.771-0.1
				c1.168-0.055,2.425-0.214,3.609-0.32c1.168-0.162,2.342-0.312,3.415-0.557c2.167-0.447,4.136-1.103,5.469-1.853l0.492-0.271
				c0.153-0.091,0.25-0.194,0.383-0.282c0.113-0.093,0.282-0.168,0.36-0.261c0.082-0.091,0.169-0.174,0.263-0.252
				c0.114-0.072,0.161-0.156,0.211-0.23c0.052-0.075,0.128-0.138,0.186-0.203c0.027-0.154,0.192-0.236,0.196-0.384
				c0.161-0.213,0.184-0.544,0.274-0.979c-0.02-0.263,0.061-0.478,0.002-0.82l-0.021-0.477l-0.098-0.554
				c-0.248-1.506-0.951-3.432-1.971-5.378c-1.013-1.962-2.34-3.952-3.773-5.94c-1.435-1.987-3.065-3.939-4.792-5.843
				c-0.85-0.959-1.759-1.89-2.662-2.825c-0.445-0.472-0.929-0.92-1.391-1.381l-0.701-0.688l-0.175-0.172l-0.087-0.086
				c0.357,0.396-3.923-5.465-2.426-3.92c-1.3-2.311,0.871-7.587,1.006-7.183c0.224-0.349,0.472-0.687,0.738-1.005
				c0.278-0.325,0.268-0.299,0.419-0.462l0.35-0.348l0.205-0.186c0.297-0.265,0.446-0.379,0.621-0.519
				c0.611-0.473,0.942-0.688,1.311-0.942l0.997-0.661l1.843-1.165l3.528-2.221c2.318-1.476,4.593-2.971,6.829-4.51
				c4.469-3.075,8.781-6.316,12.843-9.771c2.034-1.724,3.988-3.516,5.885-5.338c0.956-0.903,1.892-1.823,2.803-2.758l1.348-1.414
				l1.517-1.617l1.452-1.534l1.197-1.378c0.808-0.876,1.603-1.94,2.408-2.941c0.812-1.007,1.526-2.09,2.3-3.132
				c0.724-1.077,1.435-2.169,2.138-3.267c0.65-1.129,1.354-2.233,1.97-3.388c0.599-1.163,1.261-2.298,1.826-3.484l0.878-1.769
				l0.22-0.442l0.055-0.11l0.028-0.056c-0.123,0.33-0.019,0.057-0.04,0.114l0.104-0.244l0.417-0.977
				c0.544-1.292,1.141-2.628,1.641-3.884l1.299-3.597c0.437-1.207,0.758-2.521,1.147-3.781c0.411-1.268,0.67-2.564,0.967-3.859
				l0.444-1.946c0.128-0.651,0.216-1.308,0.328-1.963c0.945-5.233,1.42-10.602,1.142-15.966c-0.315-5.348-1.126-10.73-2.845-15.897
				c-0.175-0.664-0.446-1.283-0.693-1.917l-0.752-1.905c-0.491-1.281-1.153-2.475-1.729-3.736c-0.627-1.227-1.389-2.374-2.087-3.584
				c-0.784-1.14-1.61-2.265-2.429-3.418l0.707-0.707c4.066,4.044,7.238,8.927,9.541,14.154c2.307,5.235,3.767,10.819,4.52,16.479
				c0.747,5.666,0.737,11.417,0.147,17.091c-0.62,5.68-1.792,11.271-3.544,16.744c-0.446,1.35-0.949,2.666-1.42,4.001l-0.359,0.998
				l-0.09,0.249l-0.11,0.27l-0.208,0.494l-0.83,1.972c-1.123,2.624-2.41,5.175-3.774,7.683c-2.766,4.982-6.093,9.705-9.845,13.989
				c-3.622,4.336-7.611,8.486-11.847,12.271c-4.232,3.807-8.689,7.349-13.279,10.695c-2.295,1.673-4.625,3.298-6.976,4.885
				l-3.535,2.358c-1.162,0.779-2.396,1.563-3.434,2.351l-0.159,0.133c-0.042,0.029-0.086,0.099-0.018-0.001
				c-0.001,0.063,0.228-0.477,0.078-0.702c0.162,0.188-0.289-0.412-0.23-0.355l0.097,0.092l0.194,0.184l0.774,0.737
				c0.512,0.496,1.041,0.974,1.54,1.483c1.007,1.01,2.018,2.017,2.982,3.07c1.95,2.084,3.822,4.251,5.54,6.549
				c1.724,2.291,3.327,4.688,4.682,7.249c1.347,2.558,2.462,5.29,2.997,8.217l0.187,1.1l0.085,1.121
				c0.088,0.745,0.01,1.506-0.011,2.262c-0.173,1.502-0.475,3.036-1.187,4.413c-1.288,2.843-3.766,4.895-6.341,6.306
				c-2.616,1.416-5.442,2.247-8.271,2.824c-2.837,0.594-5.7,0.846-8.568,0.991c-1.441,0.059-2.879,0.11-4.284,0.082
				c-1.396,0.006-2.883-0.021-4.325-0.164c-1.453-0.133-2.91-0.395-4.344-0.812c-1.425-0.448-2.83-1.074-4.075-1.98
				c-1.249-0.899-2.295-2.077-3.09-3.36c-0.804-1.285-1.374-2.658-1.856-4.025c-0.956-2.739-1.607-5.483-2.525-8.105
				c-0.893-2.628-2.048-5.137-3.586-7.399c-1.544-2.256-3.44-4.264-5.596-5.972l0.858,0.124c-2.36,0.922-4.915,1.494-7.507,1.398
				c-1.291-0.058-2.577-0.258-3.82-0.615c-1.236-0.378-2.423-0.89-3.544-1.512c-1.105-0.653-2.152-1.356-3.137-2.202
				c-0.513-0.417-0.9-0.803-1.395-1.259l-1.304-1.399c-1.645-1.951-2.909-4.224-3.693-6.65c-1.59-4.85-1.209-10.306,1.065-14.874
				c0.279-0.571,0.62-1.112,0.929-1.669c0.327-0.548,0.738-1.064,1.106-1.596c0.378-0.529,0.799-0.938,1.196-1.414
				c0.427-0.53,0.937-0.887,1.402-1.337c1.952-1.634,4.1-2.964,6.384-3.986c2.302-1.012,4.606-1.88,7.213-2.291
				c0.626-0.099,1.223-0.112,1.836-0.172l0.229-0.018l0.121-0.011c-0.169-0.001-0.391,0.108-0.494,0.246
				c-0.075,0.097-0.063,0.083-0.092,0.136c-0.019,0.037-0.033,0.077-0.041,0.116l-0.005,0.015c-0.003,0.037,0.004-0.149-0.008-0.271
				c-0.017-0.275-0.05-0.576-0.083-0.873l-0.456-3.631c-0.615-4.864-1.065-9.76-1.268-14.666
				c-0.407-9.805,0.107-19.689,2.009-29.333L280.295,504.294z"/>
		</g>
	</g>
</g>
<g id="Layer_2">
</g>
<g id="Layer_3">
</g>
<g id="Layer_4">
</g>
<g id="Layer_5">
</g>
<g id="Layer_6">
</g>
</svg>
