<?xml version="1.0" encoding="utf-8"?>
<!-- Generator: Adobe Illustrator 16.0.0, SVG Export Plug-In . SVG Version: 6.00 Build 0)  -->
<!DOCTYPE svg PUBLIC "-//W3C//DTD SVG 1.1//EN" "http://www.w3.org/Graphics/SVG/1.1/DTD/svg11.dtd">
<svg version="1.1" xmlns="http://www.w3.org/2000/svg" xmlns:xlink="http://www.w3.org/1999/xlink" x="0px" y="0px" width="717px"
	 height="537.75px" viewBox="0 0 717 537.75" enable-background="new 0 0 717 537.75" xml:space="preserve">
<g id="Layer_1">
</g>
<g id="Layer_2">
</g>
<g id="Layer_3">
	<g display="none">
		<g display="inline">
			<path d="M227.724,325.639c0.71,0.559,1.408,1.129,2.076,1.605c0.331,0.249,0.702,0.477,1.044,0.71
				c0.339,0.241,0.722,0.425,1.059,0.648c0.338,0.223,0.707,0.396,1.055,0.586c0.342,0.199,0.718,0.335,1.061,0.506
				c0.341,0.175,0.707,0.29,1.052,0.428c0.343,0.146,0.707,0.222,1.05,0.33c0.342,0.11,0.694,0.161,1.028,0.246
				c0.335,0.081,0.682,0.098,1.009,0.151c0.331,0.038,0.665,0.03,0.984,0.052l0.952-0.023l0.927-0.109l0.903-0.193
				c0.3-0.096,0.592-0.182,0.882-0.26l0.867-0.313l1.968-0.711l2.737,2.492c2.29,2.087,4.319,4.651,5.929,7.522
				c1.604,2.874,2.712,6.04,3.404,9.07c0.682,3.024,1.08,5.914,1.457,8.218c0.392,2.307,0.987,3.852,1.396,4.179
				c0.211,0.209,0.392,0.305,0.724,0.499c0.281,0.201,0.874,0.467,1.523,0.741c0.724,0.258,1.542,0.53,2.514,0.739
				c0.24,0.054,0.48,0.107,0.717,0.173l0.09,0.023l0.044,0.012l0.022,0.006c-0.486-0.11-0.117-0.027-0.218-0.05l0.243,0.049
				l0.485,0.099l1.945,0.396c0.306,0.057,0.689,0.151,0.931,0.178l0.742,0.093l1.48,0.204c0.51,0.055,1.049,0.066,1.568,0.131
				c0.524,0.051,1.058,0.126,1.551,0.115c2.061,0.148,3.911-0.104,5.595-0.345c1.697-0.262,3.047-0.832,4.214-1.496
				c1.185-0.666,2.132-1.593,3.048-2.836c0.909-1.247,1.599-2.896,2.156-4.778l0.209-0.709l0.148-0.75
				c0.094-0.504,0.227-1,0.269-1.536c0.063-0.529,0.174-1.054,0.223-1.6l0.131-1.657c0.071-2.24,0.063-4.596-0.172-6.991
				c-0.229-2.401-0.58-4.852-1.067-7.33c-0.502-2.471-1.078-4.985-1.771-7.519c-0.687-2.537-1.524-5.062-2.325-7.699l0.824-0.568
				c1.505,2.195,2.983,4.417,4.268,6.756c1.327,2.314,2.489,4.724,3.543,7.181c1.063,2.455,1.896,5.008,2.618,7.59
				c0.672,2.599,1.172,5.246,1.441,7.931c0.251,2.686,0.224,5.412-0.152,8.109c-0.382,2.692-1.146,5.37-2.446,7.817
				c-1.289,2.445-3.141,4.626-5.396,6.264c-2.247,1.65-4.855,2.763-7.532,3.363c-2.678,0.595-5.418,0.868-8.128,0.759
				c-0.681,0.015-1.353-0.058-2.027-0.11c-0.674-0.057-1.348-0.106-2.021-0.188c-1.329-0.229-2.715-0.379-3.995-0.679l-1.938-0.426
				c-0.336-0.079-0.616-0.122-0.999-0.231l-0.982-0.272c-1.311-0.356-2.602-0.834-3.866-1.392c-1.243-0.609-2.49-1.268-3.574-2.205
				c-1.091-0.911-2.048-2.021-2.75-3.273c-1.432-2.529-1.76-5.357-2.001-8.005c-0.213-2.672-0.298-5.293-0.653-7.864
				c-0.346-2.568-0.951-5.085-1.957-7.448c-0.988-2.368-2.336-4.585-3.964-6.589l0.709,0.268l-1.34,0.157
				c-0.449,0.024-0.9,0.029-1.351,0.042l-1.351-0.078l-1.338-0.2c-0.438-0.107-0.88-0.2-1.313-0.322
				c-0.425-0.146-0.859-0.269-1.275-0.438c-0.409-0.184-0.835-0.335-1.229-0.547c-0.391-0.217-0.804-0.396-1.175-0.645
				c-0.373-0.244-0.768-0.458-1.117-0.732c-0.354-0.268-0.728-0.513-1.057-0.81c-0.336-0.289-0.688-0.56-0.998-0.874
				c-0.314-0.31-0.647-0.601-0.938-0.932c-0.293-0.327-0.61-0.635-0.882-0.979c-0.276-0.342-0.569-0.666-0.831-1.022
				c-0.546-0.705-1.032-1.417-1.504-2.13L227.724,325.639z"/>
		</g>
		<g display="inline">
			<path d="M366.256,311.523c0,0,0.37-0.137,1.053-0.334c0.335-0.097,0.771-0.21,1.22-0.364c0.119-0.035,0.22-0.084,0.226-0.138
				c-0.08-0.019-0.166-0.026-0.252-0.021c-0.263,0.018-0.736,0.231-0.958,0.503c-0.117,0.121-0.22,0.263-0.297,0.42
				c-0.039,0.078-0.07,0.159-0.095,0.239l0.033-0.119c0.12-0.39,0.369-0.72,0.698-0.973c0.197-0.146,0.281-0.19,0.442-0.275
				c0.421-0.206,0.619-0.274,0.808-0.361c0.179-0.075,0.363-0.153,0.552-0.233c0.369-0.152,0.686-0.288,1.061-0.423
				c0.177-0.063,0.356-0.129,0.541-0.195l0.281-0.101l0.071-0.025l0.036-0.013l0.018-0.007c-0.152,0-0.033-0.004-0.063-0.005
				l0.134-0.055c0.719-0.303,1.497-0.564,2.329-0.879c0.818-0.321,1.746-0.564,2.622-0.923c0.863-0.356,1.762-0.675,2.685-1.033
				c0.461-0.186,0.932-0.329,1.407-0.497c0.491-0.188,0.993-0.381,1.503-0.576c1.017-0.387,2.069-0.725,3.141-1.104
				c1.071-0.418,2.178-0.777,3.297-1.181c0.56-0.208,1.127-0.384,1.701-0.569c0.571-0.202,1.147-0.406,1.729-0.612
				c1.155-0.441,2.35-0.756,3.541-1.179c0.595-0.21,1.193-0.421,1.796-0.633c0.606-0.188,1.216-0.376,1.827-0.565
				c1.228-0.362,2.431-0.863,3.679-1.206l1.862-0.566l1.85-0.626c2.505-0.716,4.961-1.568,7.438-2.266
				c2.436-0.793,4.901-1.439,7.252-2.15c1.185-0.336,2.344-0.693,3.508-0.98c1.146-0.319,2.25-0.679,3.371-0.946
				c1.132-0.256,2.173-0.606,3.228-0.875c1.061-0.271,2.085-0.532,3.068-0.783c0.982-0.255,1.915-0.53,2.838-0.744
				c0.928-0.207,1.798-0.435,2.613-0.647c1.628-0.438,3.146-0.74,4.36-1.05c1.205-0.324,2.239-0.502,2.918-0.666
				c0.692-0.146,1.086-0.204,1.086-0.204l0.623,0.783c0,0-1.094,0.854-3.008,2.349c-0.954,0.755-2.194,1.551-3.576,2.529
				c-1.38,0.982-3.034,1.933-4.811,3.019c-0.901,0.52-1.86,1.022-2.843,1.564c-0.984,0.537-1.996,1.104-3.072,1.614
				c-1.068,0.528-2.165,1.07-3.286,1.624c-1.14,0.515-2.304,1.04-3.488,1.575c-1.179,0.547-2.398,1.055-3.641,1.549
				c-1.242,0.492-2.483,1.037-3.766,1.502c-1.28,0.47-2.571,0.943-3.867,1.419c-1.298,0.472-2.624,0.876-3.938,1.318l-1.984,0.619
				l-2,0.551c-1.334,0.355-2.649,0.756-3.979,1.068c-1.327,0.316-2.644,0.63-3.944,0.939c-1.301,0.311-2.604,0.535-3.876,0.801
				c-2.539,0.555-5.038,0.868-7.386,1.265c-1.184,0.14-2.336,0.276-3.449,0.407c-0.557,0.065-1.104,0.13-1.642,0.192
				c-0.543,0.039-1.075,0.077-1.597,0.115c-1.042,0.072-2.041,0.142-2.991,0.207c-0.948,0.046-1.837,0.022-2.679,0.036
				c-0.84,0.005-1.625,0.01-2.352,0.014c-0.754-0.005-1.391-0.021-1.969,0.009c-0.273,0.007-0.585,0.047-0.681,0.07
				c0.011-0.005-0.004-0.001,0.022-0.021c0.073-0.045,0.117-0.12,0.148-0.198c0.003-0.006,0.009-0.027,0.006-0.021
				c-0.009,0.03-0.021,0.061-0.035,0.091c-0.028,0.06-0.063,0.116-0.105,0.163c-0.089,0.097-0.259,0.178-0.363,0.191
				c-0.068,0.007-0.139,0.01-0.207,0.009c-0.165-0.014-0.296-0.031-0.412-0.051c-0.468-0.078-0.864-0.146-1.187-0.199
				c-0.637-0.112-0.976-0.172-0.976-0.172L366.256,311.523z"/>
		</g>
		<g display="inline">
			<path d="M428.908,117.15c0,0-1.791-0.883-5.15-2.539c-3.382-1.64-8.37-3.584-14.881-5.732
				c-6.564-1.927-14.666-3.704-24.019-4.411c-1.17-0.061-2.358-0.124-3.565-0.187c-0.602-0.032-1.207-0.064-1.818-0.097
				c-0.61-0.018-1.23,0.019-1.851,0.025c-1.24,0.026-2.498,0.053-3.772,0.079c-0.636,0.013-1.275,0.026-1.92,0.039
				c-0.635,0.046-1.274,0.093-1.918,0.141c-1.35,0.105-2.718,0.211-4.102,0.318c-1.308,0.147-2.63,0.295-3.969,0.446
				c-1.335,0.148-2.722,0.408-4.101,0.608c-1.388,0.188-2.773,0.48-4.173,0.764c-5.597,1.127-11.322,2.706-17.029,4.844
				c-5.706,2.126-11.441,4.703-16.962,7.959c-11.056,6.468-21.247,15.512-29.243,26.592c-3.997,5.544-7.272,11.702-9.838,18.203
				c-0.311,0.816-0.657,1.621-0.943,2.449l-0.827,2.501c-0.601,1.651-0.989,3.379-1.478,5.074c-0.492,1.696-0.819,3.444-1.247,5.167
				c-0.322,1.749-0.644,3.504-0.923,5.269c-0.472,3.547-0.827,7.13-0.908,10.75l-0.052,2.717l-0.014,0.68l-0.035,0.874l-0.014,0.185
				l-0.026,0.37l-0.108,1.479l-0.313,3.265c-0.132,1.061-0.236,2.125-0.393,3.184c-1.171,8.476-3.195,16.934-6.363,25.087
				c-3.249,8.107-7.564,15.915-13.059,22.861c-5.438,6.986-12.064,13.015-19.271,17.912l-2.753,1.75l-1.377,0.865l-1.415,0.791
				l-2.827,1.572c-0.953,0.493-1.925,0.944-2.893,1.4c-3.864,1.845-7.837,3.301-11.803,4.609c-7.955,2.548-15.986,4.07-23.85,4.901
				l-0.736,0.09l-0.185,0.022l-0.456,0.045l-0.349,0.022l-1.394,0.091c-0.927,0.061-1.853,0.121-2.776,0.181l-0.697,0.212
				l-0.82,0.173h-1.636c-1.088,0-2.173-0.186-3.256-0.193c-4.188-0.307-8.378-0.854-12.535-2.229
				c-4.123-1.277-8.234-3.174-11.789-5.997c-3.567-2.757-6.553-6.339-8.561-10.264c-2.021-3.924-3.117-8.142-3.429-12.211
				c-0.299-4.076,0.093-8.04,1.048-11.741c1.865-7.405,5.777-13.908,11.168-18.699c5.338-4.798,12.74-7.461,19.41-6.708l0.621,0.047
				l0.31,0.023l0.154,0.013c-0.076-0.011,0.279,0.028,0.286,0.034l0.996,0.18c0.671,0.126,1.272,0.214,2.098,0.422
				c1.576,0.339,2.99,0.785,4.376,1.271c2.776,1.007,5.383,2.401,7.646,4.157c4.556,3.486,7.512,8.591,8.093,13.535
				c0.669,4.955-0.718,9.469-2.792,12.763c-2.086,3.344-4.843,5.522-7.354,6.945c-0.627,0.364-1.267,0.645-1.856,0.946
				c-0.606,0.27-1.202,0.489-1.761,0.716c-0.563,0.216-1.121,0.361-1.637,0.53c-0.13,0.04-0.258,0.079-0.384,0.118l-0.252,0.077
				l-0.184,0.035c-0.247,0.046-0.457,0.1-0.768,0.124c-1.147,0.129-1.987,0.009-2.764-0.146c-0.38-0.074-0.724-0.16-1.029-0.272
				c-0.31-0.093-0.583-0.192-0.818-0.309c-0.481-0.197-0.818-0.405-1.043-0.547c-0.225-0.136-0.338-0.205-0.338-0.205l0.508-0.861
				c0,0,0.104,0.052,0.308,0.154c0.201,0.106,0.503,0.264,0.936,0.401c0.209,0.087,0.454,0.154,0.729,0.214
				c0.271,0.078,0.575,0.129,0.909,0.168c0.652,0.091,1.478,0.113,2.283-0.033c0.194-0.015,0.436-0.096,0.672-0.159l0.179-0.051
				l0.142-0.058l0.351-0.14c0.471-0.197,0.979-0.372,1.486-0.613c0.501-0.253,1.036-0.497,1.573-0.787
				c0.52-0.321,1.085-0.62,1.628-0.995c2.172-1.478,4.473-3.582,6.094-6.563c1.612-2.945,2.514-6.793,1.73-10.795
				c-0.737-3.987-3.245-7.963-7.134-10.655c-3.883-2.724-8.897-4.204-14.233-4.484c-2.639-0.197-5.359,0.32-7.932,1.313
				c-2.572,1.005-5.035,2.536-7.12,4.573c-4.204,4.021-7.302,9.592-8.589,15.766c-0.656,3.079-0.891,6.309-0.565,9.538
				c0.335,3.225,1.286,6.432,2.882,9.337c1.591,2.908,3.859,5.476,6.603,7.491c2.719,2.067,5.973,3.435,9.346,4.379
				c3.371,1.03,6.967,1.311,10.563,1.535c1.805-0.042,3.598,0.008,5.434-0.11c0.922-0.079,1.846-0.158,2.772-0.238l1.39-0.119
				l0.349-0.03c0.06-0.001,0.214-0.028,0.316-0.041l0.688-0.1c7.36-0.923,14.774-2.488,21.983-4.954
				c7.207-2.458,14.198-5.827,20.624-10.163c6.368-4.407,12.17-9.759,16.938-15.982c4.817-6.184,8.616-13.168,11.492-20.497
				c2.889-7.333,4.822-15.037,5.953-22.818c0.284-1.949,0.506-3.896,0.688-5.845l0.121-1.479l0.051-0.666l0.021-0.748l0.082-2.987
				c0.126-3.98,0.548-7.935,1.108-11.85c2.402-15.646,8.659-30.409,17.695-42.461c9.034-12.081,20.576-21.48,32.699-28.006
				c12.144-6.566,24.821-10.307,36.679-12.107c11.875-1.837,22.987-1.737,32.665-0.479c9.688,1.268,17.885,3.733,24.444,6.167
				c6.49,2.609,11.432,5.142,14.656,7.021c3.201,1.92,4.909,2.945,4.909,2.945L428.908,117.15z"/>
		</g>
		<g display="inline">
			<path d="M281.627,314.733c0,0-1.869,0.657-5.375,1.89c-1.757,0.608-3.907,1.395-6.465,2.252c-2.578,0.818-5.563,1.712-8.92,2.694
				c-6.721,1.903-14.906,4.086-24.451,6.014c-2.375,0.543-4.849,0.979-7.395,1.442c-2.55,0.464-5.172,0.941-7.864,1.431
				c-2.706,0.421-5.492,0.781-8.344,1.179c-1.428,0.184-2.865,0.42-4.334,0.566c-1.469,0.149-2.954,0.3-4.455,0.451
				c-5.999,0.693-12.298,1.037-18.903,1.33c-0.8,0.021-1.603,0.042-2.408,0.063c-0.408,0.011-0.795,0.021-1.223,0.016l-1.31-0.033
				c-1.741-0.062-3.545-0.057-5.267-0.207c-1.742-0.127-3.5-0.21-5.27-0.439c-0.886-0.1-1.774-0.2-2.666-0.3
				c-0.893-0.105-1.784-0.27-2.683-0.403c-7.171-1.12-14.542-3.012-21.76-6.087c-1.821-0.72-3.584-1.628-5.382-2.483
				c-1.739-0.978-3.521-1.904-5.213-3.022c-1.733-1.047-3.383-2.251-5.055-3.441c-1.616-1.268-3.259-2.523-4.792-3.931
				c-12.506-10.979-21.432-27.096-23.88-44.336c-1.344-8.596-1.303-17.422,0.041-26.071c1.351-8.644,3.925-17.158,7.863-25.076
				c3.989-7.885,9.235-15.186,15.575-21.42c6.352-6.221,13.816-11.297,21.834-14.928c4.021-1.79,8.167-3.229,12.37-4.278
				c4.207-1.061,8.458-1.675,12.684-2.028l1.425-0.111l0.711-0.055l0.813-0.035c1.09-0.041,2.179-0.082,3.266-0.123
				c2.104,0.005,4.176-0.005,6.263,0.141c4.162,0.24,8.306,0.768,12.365,1.656c8.102,1.809,15.914,4.933,22.608,9.533
				c6.719,4.544,12.369,10.34,16.562,16.801c4.186,6.461,7.004,13.55,8.19,20.675c1.201,7.12,0.905,14.22-0.704,20.687
				c-0.798,3.235-1.911,6.312-3.271,9.175c-1.357,2.864-2.951,5.53-4.794,7.892c-3.633,4.765-7.9,8.515-12.238,11.34
				c-4.34,2.837-8.698,4.889-12.854,6.252c-4.146,1.402-8.043,2.225-11.557,2.791c-7.034,1.152-12.593,1.021-16.331,0.914
				c-1.872-0.023-3.304-0.18-4.266-0.225c-0.962-0.063-1.458-0.097-1.458-0.097l0.004-1c0,0,0.492-0.008,1.444-0.023
				c0.952-0.034,2.368,0.005,4.207-0.123c3.676-0.169,9.096-0.574,15.796-2.103c6.65-1.527,14.756-4.212,22.454-9.876
				c3.839-2.801,7.498-6.396,10.503-10.793c3.029-4.378,5.289-9.615,6.468-15.331c1.181-5.716,1.185-11.926-0.114-18.089
				c-1.289-6.162-3.879-12.275-7.696-17.775c-3.808-5.504-8.849-10.376-14.785-14.141c-5.932-3.778-12.735-6.429-19.905-7.876
				c-3.589-0.715-7.27-1.112-10.984-1.256c-1.858-0.098-3.728-0.048-5.6-0.021c-1.862,0.104-3.725,0.184-5.631,0.406
				c-7.504,0.713-14.969,2.676-21.96,5.837c-6.962,3.223-13.415,7.676-18.923,13.149c-5.493,5.487-10.057,11.93-13.524,18.912
				c-3.51,6.967-5.868,14.503-7.122,22.172c-1.255,7.672-1.349,15.512-0.217,23.111c1.123,7.594,3.397,14.978,6.89,21.647
				c3.46,6.68,8.03,12.684,13.433,17.617c1.322,1.266,2.754,2.395,4.155,3.546c1.461,1.075,2.896,2.174,4.421,3.131
				c1.479,1.025,3.059,1.875,4.591,2.782c1.587,0.81,3.136,1.678,4.76,2.372c6.408,2.97,13.098,4.921,19.717,6.168
				c13.271,2.55,26.194,1.983,37.976,1.396c1.476-0.083,2.937-0.164,4.382-0.245c1.445-0.078,2.868-0.248,4.278-0.365
				c2.819-0.259,5.573-0.512,8.258-0.758c2.677-0.331,5.284-0.654,7.818-0.968c2.535-0.313,5-0.603,7.371-1.004
				c9.513-1.405,17.758-2.965,24.508-4.388c3.367-0.748,6.373-1.416,8.989-1.998c2.605-0.639,4.811-1.242,6.604-1.701
				c3.584-0.935,5.496-1.433,5.496-1.433L281.627,314.733z"/>
		</g>
		<g display="inline">
			<path d="M499.837,211.479c0,0-0.604-0.421-1.773-1.235c-1.165-0.809-2.907-2.049-5.123-3.705
				c-2.226-1.652-4.933-3.744-8.04-6.307c-3.118-2.551-6.602-5.612-10.356-9.208c-7.508-7.179-16.199-16.456-24.829-28.184
				c-4.334-5.845-8.695-12.262-12.952-19.245c-4.257-6.984-8.325-14.573-12.234-22.654c-3.898-8.086-7.611-16.683-11.034-25.74
				c-3.424-9.058-6.452-18.606-9.218-28.512c-2.749-9.912-5.174-20.203-7.23-30.805c-2.103-10.596-3.609-21.534-4.834-32.69
				c-1.189-11.164-1.983-22.557-2.244-34.168c-0.121-5.817-0.13-11.649,0.141-17.686c0.083-1.523,0.183-3.034,0.351-4.703
				c0.045-0.424,0.093-0.857,0.161-1.354l0.13-0.84c0.068-0.35,0.1-0.661,0.379-1.609c-3.278,2.226,6.08-7.021,4.937-5.542
				c-0.734,0.239,2.648-1.046,3.933-0.764c0.469,0.017,0.792,0.046,1.192,0.092l0.666,0.104l0.518,0.1l0.442,0.095l0.703,0.168
				l4.31,1.146c1.345,0.356,2.673,0.693,4.008,1.013c10.65,2.559,21.757,4.027,33.034,4.729c11.277,0.711,22.714,0.631,34.153,0.045
				c22.902-1.046,45.829-4.278,68.175-8.723c11.167-2.274,22.224-4.73,33.106-7.399l1.02-0.249
				c-0.581,0.121,1.077-0.237,1.004-0.212l0.263-0.041l0.524-0.081l2.097-0.322c1.411-0.21,2.708-0.455,4.405-0.578
				c1.604-0.142,3.206-0.283,4.805-0.423c1.533-0.036,3.063-0.071,4.592-0.107c6.096-0.006,12.143,0.417,17.988,1.485l2.197,0.361
				l2.165,0.47c1.438,0.324,2.88,0.625,4.304,0.97c2.812,0.803,5.646,1.5,8.361,2.478c5.51,1.747,10.723,4.053,15.766,6.485
				c10.013,5.012,19.215,10.89,27.443,17.443c8.239,6.536,15.692,13.53,22.233,20.87c6.53,7.349,12.227,14.953,17.156,22.584
				c4.912,7.643,9.102,15.3,12.412,22.89c0.413,0.948,0.822,1.891,1.23,2.827c0.373,0.952,0.744,1.897,1.112,2.835
				c0.365,0.939,0.728,1.871,1.088,2.797c0.325,0.94,0.648,1.874,0.969,2.801c0.298,0.869,0.594,1.732,0.888,2.589
				c0.326,0.849,0.65,1.692,0.971,2.528c0.665,1.687,1.343,3.348,2.029,4.975c5.537,13.003,11.138,24.061,16.577,32.603
				c2.72,4.271,5.364,7.937,7.852,10.966c2.494,3.023,4.872,5.366,6.949,7.073c1.012,0.898,2.015,1.524,2.841,2.142
				c0.873,0.525,1.609,0.983,2.219,1.315c1.257,0.594,1.905,0.9,1.905,0.9l-0.326,0.945c0,0-0.696-0.282-2.045-0.827
				c-0.656-0.309-1.447-0.74-2.393-1.239c-0.889-0.587-1.978-1.188-3.073-2.053c-4.537-3.262-10.255-9.193-16.16-17.659
				c-5.943-8.443-12.176-19.347-18.27-32.34c-1.497-3.258-3.08-6.616-4.401-10.209c-0.343-0.883-0.688-1.772-1.034-2.667
				c-0.382-0.881-0.767-1.769-1.153-2.663c-0.39-0.893-0.781-1.791-1.176-2.696c-0.428-0.89-0.858-1.785-1.291-2.687
				c-3.477-7.205-7.701-14.508-12.678-21.742c-4.979-7.229-10.695-14.405-17.19-21.292c-6.508-6.873-13.772-13.474-21.793-19.538
				c-7.996-6.095-16.868-11.482-26.391-16.001c-4.795-2.18-9.721-4.238-14.863-5.807c-2.541-0.883-5.176-1.483-7.789-2.199
				c-1.321-0.302-2.654-0.559-3.985-0.842l-2.002-0.409l-2.024-0.303c-5.389-0.917-10.91-1.219-16.446-1.146
				c-1.385,0.049-2.771,0.098-4.161,0.147c-1.376,0.138-2.754,0.275-4.135,0.414c-1.378,0.095-2.772,0.373-4.165,0.601l-2.092,0.352
				l-0.523,0.088l-0.262,0.044c-0.104,0.016-0.029,0.003-0.183,0.041l-1.03,0.267c-10.981,2.876-22.169,5.518-33.517,7.856
				c-22.694,4.646-46.058,8.084-69.603,9.294c-11.77,0.563-23.577,0.562-35.301-0.238c-11.718-0.797-23.367-2.395-34.665-5.177
				c-2.819-0.683-5.633-1.492-8.375-2.223c-0.338-0.085-0.68-0.168-0.99-0.225c-0.16-0.032-0.297-0.045-0.397-0.054
				c0.035,0.044,0.278-0.114,0.113-0.039c-0.233,0.164,0.718-0.66,0.343-0.347c-0.059,0.207-0.123,0.587-0.168,0.916l-0.128,1.041
				c-0.149,1.404-0.252,2.827-0.339,4.248c-0.332,5.691-0.406,11.385-0.366,17.038c0.098,11.31,0.719,22.482,1.731,33.43
				c2.037,21.898,5.688,42.908,10.645,62.446c4.955,19.541,11.25,37.6,18.419,53.66c7.157,16.07,15.186,30.125,23.261,41.907
				c8.06,11.804,16.144,21.334,23.22,28.752c7.094,7.411,13.148,12.754,17.365,16.273c2.107,1.767,3.744,3.074,4.87,3.952
				c1.12,0.878,1.698,1.33,1.698,1.33L499.837,211.479z"/>
		</g>
		<g display="inline">
			<path d="M566.779,171.621c4.444-2.579,8.92-5.098,13.413-7.591c4.484-2.514,9.042-4.876,13.591-7.266
				c4.557-2.373,9.111-4.758,13.719-7.032c4.604-2.279,9.223-4.538,13.862-6.752c4.632-2.231,9.289-4.415,13.956-6.583
				c4.687-2.119,9.393-4.201,14.112-6.257c4.728-2.037,9.452-4.09,14.218-6.052c4.756-1.983,9.523-3.955,14.337-5.809
				c4.826-1.826,9.64-3.688,14.507-5.426c4.846-1.792,9.742-3.465,14.631-5.164c4.921-1.621,9.825-3.291,14.798-4.794
				c4.951-1.555,9.985-2.887,14.999-4.283l7.584-1.93c2.521-0.662,5.094-1.188,7.64-1.789l3.832-0.864l3.866-0.771
				c2.58-0.509,5.147-1.056,7.766-1.455c2.614-0.409,5.197-0.918,7.841-1.242c2.643-0.328,5.271-0.704,7.93-0.987l8.034-0.592
				l8.144-0.194l14.198-0.339l-6.408,12.796l-2.616,5.226l-1.318,2.607l-1.432,2.537c-0.96,1.688-1.9,3.389-2.881,5.063
				l-3.089,4.919c-0.522,0.814-1.017,1.65-1.563,2.447l-1.645,2.383c-1.104,1.582-2.178,3.192-3.312,4.75
				c-2.329,3.063-4.576,6.203-7.046,9.14c-4.763,6.039-10.004,11.628-15.345,17.082c-5.375,5.42-10.969,10.583-16.688,15.578
				c-5.768,4.933-11.632,9.738-17.674,14.288c-1.491,1.165-3.034,2.253-4.549,3.384c-1.519,1.125-3.043,2.241-4.591,3.32
				c-3.083,2.183-6.229,4.267-9.372,6.351c-12.632,8.249-25.64,15.833-39.061,22.702c-3.359,1.719-6.745,3.379-10.217,4.943
				l-2.623,1.176l-2.635,1.12l-2.557,1.068c-0.389,0.18-0.965,0.352-1.449,0.525l-1.515,0.516l-3.03,1.013l-2.846,0.775
				l-2.837,0.764c-0.944,0.238-1.884,0.43-2.825,0.646c-3.766,0.889-7.513,1.549-11.259,2.213
				c-7.486,1.268-14.958,2.15-22.439,2.782c-7.477,0.661-14.951,1.051-22.432,1.301c-3.738,0.133-7.484,0.177-11.229,0.201
				l-5.629-0.085l-5.645-0.209l-2.835-0.169l-1.417-0.086l-0.177-0.01l-0.088-0.006c0.298,0.002,0.032-0.001,0.077-0.002
				l-0.347-0.012l-0.692-0.024l-1.386-0.048c-0.432-0.003-0.778,0.03-1.174,0.041l-1.157,0.039l-1.244,0.136
				c-3.334,0.366-6.732,1.215-10.121,2.29c-6.806,2.147-13.58,5.09-20.325,8.053l-20.355,8.859l-0.457-0.891l19.669-10.207
				c6.582-3.355,13.188-6.717,20.139-9.367c3.48-1.299,7.062-2.402,10.762-3.01c3.731-0.67,7.487-0.48,11.146-0.45
				c7.365,0.008,14.737-0.342,22.093-0.848c7.355-0.524,14.704-1.187,22.019-2.113c7.313-0.925,14.613-1.987,21.84-3.409
				c7.205-1.442,14.422-3.137,21.271-5.608c0.852-0.321,1.714-0.586,2.558-0.954l2.524-1.139c1.692-0.752,3.339-1.53,4.996-2.345
				c3.309-1.615,6.584-3.306,9.84-5.031c13.004-6.942,25.63-14.599,37.83-22.87c6.096-4.143,12.059-8.478,17.913-12.949
				c5.856-4.473,11.523-9.184,17.087-14.007c5.514-4.882,10.892-9.914,16.038-15.176c5.104-5.298,10.103-10.707,14.724-16.427
				c2.39-2.798,4.545-5.778,6.793-8.687c1.092-1.478,2.119-3.002,3.182-4.501l1.582-2.257c0.525-0.754,0.996-1.543,1.497-2.313
				l2.964-4.646l2.754-4.771l1.372-2.389l1.257-2.45l2.502-4.907l0.813,1.302l-7.629,0.132l-7.622,0.509
				c-2.537,0.228-5.068,0.547-7.603,0.816c-2.536,0.265-5.051,0.718-7.577,1.068c-2.528,0.339-5.034,0.83-7.547,1.28l-3.768,0.683
				l-3.75,0.778c-2.495,0.543-5.007,1.01-7.488,1.617l-7.459,1.761c-4.947,1.279-9.906,2.52-14.818,3.938
				c-4.932,1.342-9.816,2.855-14.716,4.318c-4.875,1.543-9.759,3.06-14.603,4.7c-4.863,1.584-9.684,3.296-14.516,4.971
				c-4.814,1.729-9.632,3.448-14.42,5.251c-4.801,1.765-9.567,3.624-14.34,5.466c-4.766,1.862-9.52,3.751-14.259,5.679
				c-4.738,1.932-9.472,3.875-14.183,5.871c-4.719,1.978-9.418,4.001-14.108,6.046c-4.691,2.043-9.371,4.113-14.034,6.22
				c-9.327,4.208-18.619,8.507-27.807,13L566.779,171.621z"/>
		</g>
		<g display="inline">
			<circle fill="#FFFFFF" cx="598.477" cy="53.423" r="71"/>
			<path d="M528,53.41c0,0,0.002,0.436,0.028,1.279c0.043,0.839,0.014,2.108,0.178,3.71c0.243,3.208,0.745,7.99,2.473,13.788
				c1.706,5.779,4.519,12.664,9.37,19.501c2.381,3.436,5.285,6.824,8.66,10.036c3.36,3.227,7.271,6.205,11.627,8.787
				c4.358,2.576,9.158,4.764,14.294,6.397c5.151,1.592,10.653,2.514,16.283,2.803c1.406,0.088,2.831,0.053,4.251,0.075
				c0.711-0.03,1.425-0.059,2.142-0.089l1.072-0.042l1.021-0.094c0.768-0.067,1.536-0.134,2.308-0.202
				c0.753-0.076,1.396-0.2,2.099-0.295c1.355-0.166,2.805-0.487,4.229-0.757c5.691-1.229,11.276-3.257,16.553-5.972
				c5.288-2.699,10.224-6.203,14.611-10.321c2.204-2.049,4.268-4.257,6.199-6.579l1.407-1.777c0.465-0.596,0.886-1.227,1.332-1.836
				c0.458-0.602,0.886-1.226,1.295-1.863c0.409-0.637,0.857-1.247,1.237-1.904c6.342-10.327,9.872-22.407,9.813-34.631l-0.048-2.386
				c-0.014-0.413-0.005-0.922-0.037-1.256l-0.08-1.058c-0.066-0.72-0.066-1.379-0.174-2.15l-0.272-2.267
				c-0.092-0.755-0.251-1.5-0.37-2.25l-0.19-1.125l-0.248-1.112c-0.164-0.741-0.295-1.492-0.481-2.228L658,35.388
				c-1.672-5.839-4.138-11.445-7.305-16.615c-1.63-2.551-3.34-5.059-5.267-7.391c-1.931-2.326-4.007-4.522-6.197-6.591
				c-4.393-4.12-9.334-7.624-14.626-10.323c-5.275-2.731-10.871-4.746-16.565-5.977c-1.43-0.27-2.852-0.59-4.288-0.76
				c-0.717-0.096-1.432-0.22-2.148-0.294c-0.72-0.065-1.437-0.131-2.151-0.196l-0.538-0.05l-0.268-0.025l-0.135-0.012
				c-0.069-0.005,0.133-0.008-0.021-0.009l-1.148-0.042c-0.765-0.028-1.527-0.055-2.287-0.083c-1.402,0.026-2.73-0.015-4.146,0.073
				c-5.633,0.294-11.14,1.212-16.289,2.817c-5.137,1.636-9.938,3.826-14.297,6.405c-4.359,2.581-8.265,5.569-11.625,8.796
				c-3.378,3.211-6.276,6.604-8.658,10.041c-4.85,6.839-7.659,13.727-9.367,19.505c-1.724,5.803-2.229,10.572-2.473,13.796
				c-0.165,1.615-0.129,2.861-0.172,3.698C528.002,52.99,528,53.423,528,53.423V53.41z M527,53.423c0,0-0.002-0.438,0.018-1.288
				c0.037-0.849-0.003-2.113,0.15-3.752c0.206-3.277,0.725-8.11,2.362-14.041c1.624-5.912,4.354-12.967,9.063-20.139
				c4.676-7.157,11.304-14.459,20.074-20.361c4.384-2.934,9.277-5.51,14.596-7.539c5.314-2.04,11.082-3.421,17.089-4.141
				c1.499-0.195,3.039-0.267,4.569-0.391c1.53-0.018,3.014-0.136,4.61-0.073c0.776,0.018,1.555,0.036,2.335,0.054
				c0.781,0.027,1.562,0.106,2.346,0.158c1.57,0.081,3.135,0.317,4.713,0.507c3.14,0.486,6.305,1.093,9.417,2.019
				c1.573,0.405,3.104,0.975,4.66,1.485c0.764,0.296,1.528,0.593,2.296,0.89c0.771,0.288,1.53,0.609,2.279,0.959
				c12.104,5.302,23.096,14.308,30.806,25.89c1.943,2.882,3.633,5.944,5.16,9.092c1.519,3.156,2.745,6.455,3.801,9.809
				c1.043,3.363,1.771,6.821,2.329,10.305c0.522,3.488,0.75,7.058,0.801,10.558c0.007,14.147-4.328,28.228-12.089,39.765
				c-7.71,11.583-18.702,20.588-30.807,25.89c-0.749,0.351-1.508,0.672-2.279,0.959c-0.768,0.297-1.533,0.594-2.297,0.89
				c-1.557,0.51-3.087,1.08-4.659,1.485c-3.113,0.926-6.277,1.533-9.417,2.019c-1.579,0.19-3.14,0.425-4.723,0.507
				c-0.786,0.051-1.577,0.131-2.353,0.158c-0.772,0.018-1.543,0.036-2.312,0.053c-1.568,0.064-3.1-0.055-4.636-0.074
				c-1.527-0.125-3.052-0.195-4.552-0.39c-6.007-0.719-11.774-2.101-17.089-4.141c-5.319-2.029-10.214-4.605-14.598-7.54
				c-8.771-5.902-15.399-13.204-20.073-20.361c-4.711-7.172-7.442-14.228-9.065-20.139c-1.639-5.934-2.159-10.755-2.366-14.048
				c-0.153-1.652-0.106-2.894-0.144-3.741c-0.02-0.844-0.018-1.279-0.018-1.279V53.423z"/>
		</g>
		<g display="inline">
			<circle cx="621.491" cy="49.663" r="17.999"/>
			<path d="M604,49.638c0,0,0.029,0.44,0.09,1.267c0.012,0.423,0.094,0.908,0.201,1.467c0.056,0.282,0.092,0.584,0.171,0.906
				c0.083,0.322,0.206,0.657,0.321,1.01c0.105,0.358,0.252,0.722,0.433,1.093c0.179,0.371,0.324,0.773,0.546,1.161
				c0.216,0.391,0.47,0.781,0.727,1.182c0.293,0.376,0.598,0.766,0.911,1.168c1.313,1.543,3.162,2.966,5.378,3.817
				c1.115,0.41,2.299,0.699,3.513,0.801c0.302,0.017,0.605,0.034,0.911,0.052c0.305-0.014,0.612-0.029,0.922-0.043
				c0.6,0.007,1.222-0.152,1.81-0.226c0.296-0.043,0.597-0.153,0.888-0.224l0.436-0.117l0.216-0.057
				c-0.098,0,0.257-0.01-0.212-0.002l0.036-0.01l0.071-0.021l0.145-0.043c0.721-0.232,1.719-0.444,1.969-0.746l0.612-0.402
				l0.718-0.493c0.24-0.141,0.451-0.359,0.668-0.539c0.213-0.189,0.445-0.319,0.635-0.539l0.584-0.583
				c0.19-0.191,0.347-0.434,0.528-0.621c0.182-0.189,0.35-0.392,0.493-0.622c0.148-0.223,0.313-0.417,0.446-0.641
				c0.587-0.851,0.962-1.796,1.356-2.648c0.151-0.458,0.317-0.891,0.413-1.347c0.177-0.419,0.213-0.886,0.325-1.314
				c0.019-0.457-0.083-0.875-0.068-1.324c0.026-0.22-0.191-0.438-0.191-0.665v-0.336l0.241-0.167l0.122-0.083l0.064-0.042
				l0.033-0.021c0.006,0.195,0.006-0.468,0.029,0.433l-0.029-1.325l-0.005-0.331l-0.003-0.166c-0.002-0.043-0.008-0.035-0.012-0.055
				c-0.019-0.054-0.031-0.108-0.039-0.163c-0.01-0.055-0.013-0.11-0.013-0.167l0.003-0.086l-0.037-0.159
				c-0.032-0.219-0.057-0.442-0.074-0.669c-0.111-0.429-0.154-0.895-0.324-1.318c-0.079-0.466-0.26-0.894-0.408-1.355
				c-0.376-0.871-0.778-1.798-1.353-2.667c-0.136-0.225-0.301-0.419-0.45-0.642c-0.145-0.23-0.314-0.433-0.497-0.623
				c-0.18-0.192-0.336-0.438-0.528-0.627l-0.588-0.583c-0.824-0.717-1.735-1.5-2.8-1.995c-0.519-0.313-1.079-0.482-1.647-0.717
				l-0.107-0.042l-0.053-0.021l-0.027-0.01c0.47-0.016,0.109-0.009,0.204-0.014l-0.294-0.056l-0.585-0.111
				c-0.364-0.068-0.727-0.137-1.086-0.204c-0.507-0.066-0.984-0.253-1.624-0.238c-0.311-0.014-0.618-0.027-0.923-0.042
				c-0.307,0.02-0.61,0.039-0.911,0.058c-1.215,0.107-2.402,0.394-3.515,0.813c-0.535,0.238-1.075,0.476-1.593,0.739
				c-0.494,0.291-0.985,0.588-1.43,0.922c-0.426,0.352-0.891,0.664-1.272,1.036c-0.383,0.371-0.755,0.744-1.077,1.134
				c-1.367,1.529-2.107,3.212-2.611,4.607c-0.117,0.354-0.237,0.689-0.321,1.011c-0.079,0.323-0.118,0.634-0.173,0.919
				c-0.109,0.572-0.188,1.061-0.199,1.464c-0.06,0.803-0.088,1.231-0.088,1.231V49.638z M603,49.663c0,0,0.015-0.454,0.05-1.304
				c-0.001-0.427,0.067-0.947,0.162-1.559c0.05-0.305,0.08-0.637,0.153-0.983c0.085-0.344,0.176-0.71,0.27-1.096
				c0.422-1.528,1.082-3.379,2.311-5.24c1.206-1.862,2.909-3.776,5.182-5.327c2.287-1.539,5.072-2.689,8.276-3.097
				c3.063-0.372,6.541,0.036,9.708,1.412c1.599,0.675,3.091,1.638,4.489,2.744c1.376,1.142,2.589,2.5,3.637,3.996
				c1.021,1.518,1.808,3.199,2.388,4.959c0.547,1.741,0.813,3.748,0.861,5.443c-0.048,1.964-0.313,3.748-0.857,5.545
				c-0.58,1.76-1.367,3.442-2.389,4.96c-1.048,1.496-2.261,2.854-3.637,3.996c-1.399,1.106-2.892,2.069-4.49,2.744
				c-1.606,0.66-3.215,1.169-4.914,1.361c-0.859,0.156-1.621,0.139-2.405,0.182c-0.863,0-1.626-0.058-2.423-0.134
				c-3.139-0.401-5.971-1.557-8.243-3.093c-2.273-1.552-3.977-3.465-5.183-5.328c-1.229-1.861-1.89-3.712-2.311-5.24
				c-0.096-0.386-0.186-0.752-0.271-1.096c-0.073-0.348-0.105-0.687-0.154-0.996c-0.097-0.623-0.162-1.148-0.16-1.556
				C603.016,50.13,603,49.688,603,49.688V49.663z"/>
		</g>
		<g display="inline">
			<path d="M281.857,313.9c2.001,1.588,3.991,3.138,6.033,4.634c2.045,1.487,4.113,2.932,6.182,4.363
				c2.076,1.422,4.183,2.796,6.312,4.132l6.413,3.946c4.296,2.594,8.666,5.043,13.104,7.424c1.115,0.59,2.207,1.219,3.329,1.836
				l1.706,0.962l0.907,0.534l0.515,0.325c0.198,0.133,0.378,0.245,0.746,0.544l0.154,0.132c0.055,0.048,0.082,0.068,0.213,0.197
				c0.106,0.104,0.209,0.213,0.308,0.324c0.087,0.105,0.014,0.002,0.232,0.283c0.158,0.211,0.305,0.437,0.435,0.672
				c0.138,0.262,0.219,0.419,0.353,0.783c0.419,1.053,0.399,2.77-0.198,3.939l-0.251,0.484l-0.054,0.106l-0.214,0.426l-0.43,0.851
				c-0.057,0.129-0.175,0.315-0.183,0.396l-0.063,0.272l-0.146,0.528c-0.107,0.275-0.228,0.842-0.345,1.326
				c-0.123,0.491-0.249,0.979-0.313,1.51c-0.386,2.038-0.472,4.222-0.305,6.091c0.047,0.463,0.061,0.96,0.181,1.314l0.127,0.578
				l0.055,0.289c-0.135-0.61-0.032-0.153-0.06-0.282l0.009,0.028l0.018,0.058l0.036,0.113l0.07,0.228l0.27,0.913l0.135,0.457
				c0.043,0.115,0.081,0.152,0.12,0.232c0.076,0.14,0.146,0.28,0.21,0.422l0.092,0.215c0.038,0.078,0.103,0.177,0.151,0.266
				c1.537,2.96,4.307,5.162,7.36,6.034c1.523,0.442,3.099,0.564,4.626,0.375c0.384-0.017,0.762-0.113,1.138-0.199l0.283-0.058
				l0.141-0.026l0.036-0.007l0.018-0.004c0.196-0.041-0.249,0.054-0.191,0.04l0.114-0.03l0.92-0.249
				c0.375-0.088,0.457-0.154,0.612-0.206c0.156-0.063,0.278-0.085,0.467-0.168c0.365-0.149,0.733-0.29,1.05-0.462
				c1.33-0.652,2.177-1.441,2.858-2.385c0.328-0.491,0.617-1.041,0.876-1.668c0.246-0.64,0.442-1.374,0.611-2.16l0.999-4.657
				l4.579-1.286c1.481-0.416,2.962-0.833,4.463-1.213l2.36-0.4c0.793-0.115,1.564-0.291,2.39-0.314
				c3.244-0.303,6.591-0.126,9.7,0.364c3.052,0.508,5.76,1.285,7.808,1.741c0.468,0.088,1.005,0.228,1.414,0.281
				c0.393,0.042,0.781,0.094,1.169,0.154c0.314-0.016,0.624-0.015,0.936,0.004c0.307,0.008,0.556-0.094,0.837-0.102
				c1.093-0.243,2.292-0.568,3.818-1.579c0.37-0.244,0.736-0.382,1.13-0.681l1.187-0.875l0.597-0.431l0.3-0.215l0.075-0.053
				c-0.639,0.532-0.151,0.125-0.282,0.233l0.044-0.039l0.179-0.156l0.712-0.625c0.217-0.193,0.56-0.475,0.529-0.501
				c0.053-0.081,0.111-0.156,0.176-0.225c0.063-0.069,0.131-0.112,0.231-0.271c0.166-0.267,0.426-0.487,0.553-0.764
				c0.144-0.268,0.35-0.507,0.447-0.787c0.13-0.267,0.273-0.527,0.348-0.811c0.401-1.096,0.551-2.268,0.459-3.514
				c-0.204-2.494-1.556-5.235-3.878-7.377c-1.15-1.083-2.54-1.996-4.068-2.783c-1.53-0.785-3.238-1.39-5.072-1.77
				c-1.829-0.385-3.751-0.646-5.762-0.633c-0.989-0.065-2.023,0.07-3.039,0.072c-1.035,0.115-2.066,0.146-3.116,0.324l-1.575,0.24
				l-0.197,0.029l-0.099,0.015l-0.05,0.007c0.712-0.008-6.984-0.049-4.051-0.119c-2.249-0.394-4.998-3.063-5.538-4.769
				c-0.145-0.33-0.271-0.673-0.378-1.021c-0.126-0.418-0.177-0.663-0.189-0.733l-0.081-0.424c-0.058-0.345-0.058-0.401-0.079-0.575
				l-0.037-0.4c-0.052-0.815-0.035-1.19-0.032-1.621c0.036-1.547,0.114-2.753,0.178-4.031c0.133-2.509,0.25-4.949,0.323-7.394
				c0.149-4.88,0.139-9.729-0.097-14.536c-0.221-4.806-0.544-9.586-1.244-14.267c-0.173-1.17-0.364-2.333-0.576-3.489l-0.335-1.728
				l-0.401-1.901l-0.375-1.86l-0.188-0.928l-0.199-0.801c-0.279-1.075-0.486-2.124-0.851-3.256
				c-1.302-4.459-2.878-8.905-4.941-13.171c-0.52-1.063-1.018-2.144-1.605-3.176l-0.851-1.57l-0.213-0.393l-0.053-0.099
				l-0.026-0.049c0.116,0.17,0.015,0.018,0.032,0.043l-0.123-0.203l-0.492-0.813c-1.351-2.276-2.532-4.053-3.915-6.048
				c-2.726-3.944-5.819-7.666-9.264-11.074c-3.472-3.364-7.15-6.624-11.275-9.308c-1.039-0.648-2.059-1.357-3.135-1.955
				c-1.059-0.641-2.13-1.27-3.239-1.826c-2.192-1.187-4.496-2.143-6.838-3.103l0.238-0.971c4.956,1.219,9.739,3.09,14.255,5.458
				c4.521,2.362,8.74,5.278,12.662,8.532c3.917,3.264,7.519,6.903,10.768,10.834c0.837,0.96,1.594,1.997,2.37,3.015
				c0.799,1.012,1.489,2.061,2.216,3.097c0.737,1.018,1.413,2.148,2.09,3.21c0.701,1.066,1.313,2.186,1.947,3.293
				c2.499,4.446,4.607,9.117,6.258,13.95c0.835,2.413,1.536,4.909,2.117,7.349c0.642,2.423,1.248,4.935,1.732,7.425
				c1.949,10.009,2.572,20.204,2.563,30.348c-0.003,2.537-0.052,5.074-0.114,7.604c-0.028,1.262-0.068,2.531-0.068,3.766
				c0.003,0.303,0.008,0.613,0.028,0.874l0.018,0.156c0-0.003,0.011,0.06-0.001,0.003c-0.005-0.017-0.012-0.032-0.021-0.047
				c-0.047-0.165-0.33-0.435-0.56-0.459c0.335-0.002-0.472,0.006-0.373-0.003l0.059-0.011l0.118-0.022l0.237-0.044l1.896-0.354
				c1.261-0.251,2.55-0.351,3.825-0.523c1.289-0.06,2.572-0.218,3.867-0.176c2.584-0.055,5.178,0.219,7.726,0.71
				c5.097,0.968,10.023,3.251,13.919,6.797c3.881,3.526,6.642,8.455,7.132,13.801c0.224,2.661-0.149,5.38-1.098,7.882
				c-0.956,2.519-2.439,4.751-4.388,6.663c-0.472,0.489-0.954,0.849-1.431,1.278c-0.544,0.476-1.056,0.783-1.586,1.183l-1.577,1.132
				c-0.525,0.379-1.124,0.664-1.683,1c-2.214,1.371-4.786,2.28-7.424,2.674c-0.666,0.05-1.334,0.17-2,0.156l-1.998-0.079
				l-1.951-0.294c-0.646-0.107-1.266-0.276-1.899-0.412c-2.499-0.612-4.896-1.325-7.32-1.796c-4.839-0.899-9.825-0.569-14.563,0.906
				l0.607-0.647c-0.321,1.279-0.722,2.545-1.267,3.762c-0.56,1.21-1.244,2.369-2.064,3.434c-1.665,2.112-3.884,3.776-6.321,4.824
				c-1.198,0.549-2.495,0.941-3.765,1.252l-0.929,0.206c-0.361,0.074-0.665,0.102-1,0.154c-0.655,0.099-1.311,0.194-1.975,0.195
				c-2.646,0.132-5.315-0.281-7.797-1.201c-4.975-1.82-9.146-5.713-11.265-10.569c-0.536-1.221-0.958-2.539-1.219-3.743
				c-0.202-0.672-0.199-1.322-0.307-1.985c-0.111-0.662-0.089-1.315-0.101-1.972c-0.008-2.619,0.312-5.212,0.973-7.727
				c0.13-0.637,0.334-1.257,0.54-1.876c0.205-0.62,0.378-1.24,0.673-1.858c0.28-0.601,0.508-1.275,0.838-1.81l0.48-0.821l0.24-0.41
				l0.06-0.104l0.015-0.025c-0.011,0.02,0.047-0.079-0.021,0.037c-0.088,0.161-0.091,0.402-0.028,0.547
				c0.015,0.043,0.02,0.058,0.034,0.086c0.09,0.137,0.047,0.07,0.056,0.086c0.001-0.002-0.033-0.029-0.048-0.043
				c-0.872-0.677-2.029-1.383-3.066-2.06l-3.203-2.059c-4.262-2.766-8.478-5.616-12.599-8.599
				c-8.23-5.969-16.155-12.43-23.228-19.768L281.857,313.9z"/>
		</g>
		<g display="inline">
			<path d="M564.348,330.399c1.726,1.195,3.382,2.494,5.042,3.803c0.839,0.646,1.616,1.354,2.422,2.043
				c0.796,0.699,1.589,1.407,2.37,2.136c0.784,0.727,1.561,1.47,2.324,2.238c0.747,0.778,1.472,1.592,2.195,2.417
				c0.714,0.839,1.418,1.7,2.1,2.603c0.679,0.906,1.337,1.853,1.964,2.852c0.618,1.007,1.219,2.069,1.73,3.218
				c0.489,1.17,0.955,2.385,1.261,3.74c0.338,1.328,0.504,2.794,0.509,4.304c-0.013,1.521-0.277,3.087-0.729,4.604
				c-0.489,1.487-1.14,2.955-1.964,4.207c-0.803,1.298-1.725,2.406-2.697,3.434c-0.489,0.475-0.986,0.961-1.49,1.411
				c-0.505,0.42-1.016,0.864-1.529,1.259c-0.513,0.379-1.032,0.773-1.552,1.134l-1.563,1.03l-0.602,0.396l-1.571,0.33
				c-3.673,0.771-7.423,1.437-11.438,1.543c-3.975,0.132-8.185-0.261-12.214-1.249c-4.025-0.985-7.669-2.566-10.545-3.608
				c-2.916-1.079-4.916-1.558-7.158-1.607l-0.417-0.013l-0.208-0.008l-0.104-0.005l-0.053-0.002l-0.025-0.002
				c2.831-0.196,0.763-0.049,1.384-0.091l-0.156,0.036c-0.053,0.008,0.067-0.006,0.139-0.016l0.233-0.035
				c0.155-0.026,0.311-0.059,0.465-0.097c0.308-0.076,0.61-0.175,0.9-0.293l0.197-0.084l-0.003,0.004l-0.006,0.006l-0.026,0.021
				l-0.164,0.094l-1.989,1.127c-1.495,0.85-3.089,1.742-4.717,2.601c-3.267,1.729-6.713,3.371-10.543,4.666
				c-1.919,0.65-3.933,1.229-6.11,1.659c-2.177,0.426-4.529,0.717-7.145,0.59c-2.595-0.119-5.531-0.652-8.41-2.046
				c-0.716-0.315-1.41-0.775-2.096-1.188l-0.256-0.162c0.482,0.354-0.731-0.528-0.615-0.445l-0.03-0.025l-0.062-0.052l-0.246-0.205
				l-0.493-0.409c-0.029-0.018-0.307-0.274-0.48-0.44l-0.573-0.565c-0.376-0.384-0.739-0.78-1.086-1.186
				c-0.53-0.673-0.896-1.223-1.322-1.859c-1.463-2.399-2.236-4.531-2.904-6.543c-0.639-2.002-1.079-3.861-1.487-5.687
				c-0.753-3.639-1.254-7.062-1.798-10.437c-0.498-3.375-0.971-6.686-1.522-9.959c-0.493-3.285-1.108-6.518-1.75-9.745
				c-0.637-3.229-1.392-6.426-2.226-9.61c-0.872-3.17-1.73-6.375-2.832-9.509c-1.091-3.137-2.28-6.267-3.589-9.386
				c-1.311-3.121-2.799-6.185-4.307-9.323l0.785-0.619c2.106,2.711,4.183,5.455,6.013,8.367c0.965,1.423,1.8,2.928,2.697,4.394
				c0.823,1.509,1.693,2.994,2.45,4.538c3.164,6.11,5.642,12.561,7.657,19.125c2.035,6.563,3.563,13.265,4.994,19.948
				c0.726,3.34,1.419,6.683,2.265,9.961c0.865,3.251,1.814,6.55,3.533,9.257c0.233,0.313,0.459,0.647,0.694,0.946
				c0.259,0.259,0.467,0.523,0.749,0.791l0.503,0.397l0.252,0.198l0.063,0.05l0.032,0.024c0.023,0.019-0.095-0.067-0.029-0.022
				l0.125,0.071c0.343,0.18,0.653,0.416,1.019,0.554c1.407,0.654,2.989,0.951,4.597,0.995c3.233,0.075,6.518-0.749,9.667-1.842
				c3.156-1.124,6.225-2.543,9.237-4.087c1.506-0.775,2.994-1.588,4.488-2.415c0.749-0.413,1.492-0.83,2.278-1.237
				c0.191-0.102,0.4-0.203,0.615-0.303c0.147-0.086,0.752-0.292,0.856-0.288c0.081-0.007-0.127,0.006,0.192-0.018l0.042,0.002
				l0.083,0.006l0.166,0.01l0.331,0.02l0.664,0.041c3.546,0.195,7.013,1.237,10.177,2.596c3.182,1.339,6.238,2.763,9.452,3.688
				c3.203,0.949,6.531,1.403,9.881,1.483c3.354,0.137,6.72-0.273,10.065-0.701l-0.259,0.086l1.311-0.735
				c0.43-0.256,0.844-0.533,1.267-0.798c0.415-0.274,0.806-0.578,1.211-0.865c0.388-0.306,0.759-0.629,1.138-0.944
				c0.708-0.675,1.4-1.371,1.956-2.162c0.595-0.765,1.021-1.629,1.392-2.507c0.328-0.896,0.553-1.828,0.636-2.785
				c0.066-0.957,0.052-1.93-0.111-2.895c-0.126-0.969-0.398-1.923-0.69-2.869l-0.508-1.404c-0.199-0.459-0.383-0.924-0.595-1.379
				c-0.424-0.911-0.89-1.806-1.386-2.688c-0.501-0.879-1.034-1.741-1.584-2.597c-1.114-1.7-2.317-3.35-3.566-4.966
				c-2.505-3.235-5.203-6.314-7.97-9.355L564.348,330.399z"/>
		</g>
		<g display="inline">
			<path d="M461.321,241.525c3.052,1.665,6.046,3.128,9.192,4.43c3.119,1.308,6.263,2.52,9.462,3.577
				c1.601,0.526,3.207,1.03,4.824,1.501c1.613,0.48,3.216,0.978,4.844,1.415c3.239,0.903,6.508,1.717,9.798,2.453
				c1.64,0.379,3.295,0.719,4.943,1.067c1.645,0.366,3.293,0.72,4.946,1.057c3.308,0.675,6.625,1.31,9.959,1.898l20.087,3.395
				l20.3,3.323c6.787,1.269,13.614,2.593,20.544,4.296c3.467,0.86,6.957,1.802,10.513,2.993c3.567,1.209,7.168,2.578,10.92,4.788
				c1.867,1.084,3.799,2.401,5.714,4.215c1.889,1.795,3.839,4.205,5.063,7.38c1.253,3.152,1.457,6.858,0.848,9.841
				c-0.592,3.023-1.718,5.447-2.902,7.563l-0.278,0.497l-0.316,0.396c-1.414,1.769-2.672,3.52-4.293,5.3l-1.164,1.327
				c-0.391,0.442-0.873,0.895-1.309,1.339l-1.344,1.332c-0.48,0.444-1.035,0.893-1.555,1.333c-0.987,0.887-2.284,1.738-3.528,2.558
				c-1.343,0.763-2.759,1.491-4.124,1.993c-0.729,0.304-1.295,0.472-1.906,0.675l-0.877,0.282l-0.724,0.219l-0.722,0.219
				l-0.564,0.188c-0.373,0.124-0.776,0.242-1.068,0.375l-0.957,0.382l-0.92,0.455c-0.617,0.279-1.255,0.745-1.893,1.091
				l-1.974,1.392c-0.668,0.517-1.342,1.098-2.017,1.639c-0.682,0.508-1.36,1.184-2.042,1.781l-1.024,0.92l-0.787,0.717l-0.578,0.504
				l-1.156,1.009c-0.411,0.349-0.688,0.632-1.313,1.085c-1.101,0.831-2.216,1.646-3.34,2.44c-4.323,2.761-9.037,4.708-13.781,5.927
				c-1.182,0.298-2.362,0.47-3.543,0.701l-1.77,0.32l-0.885,0.157l-0.873,0.077l-3.487,0.289c-1.162,0.099-2.326,0.201-3.452,0.155
				l-3.405-0.031l-1.7-0.02l-0.425-0.006l-0.406-0.012l-0.191-0.015l-0.765-0.058c-1.044-0.085-1.986-0.138-3.114-0.249
				c-1.246-0.152-2.488-0.303-3.73-0.484c-1.271-0.273-2.487-0.474-3.791-0.841c-1.331-0.427-2.63-0.765-3.978-1.426
				c-0.659-0.316-1.347-0.57-1.966-0.96l-1.855-1.161c-0.618-0.392-1.106-0.833-1.658-1.254c-0.545-0.427-1.077-0.858-1.501-1.279
				l-1.354-1.276l-1.177-1.22c-0.808-0.83-1.472-1.574-2.182-2.346c-1.388-1.512-2.703-2.953-4.057-4.347
				c-2.705-2.785-5.494-5.456-8.493-7.985c-0.747-0.633-1.487-1.274-2.222-1.929l-2.289-1.881l-2.254-1.857l-2.426-1.888
				c-3.229-2.491-6.484-5.115-9.676-7.419l-2.405-1.787c-0.793-0.62-1.59-1.221-2.4-1.764l-2.425-1.689
				c-0.81-0.565-1.616-1.148-2.459-1.627c-3.291-2.096-6.835-3.895-10.489-5.825c-3.63-1.908-7.255-3.941-10.867-5.917
				c-3.55-2.119-7.104-4.208-10.597-6.397l0.428-0.904l11.164,5.067c3.762,1.599,7.499,3.238,11.293,4.774
				c3.777,1.556,7.584,3.134,11.252,5.029c3.644,1.922,7.189,4.026,10.61,6.293c3.484,2.19,6.811,4.554,10.203,6.845l2.535,1.729
				l2.509,1.801l2.503,1.8l2.439,1.888c3.266,2.5,6.382,5.203,9.386,8.016c3.021,2.788,5.797,5.861,8.811,8.472
				c2.976,2.673,6.688,4.075,10.656,4.62l2.975,0.319c1.008,0.075,2.039,0.104,3.058,0.158l0.767,0.037l0.191,0.009l0.168-0.003
				l0.379-0.007l1.516-0.024l3.031-0.048c1.014,0.021,2.015-0.101,3.016-0.214l3.005-0.32l0.751-0.081l0.736-0.154l1.474-0.31
				c0.978-0.22,1.974-0.379,2.938-0.647c3.845-1.12,7.542-2.691,10.884-4.872l2.37-1.763c0.79-0.59,1.528-1.342,2.296-2.005
				l0.57-0.513l0.537-0.501l1.136-1.058c0.766-0.695,1.488-1.434,2.308-2.078c3.111-2.716,6.603-5.19,10.58-6.725
				c1.972-0.775,3.993-1.266,5.801-1.976c0.918-0.335,1.76-0.801,2.604-1.265c0.801-0.548,1.631-1.046,2.365-1.714
				c3.032-2.521,5.595-5.699,8.087-8.882l-0.064,0.097c0.802-1.419,1.463-2.908,1.767-4.443c0.311-1.532,0.22-3.096-0.324-4.527
				c-0.536-1.436-1.495-2.726-2.65-3.845c-1.155-1.123-2.498-2.095-3.928-2.94c-2.844-1.724-5.984-3.019-9.152-4.193
				c-3.182-1.161-6.442-2.141-9.723-3.05c-6.567-1.808-13.236-3.302-19.917-4.746l-20.082-4.238
				c-6.697-1.426-13.387-2.902-20.046-4.527c-6.655-1.638-13.292-3.382-19.832-5.468c-3.272-1.03-6.522-2.138-9.74-3.338
				c-3.217-1.201-6.41-2.473-9.543-3.888c-3.133-1.412-6.217-2.94-9.218-4.624c-2.987-1.675-5.941-3.539-8.685-5.562
				L461.321,241.525z"/>
		</g>
		<g display="inline">
			<path fill="none" d="M449.81,276.251"/>
		</g>
	</g>
</g>
<g id="Layer_4">
	<rect y="-0.25" width="717" height="538"/>
	<g>
		<path fill="#FFFFFF" d="M559.689,223.511c-1.898,0.047-3.799,0.077-5.697,0.146l-5.617,0.467
			c-1.859,0.197-3.699,0.459-5.548,0.688c-1.849,0.227-3.657,0.581-5.487,0.867c-0.228,0.034-0.452,0.081-0.68,0.119
			c-1.078-1.014-2.233-2.234-3.43-3.684c-1.742-2.121-3.593-4.688-5.496-7.677c-3.809-5.979-7.729-13.72-11.604-22.822
			c-0.48-1.139-0.954-2.302-1.421-3.482c-0.224-0.585-0.451-1.175-0.68-1.77c-0.205-0.601-0.412-1.204-0.621-1.813
			c-0.225-0.648-0.45-1.302-0.678-1.96c-0.252-0.648-0.506-1.301-0.762-1.958c-0.258-0.657-0.518-1.319-0.778-1.985
			c-0.286-0.654-0.573-1.314-0.861-1.979c-2.317-5.313-5.25-10.673-8.688-16.022c-3.451-5.342-7.438-10.665-12.01-15.809
			c-4.578-5.138-9.796-10.033-15.564-14.609c-5.759-4.587-12.2-8.702-19.209-12.21c-3.531-1.703-7.18-3.316-11.037-4.54
			c-1.898-0.685-3.884-1.172-5.852-1.734c-0.996-0.242-2.006-0.453-3.013-0.679l-1.515-0.329l-1.539-0.253
			c-4.093-0.747-8.324-1.043-12.592-1.04c-1.07,0.025-2.141,0.05-3.215,0.075c-1.119,0.099-2.24,0.197-3.363,0.296
			c-1.188,0.086-2.096,0.257-3.083,0.404l-1.468,0.226l-0.367,0.057l-0.184,0.028c0.051-0.017-1.109,0.234-0.703,0.149l-0.715,0.174
			c-7.617,1.868-15.357,3.588-23.174,5.18c-15.642,3.111-31.689,5.374-47.721,6.106c-8.009,0.41-16.014,0.466-23.908-0.031
			c-7.895-0.491-15.669-1.519-23.124-3.31c-0.935-0.224-1.864-0.46-2.806-0.709l-3.017-0.802l-0.492-0.118l-0.311-0.066l-0.362-0.07
			l-0.466-0.073c-0.28-0.032-0.506-0.053-0.834-0.064c-0.718-0.158-2.368,0.383-2.743,0.522c0.721-0.953-5.75,5.443-3.465,3.892
			c-0.196,0.664-0.218,0.882-0.266,1.126l-0.092,0.589c-0.047,0.347-0.08,0.65-0.112,0.947c-0.117,1.168-0.187,2.226-0.245,3.292
			c-0.189,4.226-0.184,8.308-0.099,12.38c0.183,8.128,0.738,16.104,1.57,23.918c0.857,7.809,1.913,15.466,3.384,22.883
			c1.441,7.422,3.138,14.625,5.063,21.563c1.936,6.935,4.055,13.618,6.452,19.958c1.427,3.775,2.933,7.42,4.487,10.958
			c-1.932-0.978-4.28-2.063-7.035-3.171c-4.59-1.703-10.328-3.429-17.109-4.316c-6.775-0.881-14.553-0.95-22.867,0.336
			c-8.299,1.26-17.174,3.879-25.674,8.475c-8.486,4.568-16.566,11.148-22.89,19.604c-6.324,8.438-10.705,18.771-12.387,29.725
			c-0.392,2.74-0.688,5.508-0.776,8.295l-0.057,2.091l-0.015,0.522l-0.035,0.467l-0.085,1.035c-0.127,1.363-0.282,2.727-0.481,4.092
			c-0.792,5.445-2.146,10.84-4.167,15.972c-2.014,5.13-4.672,10.02-8.045,14.349c-3.338,4.357-7.398,8.104-11.857,11.188
			c-0.588,0.396-1.183,0.78-1.784,1.154c1.388-1.279,2.649-2.707,3.808-4.225c4.866-6.43,7.139-14.832,6.49-22.98
			c-0.153-2.041-0.488-4.067-0.967-6.061c-0.488-1.992-1.178-3.93-1.983-5.816c-0.8-1.891-1.77-3.708-2.866-5.445
			c-1.085-1.748-2.316-3.404-3.669-4.957c-5.378-6.245-12.683-10.836-20.536-13.074c-3.915-1.176-7.942-1.841-11.954-2.072
			c-1.003-0.057-2.007-0.113-3.007-0.105l-1.5-0.01l-1.559,0.056l-1.54,0.067l-1.356,0.105l-0.678,0.053l-0.338,0.025l-0.301,0.031
			l-0.188,0.023l-1.504,0.189c-8.03,0.992-15.933,4.025-22.692,8.684c-3.381,2.326-6.506,5.026-9.252,8.053
			c-2.749,3.025-5.156,6.338-7.197,9.848c-2.063,3.504-3.625,7.265-4.877,11.1c-1.244,3.844-2.096,7.803-2.541,11.811
			c-0.924,8.008-0.238,16.229,2.169,24.016c2.517,7.737,6.795,15,12.598,20.748c2.882,2.885,6.101,5.408,9.53,7.523
			c3.42,2.137,7.104,3.764,10.835,5.061c3.741,1.285,7.563,2.189,11.392,2.791c0.957,0.156,1.914,0.303,2.874,0.396
			c0.958,0.096,1.915,0.243,2.874,0.29l2.874,0.191l2.933,0.081c0.502,0.022,0.955,0.005,1.404-0.007l1.359-0.037l1.361-0.035
			l1.424-0.066l5.513-0.268c1.838-0.115,3.675-0.27,5.509-0.403c0.917-0.074,1.834-0.126,2.75-0.22l2.748-0.289
			c7.328-0.711,14.598-2.014,21.774-3.551c1.792-0.399,3.573-0.852,5.356-1.274l5.295-1.499l2.639-0.754
			c0.87-0.288,1.74-0.57,2.605-0.877l4.678-1.63c0.116,0.159,0.209,0.332,0.316,0.499c0.207,0.346,0.394,0.718,0.586,1.105
			c0.194,0.394,0.403,0.793,0.654,1.185c0.064,0.093,0.129,0.19,0.193,0.285c-1.2,0.321-2.332,0.761-3.459,1.256
			c-1.599,0.716-3.102,1.646-4.469,2.79c-0.326,0.315-0.683,0.564-0.982,0.936c-0.277,0.334-0.572,0.619-0.836,0.99
			c-0.259,0.372-0.546,0.733-0.775,1.117c-0.215,0.39-0.454,0.768-0.649,1.168c-1.593,3.198-1.858,7.018-0.745,10.412
			c0.549,1.699,1.434,3.289,2.585,4.655l0.913,0.979c0.346,0.319,0.617,0.59,0.977,0.881c0.689,0.592,1.422,1.084,2.195,1.542
			c0.785,0.435,1.615,0.794,2.48,1.058c0.869,0.25,1.771,0.391,2.674,0.432c1.688,0.062,3.352-0.283,4.906-0.852
			c1.402,1.15,2.646,2.477,3.666,3.965c1.076,1.584,1.886,3.341,2.511,5.18c0.643,1.836,1.099,3.757,1.768,5.674
			c0.337,0.957,0.736,1.918,1.299,2.818c0.557,0.898,1.289,1.723,2.163,2.352c0.871,0.635,1.855,1.073,2.853,1.387
			c1.004,0.292,2.024,0.475,3.041,0.568c1.009,0.1,2.05,0.119,3.027,0.115c0.983,0.02,1.989-0.018,2.998-0.059
			c2.009-0.102,4.011-0.277,5.998-0.693c1.979-0.404,3.958-0.985,5.79-1.977c1.803-0.988,3.537-2.424,4.439-4.414
			c0.497-0.964,0.709-2.038,0.83-3.09c0.004-0.157,0.012-0.315,0.019-0.473c0.116-0.008,0.239-0.016,0.384-0.024
			c0.67-0.034,1.625-0.055,2.857,0.034c1.226,0.09,2.703,0.338,4.303,0.908c1.607,0.568,3.248,1.555,5.116,2.668
			c0.938,0.549,1.981,1.097,3.163,1.453c1.186,0.349,2.496,0.441,3.784,0.285c1.292-0.152,2.562-0.529,3.798-1.008
			c0.62-0.238,1.234-0.506,1.842-0.796c0.303-0.147,0.606-0.294,0.911-0.442c0.299-0.17,0.599-0.34,0.899-0.51
			c1.195-0.727,2.354-1.65,3.298-2.748c0.942-1.115,1.705-2.408,2.215-3.809c1.028-2.803,1.028-5.994,0.069-8.844
			c-0.479-1.426-1.163-2.774-1.996-4.008c-0.841-1.23-1.852-2.323-2.935-3.305c-1.093-0.975-2.3-1.787-3.53-2.506
			c-1.255-0.674-2.532-1.279-3.844-1.71c-2.607-0.899-5.246-1.356-7.746-1.515c-0.626-0.047-1.243-0.111-1.852-0.101
			c-0.264-0.001-0.524-0.043-0.783-0.057c0.187-0.951,0.443-1.939,0.648-2.86c0.992-4.205,1.529-7.775,1.875-10.271
			c0.217-1.629,0.344-2.795,0.408-3.417c0.445-0.509,0.896-1.017,1.328-1.534c0.629-0.719,1.238-1.457,1.833-2.209
			c0.396,0.064,1.054,0.171,1.942,0.314c0.746,0.172,1.689,0.164,2.769,0.199c0.543,0.014,1.12,0.029,1.729,0.045
			c0.598-0.006,1.225-0.012,1.879-0.02c1.305,0.012,2.746-0.117,4.26-0.191c1.504-0.154,3.098-0.266,4.729-0.533
			c1.639-0.209,3.313-0.549,5.014-0.888c0.844-0.2,1.695-0.401,2.551-0.603c0.85-0.218,1.695-0.473,2.544-0.71
			c0.85-0.237,1.671-0.562,2.503-0.841c0.834-0.277,1.648-0.597,2.451-0.924c1.622-0.618,3.171-1.34,4.667-2.037
			c0.738-0.369,1.464-0.732,2.175-1.086c0.696-0.383,1.377-0.756,2.041-1.119c0.668-0.355,1.293-0.742,1.9-1.112
			c0.605-0.374,1.203-0.713,1.753-1.077c1.099-0.732,2.116-1.385,2.963-2.043c0.137-0.104,0.267-0.199,0.397-0.297
			c0.104,0.581,0.193,1.184,0.291,1.775l0.381,2.463l0.381,2.463l0.19,1.232l0.048,0.307l0.012,0.078
			c-0.032-0.156-0.006-0.023-0.012-0.049l0.003,0.037l0.017,0.145l0.064,0.576c0.092,0.768,0.174,1.535,0.221,2.307
			c0.069,0.768,0.1,1.538,0.125,2.308c0.066,1.536,0.079,3.075,0.035,4.616c-0.106,3.084-0.432,6.164-0.939,9.299
			c-0.486,3.139-1.166,6.309-1.744,9.724c-0.508,3.417-1.053,7.112-0.582,11.386c0.242,2.119,0.808,4.365,1.773,6.471
			c0.256,0.516,0.506,1.04,0.785,1.543c0.297,0.493,0.586,0.977,0.907,1.471c0.37,0.515,0.751,1.025,1.143,1.526l0.823,0.966
			l0.101,0.119l0.026,0.029l0.193,0.207l0.081,0.08l0.325,0.32l0.659,0.635c0.464,0.412,0.969,0.807,1.474,1.19
			c1.065,0.732,2.217,1.41,3.473,1.881c1.242,0.509,2.547,0.801,3.824,0.985c1.271,0.143,2.531,0.17,3.698,0.065
			c2.371-0.179,4.431-0.747,6.33-1.374c1.899-0.639,3.603-1.387,5.208-2.119l4.434-2.072c0.652-0.29,1.297-0.57,1.787-0.732
			c0.141-0.057,0.229-0.071,0.34-0.109l0.154-0.048l0.109,0.128l0,0c0.002,0.002,0.018,0.152,0.078,0.152h0.036l0.069-0.166
			l0.025-0.078c-0.082,0.005-0.163,0.131-0.197,0.137l0.052,0.107h0.028l0.189-0.164l0.041,0.079l0.049,0.085h0.031
			c0.016,0,0.002-0.164-0.02-0.162l0.497-0.068l1.114-0.01c0.759,0.002,1.453,0.056,2.153,0.117
			c0.347,0.034,0.712,0.041,1.044,0.085l0.971,0.148c0.678,0.074,1.216,0.251,1.809,0.368c0.545,0.17,1.071,0.299,1.584,0.53
			l0.389,0.154l0.434,0.207l0.439,0.208l0.547,0.276l0.57,0.287l0.697,0.337c0.426,0.22,1.029,0.457,1.579,0.678
			c1.128,0.43,2.405,0.787,3.571,0.965l0.894,0.15l0.833,0.068c0.548,0.039,1.128,0.098,1.65,0.104l1.533-0.014l0.766-0.012
			l0.719-0.051c0.936-0.083,1.933-0.131,2.816-0.27l2.697-0.383l0.396-0.056l0.33-0.1c1.682-0.506,3.5-1.228,5.294-2.546
			c1.79-1.287,3.432-3.327,4.269-5.5c0.865-2.172,1.043-4.269,0.982-6.072c-0.068-1.824-0.392-3.424-0.785-4.893
			c-0.184-0.758-0.424-1.434-0.643-2.145c-0.231-0.627-0.45-1.277-0.697-1.881c0.55,0.465,1.112,0.921,1.699,1.365
			c1.377,1.033,2.838,2.037,4.548,2.908c1.706,0.848,3.676,1.615,6.123,1.857c0.312,0.021,0.62,0.045,0.938,0.053l0.977-0.019
			c0.335-0.028,0.673-0.064,1.007-0.104c0.387-0.06,0.833-0.16,1.242-0.262l0.636-0.17l0.069-0.02l0.018-0.004l0.258-0.092
			l0.028-0.008l0.113-0.033l0.229-0.064l0.909-0.265l0.453-0.134l0.427-0.084l0.846-0.174c0.278-0.057,0.521-0.053,0.779-0.089
			l0.382-0.044c0.123-0.009,0.233,0.003,0.351,0.001c0.97-0.011,1.614,0.104,3.146,0.407c0.414,0.078,0.765,0.156,1.303,0.233
			l0.746,0.112c0.25,0.035,0.557,0.051,0.832,0.074l0.852,0.057c0.289,0.008,0.587-0.005,0.881-0.01
			c0.592-0.013,1.183-0.037,1.736-0.13c0.55-0.085,1.162-0.142,1.658-0.276c0.514-0.123,1.028-0.251,1.539-0.393
			c0.504-0.142,0.932-0.317,1.4-0.479c0.447-0.17,0.947-0.325,1.346-0.515c0.818-0.373,1.689-0.733,2.461-1.13l2.293-1.202
			l0.217-0.113l0.402-0.298c2.253-1.666,4.411-3.929,5.832-6.964c0.193-0.36,0.345-0.758,0.48-1.168
			c0.143-0.403,0.277-0.812,0.404-1.221c0.24-0.823,0.354-1.719,0.485-2.582c0.04-0.886,0.074-1.788-0.005-2.672
			c-0.057-0.443-0.121-0.885-0.194-1.325l-0.116-0.659c-0.054-0.214-0.119-0.424-0.182-0.635c-0.986-3.421-3.137-6.174-5.51-8.068
			c-0.299-0.24-0.598-0.486-0.901-0.71l-0.933-0.595l-0.94-0.578c-0.328-0.188-0.711-0.359-1.067-0.533l-1.096-0.5
			c-0.171-0.073-0.396-0.178-0.521-0.221l-0.363-0.121l-1.744-0.574l-2.596-0.803c-0.867-0.271-1.731-0.639-2.6-0.949
			c-0.868-0.308-1.732-0.687-2.604-1.049c-0.867-0.371-1.746-0.704-2.604-1.133l-2.593-1.226l-2.579-1.315
			c-0.867-0.424-1.721-0.891-2.572-1.366s-1.712-0.93-2.559-1.422c-1.692-0.993-3.418-1.933-5.088-2.992l-2.533-1.546l-2.52-1.592
			c-0.846-0.523-1.674-1.074-2.506-1.625l-2.517-1.631l-4.99-3.365l-4.99-3.426l-2.495-1.733l-2.468-1.776
			c-1.691-1.143-3.331-2.334-4.995-3.515c-1.116-0.768-2.225-1.557-3.342-2.338c4.379-1.991,8.768-3.955,13.162-5.841
			c5.02-2.174,10.088-4.258,15.153-5.848c2.505-0.771,5.104-1.411,7.333-1.604l0.688-0.03l0.517-0.112l0.259-0.119h0.064
			c-0.044,0,0.189,0.126-0.082,0.124l0.133,0.069l2.125,0.134c1.424,0.085,2.82,0.104,4.231,0.146
			c5.622,0.099,11.208-0.023,16.798-0.285c5.59-0.246,11.164-0.737,16.746-1.392c5.584-0.667,11.167-1.491,16.787-2.688l2.111-0.472
			c0.703-0.15,1.408-0.315,2.117-0.519l2.125-0.576l1.065-0.292l1.139-0.38l2.272-0.787l0.567-0.202l0.479-0.204l0.948-0.409
			l1.926-0.834l1.97-0.897c5.151-2.404,10.134-4.979,15.065-7.688c4.928-2.707,9.775-5.553,14.543-8.541
			c4.773-2.976,9.4-6.19,13.974-9.488c4.571-3.298,9.013-6.795,13.366-10.41c4.361-3.604,8.559-7.432,12.637-11.396l3.031-3.006
			l2.918-3.129c0.987-1.027,1.909-2.123,2.854-3.195c0.933-1.084,1.899-2.133,2.788-3.26l2.711-3.335
			c0.884-1.129,1.734-2.289,2.602-3.433l1.291-1.726l1.229-1.776c0.809-1.192,1.657-2.354,2.432-3.572
			c3.158-4.832,5.973-9.912,8.508-15.148l4.312-8.91L559.689,223.511z M280.168,123.322c0.002-0.003,0.002-0.007,0.003-0.01
			C280.27,123.23,280.237,123.259,280.168,123.322z M247.313,399.852c0.076,0.003,0.106,0.015,0.11,0.031L247.313,399.852z
			 M338.37,426.441c-0.047,0.005-0.095,0.005-0.143-0.001c-0.06-0.003,0.042-0.003,0.082-0.007l0.123-0.003
			C338.41,426.436,338.385,426.441,338.37,426.441z M338.44,426.429l0.04-0.011C338.486,426.417,338.467,426.424,338.44,426.429z"/>
		<path fill="#FFFFFF" d="M246.231,404.896C245.956,404.871,246.229,404.916,246.231,404.896L246.231,404.896z"/>
		<path fill="#FFFFFF" d="M338.654,426.425l-0.072,0.006c0.072-0.003,0.139-0.007,0.174-0.009h-0.012L338.654,426.425z"/>
	</g>
</g>
<g id="Layer_5">
</g>
<g id="Layer_6">
</g>
</svg>
